<svg width="52" height="117" viewBox="0 0 52 117" fill="none" xmlns="http://www.w3.org/2000/svg">
<path d="M38.4453 73.3252C38.4453 73.3252 38.4453 76.7355 44.8554 80.1458C44.8554 80.1458 44.8554 74.9672 38.4453 73.3252Z" fill="#D7D8D5"/>
<path d="M39.7387 94.0404C38.4124 87.4408 36.8652 81.9149 35.6968 75.5679C31.9708 79.294 26.0975 79.7992 26.0975 79.7992L24.1081 75.0627L22.0872 80.4623C18.9611 79.7361 15.2034 76.1994 13.372 74.6206C11.4458 84.4094 6.96189 98.4611 8.69861 113.113C8.69861 113.113 21.0767 120.818 40.8439 114.534C41.6333 103.071 41.0649 100.577 39.7387 94.0404Z" fill="#185DDC"/>
<path opacity="0.5" d="M13.2129 75.41C13.2129 75.41 19.3072 82.1043 22.4649 82.3885L24.2016 76.1679L25.5594 80.5255C25.5594 80.5255 32.4116 80.115 35.7588 75.9784L35.6956 75.5995L24.1069 75.0943L13.4339 74.3364L13.2129 75.41Z" fill="#2C94F2"/>
<path d="M24.1093 75.0625L26.0986 79.799C26.0986 79.799 31.9719 79.2938 35.698 75.5677C34.877 71.1154 34.3402 67.6419 34.4665 66.442C34.9717 61.9897 37.9715 57.7268 38.3189 55.8638C38.6346 54.0007 36.5821 46.2012 36.5506 45.9802C36.519 45.7592 37.6242 39.8543 37.6242 39.8543L32.9192 38.6228L30.0773 37.4229L24.7092 36.9492H24.5514L19.2149 37.4229L15.4888 39.0964L11.5417 39.4122L12.3943 45.7907C12.3943 45.7907 10.9102 53.8744 10.9102 55.327C10.9102 56.7795 14.0363 62.8107 14.8257 65.1789C15.1099 65.9684 14.4152 69.5681 13.4047 74.5573C14.3205 76.8308 19.4359 80.4621 21.8989 81.2516L24.1093 75.0625Z" fill="#2C94F2"/>
<path d="M36.1699 39.0327L41.3801 40.3589C43.4326 41.1799 44.3799 45.8217 44.3799 45.8217C44.3799 45.8217 51.5794 58.4525 51.5794 60.8523C51.611 64.1679 49.4638 72.0937 44.8536 80.1458C44.8536 80.1458 44.9799 75.1567 38.4435 73.3252C38.4435 73.3252 41.6643 67.2309 44.8536 61.4207C44.8536 61.4207 41.6011 55.2001 38.5066 51.4424L36.8646 45.8533C36.8646 45.8849 36.8962 42.1904 36.1699 39.0327Z" fill="#EDEEE9"/>
<path opacity="0.5" d="M27.4554 79.6093L26.8555 100.418C26.8555 100.418 35.1286 99.3133 39.9599 95.082L36.1706 77.9673L27.4554 79.6093Z" fill="#0C476F"/>
<path d="M34.7823 14.0238C33.5824 5.43485 25.6882 3.35077 18.5834 7.20315C11.4786 11.0555 14.2889 24.7283 15.1099 28.9596C15.6783 31.8015 17.3203 34.3277 18.3307 35.6855C18.3623 35.6855 18.3939 35.6855 18.4255 35.6855C18.4255 35.6855 17.636 33.7909 17.6992 32.6225C17.6992 32.6225 17.9518 33.854 18.4571 34.5171C18.4571 34.5171 17.9518 31.8015 18.1413 31.1384C18.1413 31.1384 18.5834 33.3172 18.7097 33.6961C18.836 34.0751 22.4989 30.8858 29.8247 33.6961C29.8247 33.6961 30.9299 32.3699 31.1825 30.4437C31.1825 30.4437 31.2141 32.591 30.4247 34.1698C30.4247 34.1698 31.4667 34.0751 31.8772 31.7384C31.8772 31.7384 32.2246 33.8856 31.2141 35.7171H31.2457C33.4561 32.1173 35.8243 21.6022 34.7823 14.0238Z" fill="#1E0F00"/>
<path d="M34.6861 4.5194C29.8864 -1.51178 22.4027 -0.659207 21.2028 2.18271C21.2028 2.18271 17.1925 0.730175 13.4665 6.60347C9.80354 12.3505 11.5718 29.6546 12.1086 33.0017C12.1086 33.0017 15.7084 35.4647 18.3293 35.6858C17.3188 34.328 15.6453 31.8018 15.1084 28.9599C14.2875 24.7286 11.4771 11.0558 18.5819 7.20343C25.6867 3.35106 33.5809 5.4667 34.7808 14.024C35.8545 21.6025 33.4546 32.1176 31.2758 35.6858C31.7495 35.591 36.7386 34.6437 37.5596 32.5597C39.17 28.4862 39.7068 10.8032 34.6861 4.5194Z" fill="#1E0F00"/>
<path d="M28.8441 28.7388H20.3184V37.1698H28.8441V28.7388Z" fill="#FBBD90"/>
<path d="M16.2812 23.9194C17.46 23.2405 17.5407 21.171 16.4614 19.2969C15.3821 17.4229 13.5515 16.4541 12.3727 17.133C11.1939 17.8119 11.1132 19.8815 12.1925 21.7555C13.2718 23.6295 15.1024 24.5983 16.2812 23.9194Z" fill="#FBBD90"/>
<path d="M20.3184 31.3596C20.3184 31.3596 23.0971 33.7279 24.1076 33.791C25.118 33.8542 28.8441 31.8017 28.8441 31.8017V29.8755H20.3184V31.3596Z" fill="#F9A77A"/>
<path d="M32.5705 19.2975C31.4969 21.1605 31.56 23.2446 32.7284 23.9393C33.8967 24.6024 35.7282 23.6551 36.8018 21.7605C37.8754 19.8659 37.8122 17.8134 36.6439 17.1187C35.5071 16.4556 33.6757 17.4029 32.5705 19.2975Z" fill="#FBBD90"/>
<path d="M34.3706 18.9184C34.3706 26.8126 27.6448 32.3385 24.5818 32.3385C21.8346 32.3385 14.793 26.781 14.793 18.9184C14.793 11.0241 19.1822 5.90869 24.5818 5.90869C29.9814 5.90869 34.3706 11.0241 34.3706 18.9184Z" fill="#FED5B0"/>
<path d="M29.2236 3.66685C27.0132 2.59324 24.1713 2.34062 21.6452 3.09847C7.34084 6.47719 14.6667 27.1916 14.6667 27.1916C14.3825 22.4867 14.6983 18.1606 15.2982 14.8451C15.2982 14.9714 16.0876 12.0031 16.0561 12.5084C16.0245 12.982 15.4245 17.7186 15.4245 18.0659C15.4245 18.0659 18.6454 17.1186 21.4873 15.7924L21.9925 12.6978L22.5609 15.2556C22.5609 15.2556 29.8551 12.1926 31.3393 10.0454C31.4971 10.2348 31.9708 10.9295 32.1287 11.8137C32.1287 11.8137 32.8234 13.803 32.8234 15.445C32.8234 15.445 33.5181 14.4977 33.5496 12.2558C33.9286 15.0661 34.718 21.6341 34.3706 27.16C34.3706 27.1916 41.0334 8.34023 29.2236 3.66685Z" fill="#1E0F00"/>
<path d="M20.3191 33.6646L24.5188 37.1696L22.6873 42.7271L19.1191 37.5801L20.3191 33.6646Z" fill="#606060"/>
<path d="M28.8775 33.6646L24.6777 37.1696L26.5092 42.7271L30.0458 37.5801L28.8775 33.6646Z" fill="#606060"/>
<path d="M20.8885 62.8416L19.2465 37.3906L16.4678 38.559L13.2154 39.0326C13.2154 39.0326 11.826 44.7796 12.1733 46.169C12.1733 46.169 10.184 53.4317 10.1208 55.5473C10.0577 57.663 14.0364 62.3679 14.3206 67.3887L13.5311 69.0307C13.5311 69.0307 13.7206 69.8517 13.9416 70.6095C13.9416 70.6095 9.52087 85.0401 8.63672 91.6397C10.7839 92.9975 16.1836 96.2815 21.2675 97.734L20.8885 62.8416Z" fill="#EDEEE9"/>
<path d="M8.6364 91.5132C8.54167 92.2079 8.47852 92.8078 8.47852 93.3131C8.47852 93.3131 15.1728 97.3549 21.2987 99.0285V97.6391C16.1833 96.155 10.7836 92.9026 8.6364 91.5132Z" fill="white"/>
<path d="M40.6851 91.4501C39.7378 84.7873 35.3802 70.5777 35.3802 70.5777C35.6012 69.8199 35.7907 68.9989 35.7907 68.9989L35.0013 67.3569C35.2855 62.3362 39.5799 59.4943 39.201 55.5156C39.0115 53.4315 37.1485 46.1373 37.1485 46.1373C37.4643 44.7479 36.1696 39.0009 36.1696 39.0009L32.8856 38.5272L30.1069 37.3589L28.4649 62.8098L28.0859 97.4812C30.4858 96.7866 37.9063 94.3551 40.6851 91.4501Z" fill="#EDEEE9"/>
<path d="M28.055 97.5445L28.0234 99.1234C34.1493 97.4814 40.8436 93.408 40.8436 93.408C40.8436 92.8711 40.7805 92.208 40.6542 91.4502C37.907 94.3553 30.4864 96.7867 28.055 97.5445Z" fill="white"/>
<path d="M19.245 37.3906L20.887 62.8416C20.887 62.8416 14.6032 55.4526 14.9505 47.2426L17.0978 46.0427L14.6348 45.5059L16.4662 38.559L19.245 37.3906Z" fill="white"/>
<path d="M30.0756 37.3906L28.4336 62.8416C28.4336 62.8416 34.7174 55.4526 34.37 47.2426L32.2228 46.0427L34.6858 45.5059L32.8544 38.559L30.0756 37.3906Z" fill="white"/>
<path opacity="0.4" d="M31.3086 82.4507C31.3086 82.4507 35.7925 82.6086 37.5608 81.314L38.1924 87.5662L35.9504 89.9976L31.8454 88.4819L31.3086 82.4507Z" fill="#D3D4D1"/>
<path d="M37.593 81.8501C35.1932 83.1763 32.5092 83.3026 31.625 83.3026L32.4144 88.2918L36.4563 89.4917L38.4772 86.934L37.593 81.8501Z" fill="white"/>
<path d="M37.5927 81.8506L37.4032 80.8086C35.7928 82.2296 31.4668 82.3874 31.4668 82.3874L31.6247 83.3032C32.4773 83.3032 35.1929 83.1769 37.5927 81.8506Z" fill="#F1F2F2"/>
<path opacity="0.4" d="M37.4017 80.7769H36.3281L36.4229 81.3768C36.4229 81.3768 37.2439 80.9663 37.4017 80.7769Z" fill="#D3D4D1"/>
<path opacity="0.4" d="M18.0449 81.8825C18.0449 81.8825 13.3715 82.0404 11.5401 80.6826L10.877 87.219L13.2452 89.7452L17.5081 88.1663L18.0449 81.8825Z" fill="#D3D4D1"/>
<path d="M11.5111 81.2515C14.0057 82.6408 16.816 82.7672 17.7633 82.7672L16.9423 87.9773L12.711 89.2404L10.627 86.588L11.5111 81.2515Z" fill="white"/>
<path d="M11.5117 81.2512L11.7012 80.146C13.4063 81.6301 17.8902 81.788 17.8902 81.788L17.7324 82.7353C16.8166 82.7353 14.0063 82.6406 11.5117 81.2512Z" fill="#F1F2F2"/>
<path opacity="0.4" d="M11.668 80.1455H12.7732L12.6784 80.777C12.71 80.777 11.8574 80.3034 11.668 80.1455Z" fill="#D3D4D1"/>
<path opacity="0.5" d="M24.5199 37.1698L24.4567 47.748L24.1094 75.062L26.0987 79.7985C26.0987 79.7985 26.9513 79.8301 27.2039 79.6406L25.1198 74.5883L25.4672 39.6328L24.6462 37.1382H24.5199V37.1698Z" fill="#606060"/>
<path d="M24.3926 74.5882C24.3926 74.4303 24.5189 74.2725 24.7083 74.2725C24.8978 74.2725 25.0241 74.3988 25.0241 74.5882C25.0241 74.7777 24.8978 74.904 24.7083 74.904C24.5189 74.904 24.3926 74.7777 24.3926 74.5882Z" fill="#EDEEE9"/>
<path d="M24.3926 67.5467C24.3926 67.3888 24.5189 67.231 24.7083 67.231C24.8978 67.231 25.0241 67.3573 25.0241 67.5467C25.0241 67.7362 24.8978 67.8625 24.7083 67.8625C24.5189 67.8625 24.3926 67.7362 24.3926 67.5467Z" fill="#EDEEE9"/>
<path d="M24.4883 61.7684C24.4883 61.6105 24.6146 61.4526 24.804 61.4526C24.9619 61.4526 25.1198 61.5789 25.1198 61.7684C25.1198 61.9263 24.9935 62.0842 24.804 62.0842C24.6146 62.0526 24.4883 61.9263 24.4883 61.7684Z" fill="#EDEEE9"/>
<path d="M24.929 56.2741C25.1034 56.2741 25.2448 56.1327 25.2448 55.9583C25.2448 55.784 25.1034 55.6426 24.929 55.6426C24.7547 55.6426 24.6133 55.784 24.6133 55.9583C24.6133 56.1327 24.7547 56.2741 24.929 56.2741Z" fill="#EDEEE9"/>
<path d="M24.6133 50.2113C24.6133 50.0534 24.7396 49.8955 24.929 49.8955C25.1185 49.8955 25.2448 50.0218 25.2448 50.2113C25.2448 50.3692 25.1185 50.527 24.929 50.527C24.7396 50.527 24.6133 50.4007 24.6133 50.2113Z" fill="#EDEEE9"/>
<path d="M24.6133 44.3377C24.6133 44.1799 24.7396 44.022 24.929 44.022C25.1185 44.022 25.2448 44.1483 25.2448 44.3377C25.2448 44.5272 25.1185 44.6535 24.929 44.6535C24.7396 44.6535 24.6133 44.4956 24.6133 44.3377Z" fill="#EDEEE9"/>
<path d="M15.268 54.3794C15.268 54.3794 15.268 54.3478 15.268 54.3794C15.2048 54.2531 15.1732 54.1899 15.1417 54.0636C14.9522 53.6531 14.5101 52.8637 13.7207 51.8216C13.7207 51.8216 13.7839 51.1901 14.5733 51.127C14.5733 51.127 15.5522 52.5163 16.1837 53.9057C16.1837 53.9057 18.1099 58.2633 19.6887 59.6527C19.6887 59.6527 19.815 59.5264 20.0361 59.5896C20.2571 59.6527 20.7939 60.4737 20.4782 60.6316C20.194 60.8211 19.815 60.8526 19.5308 60.6947C19.2467 60.4737 17.6678 59.7474 15.268 54.3794Z" fill="#B2BDBB"/>
<path d="M19.688 35.7175L20.0038 34.707C14.4147 35.4333 14.6357 42.4434 14.9515 45.1906C14.32 45.4747 13.6568 46.0747 13.2779 47.3378C12.4569 50.2744 13.7831 51.8533 13.7831 51.8533C13.7831 51.8533 13.941 51.2849 14.6357 51.1586C14.6357 51.1586 13.72 49.7376 14.2568 47.6535C14.7936 45.5695 16.7829 46.0116 17.3198 46.4221C17.8566 46.8326 18.3934 48.9798 18.1408 50.1797C18.1408 50.1797 18.7091 49.7692 19.1196 50.1797C19.1196 50.1797 19.5617 45.4432 16.6251 44.9695C16.6251 44.9695 16.3093 44.9064 15.8672 44.9379C15.2041 35.9385 19.688 35.7175 19.688 35.7175Z" fill="#0C476F"/>
<path d="M17.4456 60C17.4456 60 17.3824 59.6211 16.9088 59.5579C16.4351 59.4948 15.7404 59.4 15.551 59.9053C15.3615 60.4105 15.3931 61.1683 16.0246 61.2946C16.6562 61.421 17.2245 61.5788 17.3193 61.2631C17.2877 61.2315 17.5719 60.3158 17.4456 60Z" fill="#595352"/>
<path d="M18.8998 53.1795C18.8998 53.0532 18.8998 52.9585 18.8682 52.8322C18.8682 52.3901 18.8682 51.4744 19.0893 50.1797C19.0893 50.1797 18.7104 49.5798 18.1104 50.1797C18.1104 50.1797 17.7946 51.6323 17.8578 53.1795C17.8578 53.1795 18.142 57.9476 17.3841 59.8738C17.3841 59.8738 17.2263 59.8107 17.0368 59.9686C16.8473 60.1264 16.7842 61.0738 17.0999 61.1053C17.4473 61.1369 17.7946 61.0106 17.9841 60.6948C18.1736 60.4422 19.2472 59.0844 18.8998 53.1795Z" fill="#BFCAC8"/>
<path d="M19.6883 59.7476C19.6883 59.7476 19.5935 59.3686 19.9725 59.116C20.3514 58.8634 20.9513 58.4213 21.3303 58.7687C21.7408 59.116 22.0565 59.8423 21.5513 60.2212C21.0461 60.6317 20.604 61.0106 20.383 60.7896C20.383 60.7896 19.7198 60.0949 19.6883 59.7476Z" fill="#595352"/>
<path d="M19.0567 34.8965C19.0567 34.8965 19.0251 35.6543 18.6777 36.0333C18.6777 36.0333 19.2461 35.7175 19.7198 35.7175L20.0355 34.707C20.004 34.707 19.3408 34.8018 19.0567 34.8965Z" fill="#2D405A"/>
<path d="M30.2032 54.8212C31.5635 54.8212 32.6662 53.7467 32.6662 52.4213C32.6662 51.0959 31.5635 50.0215 30.2032 50.0215C28.843 50.0215 27.7402 51.0959 27.7402 52.4213C27.7402 53.7467 28.843 54.8212 30.2032 54.8212Z" fill="#6F7878"/>
<path d="M31.956 53.9274C32.8932 52.9902 32.8932 51.4707 31.956 50.5335C31.0188 49.5963 29.4994 49.5964 28.5622 50.5335C27.625 51.4707 27.625 52.9902 28.5622 53.9274C29.4993 54.8646 31.0188 54.8646 31.956 53.9274Z" fill="#9AA4A3"/>
<path d="M29.1621 34.7065L29.4779 35.7802C29.4779 35.7802 31.6251 36.0959 31.7198 41.685C31.8146 47.2741 30.1094 50.5581 30.1094 50.5581C30.1094 50.5581 30.8673 50.5897 31.4041 51.316C31.4041 51.316 33.2355 45.1269 32.7934 40.3588C32.604 37.7063 31.4988 35.2433 29.1621 34.7065Z" fill="#0C476F"/>
<path d="M30.266 53.8104C31.2252 53.8104 32.0028 53.0328 32.0028 52.0736C32.0028 51.1145 31.2252 50.3369 30.266 50.3369C29.3069 50.3369 28.5293 51.1145 28.5293 52.0736C28.5293 53.0328 29.3069 53.8104 30.266 53.8104Z" fill="#848D8D"/>
<path d="M29.9512 50.6214C29.9512 50.6214 30.4564 49.6425 30.5196 49.3899C30.5196 49.3899 31.5616 49.1688 31.9721 49.9267C31.9721 49.9267 31.6879 51.1266 31.53 51.4424C31.53 51.4739 31.2142 50.6845 29.9512 50.6214Z" fill="#BFCAC8"/>
<path d="M28.7207 51.9473C28.7207 51.0948 29.4154 50.4316 30.2364 50.4316C31.089 50.4316 31.7521 51.1263 31.7521 51.9473C31.7521 52.7999 31.0574 53.463 30.2364 53.463C29.4154 53.463 28.7207 52.7999 28.7207 51.9473Z" fill="#BFCAC8"/>
<path d="M29.3203 51.7264C29.3203 51.1265 29.794 50.6528 30.3939 50.6528C30.9939 50.6528 31.4675 51.1265 31.4675 51.7264C31.4675 52.3264 30.9939 52.8001 30.3939 52.8001C29.794 52.8001 29.3203 52.3264 29.3203 51.7264Z" fill="#E3F3F3"/>
<path d="M29.8568 34.9276C29.8568 34.9276 29.6358 35.3697 29.7621 35.8749C29.7621 35.8749 29.5726 35.7802 29.4779 35.7802L29.1621 34.7065C29.1621 34.7065 29.6989 34.8329 29.8568 34.9276Z" fill="#2D405A"/>
<path d="M13.2148 39.0327L8.00466 40.3589C5.95217 41.1799 6.23636 46.1375 6.23636 46.1375C6.23636 46.1375 -0.363208 63.9784 0.0157143 66.3783C0.426214 69.0307 4.18386 76.8618 12.9938 79.7353C12.9938 79.7353 10.7203 71.9358 17.4146 69.1886C17.4146 69.1886 11.636 69.0939 8.6362 65.4941C8.6362 65.4941 7.30997 65.0836 7.75205 63.6942C8.16255 62.3364 9.52036 56.7473 10.8782 51.474L12.1728 46.1691C12.1728 46.1691 12.4886 42.1904 13.2148 39.0327Z" fill="#EDEEE9"/>
<path d="M17.4129 69.189C17.4129 69.189 10.5923 72.5361 12.9922 79.7356C12.9922 79.7041 18.5813 76.7358 17.4129 69.189Z" fill="#D7D8D5"/>
<path d="M9.80426 66.8835L4.5625 53.4634L18.2669 55.1054L24.3612 77.8407L13.3093 75.6619L9.80426 66.8835Z" fill="#FFBE55"/>
<path d="M6.83449 62.3052C6.83449 62.3052 11.8552 67.8627 17.6338 69.1889C17.6338 69.1889 13.1814 70.5467 12.5499 75.6306L9.23433 72.7887C9.26591 72.7571 5.91876 65.9365 6.83449 62.3052Z" fill="#EDEEE9"/>
<path d="M40.4021 74.0518C40.4021 74.0518 39.7074 75.2517 39.0127 76.3885C39.0127 76.3885 36.455 72.5992 33.8657 72.1887C31.308 71.7782 30.6133 73.7044 30.6133 73.7044C30.6133 73.7044 31.1817 74.5254 32.129 74.0518C33.1079 73.5781 34.0236 73.6413 34.5604 74.2412C34.5604 74.2412 33.3289 73.5781 31.308 75.2517C31.308 75.2517 31.6237 76.3885 32.6974 76.1043C33.771 75.8201 36.0129 76.1043 36.1392 76.1358C36.2655 76.199 32.6026 75.9464 32.3184 76.5463C32.0342 77.1463 32.6026 77.4305 33.2657 77.3989C33.9289 77.3673 36.3287 77.8094 36.3287 77.8094C36.3287 77.8094 33.8973 77.9357 33.8025 78.1252C33.7078 78.3146 33.7078 78.9146 34.213 78.9778C34.7183 79.0093 36.8971 78.5988 37.2444 78.9778C37.6233 79.3567 38.0654 81.6934 39.2338 81.5986C40.4021 81.5039 44.1913 77.5252 44.1913 77.5252C44.1913 77.5252 43.5282 75.7253 40.4021 74.0518Z" fill="#FED5B0"/>
<path d="M33.1722 54.4741L37.4035 54.632V55.6425L32.7617 55.5162L33.1722 54.4741Z" fill="#D7D8D5"/>
<path d="M38.8558 72.5674C38.8558 72.5674 44.3186 73.1989 45.6133 78.7565L44.8554 80.1458C44.8554 80.1458 44.7607 75.2198 38.4453 73.3252L38.8558 72.5674Z" fill="white"/>
<path opacity="0.7" d="M40.3714 74.0835L40.1504 74.4624C40.1504 74.4624 42.7713 75.915 43.1502 78.599L44.1291 77.6201C44.1291 77.6201 42.9607 75.2834 40.3714 74.0835Z" fill="#FBBD90"/>
<path opacity="0.5" d="M9.36264 93.8188L9.23633 94.6714C9.23633 94.6714 15.899 99.7237 20.6356 100.292V98.8396C20.6356 98.8396 15.4254 97.3239 9.36264 93.8188Z" fill="#0C476F"/>
<path d="M18.2676 55.1055L17.8887 55.6423L24.1093 77.7777L24.3619 77.8408L18.2676 55.1055Z" fill="#D69538"/>
<path d="M16.6874 69.5993C16.6874 69.5993 16.7821 67.231 17.6347 66.8521C18.5188 66.4732 19.5293 66.0627 19.8451 65.8416C20.1608 65.6206 20.8871 66.41 20.1924 67.0731C19.4977 67.7678 19.1504 68.3046 19.2451 68.3993C19.3398 68.4941 21.9607 66.9152 22.4975 67.6731C23.0343 68.3993 22.5291 69.3782 22.3712 69.5677C22.2133 69.7571 22.6554 70.0098 22.7501 71.0202C22.8449 72.0307 23.508 72.1254 23.1922 73.3569C22.8764 74.5884 15.2348 77.4303 12.6455 75.22C12.614 75.2515 12.614 71.7149 16.6874 69.5993Z" fill="#FED5B0"/>
<path opacity="0.7" d="M15.8978 70.0415C15.8978 70.0415 13.6874 73.3571 14.2874 75.9464C14.2874 75.9464 13.0875 75.7253 12.6454 75.2201C12.6138 75.2517 12.6454 72.0308 15.8978 70.0415Z" fill="#FBBD90"/>
<path d="M16.0892 68.7153C16.0892 68.7153 10.1212 71.1152 11.8579 79.2936L12.9947 79.7041C12.9947 79.7041 10.6896 72.8203 16.6892 69.5995L16.7523 68.9364L16.0892 68.7153Z" fill="white"/>
<path d="M17.8879 55.6422L4.81511 54.0949L4.5625 53.4634L18.2669 55.1054L17.8879 55.6422Z" fill="#E5A342"/>
</svg>
