<svg width="28" height="28" viewBox="0 0 28 28" fill="none" xmlns="http://www.w3.org/2000/svg">
<path d="M6 4C6 3.44771 6.44772 3 7 3H10.4794C11.0317 3 11.4794 3.44772 11.4794 4V24.0273C11.4794 24.5796 11.0317 25.0273 10.4794 25.0273H7C6.44772 25.0273 6 24.5796 6 24.0273V4Z" fill="#185DDC"/>
<path d="M16.5205 12.8767C16.5205 12.3244 16.9682 11.8767 17.5205 11.8767H20.9999C21.5522 11.8767 21.9999 12.3244 21.9999 12.8767V23.9178C21.9999 24.47 21.5522 24.9178 20.9999 24.9178H17.5205C16.9682 24.9178 16.5205 24.47 16.5205 23.9178V12.8767Z" fill="#0ACF83"/>
<rect x="0.5" y="0.5" width="27" height="27" stroke="#EBEEF5"/>
</svg>
