<svg width="28" height="28" viewBox="0 0 28 28" fill="none" xmlns="http://www.w3.org/2000/svg">
<line x1="1" y1="18.75" x2="28" y2="18.75" stroke="#F3F1F1" stroke-width="0.5"/>
<line x1="1" y1="21.75" x2="28" y2="21.75" stroke="#F3F1F1" stroke-width="0.5"/>
<line x1="1" y1="24.75" x2="28" y2="24.75" stroke="#F3F1F1" stroke-width="0.5"/>
<line x1="1" y1="6.75" x2="28" y2="6.75" stroke="#F3F1F1" stroke-width="0.5"/>
<line x1="1" y1="9.75" x2="28" y2="9.75" stroke="#F3F1F1" stroke-width="0.5"/>
<line x1="1" y1="12.75" x2="28" y2="12.75" stroke="#F3F1F1" stroke-width="0.5"/>
<line x1="1" y1="15.75" x2="28" y2="15.75" stroke="#F3F1F1" stroke-width="0.5"/>
<path d="M7 16.5C7 16.2239 7.22386 16 7.5 16V16C7.77614 16 8 16.2239 8 16.5V23.5C8 23.7761 7.77614 24 7.5 24V24C7.22386 24 7 23.7761 7 23.5V16.5Z" fill="#FF5A89"/>
<path d="M21 11.5C21 11.2239 20.7761 11 20.5 11V11C20.2239 11 20 11.2239 20 11.5V23.5C20 23.7761 20.2239 24 20.5 24V24C20.7761 24 21 23.7761 21 23.5V11.5Z" fill="#F92461"/>
<path d="M13 4.5C13 4.22386 13.2239 4 13.5 4V4C13.7761 4 14 4.22386 14 4.5V23.5C14 23.7761 13.7761 24 13.5 24V24C13.2239 24 13 23.7761 13 23.5V4.5Z" fill="#0ACF83"/>
<rect x="0.5" y="0.5" width="27" height="27" stroke="#EBEEF5"/>
</svg>
