<svg width="29" height="28" viewBox="0 0 29 28" fill="none" xmlns="http://www.w3.org/2000/svg">
<path d="M25.7507 14C25.7507 11.5635 24.9418 9.19599 23.4509 7.26892C21.96 5.34185 19.8714 3.96431 17.513 3.35247C15.1546 2.74063 12.6598 2.92912 10.4201 3.88835C8.18037 4.84758 6.32251 6.52327 5.13804 8.65246C3.95357 10.7817 3.50953 13.2439 3.87559 15.6527C4.24166 18.0615 5.39711 20.2806 7.16064 21.9618C8.92417 23.643 11.196 24.6911 13.6195 24.9417C16.0431 25.1922 18.4813 24.6311 20.5514 23.3462L14.7507 14H25.7507Z" fill="#567DF4"/>
<path d="M25.7507 14C25.7507 12.5555 25.4662 11.1251 24.9134 9.79048C24.3606 8.4559 23.5504 7.24327 22.5289 6.22183C21.5075 5.20038 20.2948 4.39013 18.9602 3.83732C17.6257 3.28452 16.1953 3 14.7507 3L14.7507 14H25.7507Z" fill="#0ACF83"/>
<path d="M25.7507 14C25.7507 12.5555 25.4662 11.1251 24.9134 9.79048C24.3606 8.4559 23.5504 7.24327 22.5289 6.22183L14.7507 14H25.7507Z" fill="#FFC700"/>
<path d="M25.7507 14C25.7507 15.5984 25.4024 17.1775 24.73 18.6276L14.7507 14H25.7507Z" fill="#FF5A89"/>
<path d="M23.357 20.8507C22.0175 22.5334 20.2141 23.7866 18.1699 24.4551L14.7507 14L23.357 20.8507Z" fill="#3434FF"/>
<path d="M23.3555 20.8526C23.9687 20.0826 24.4757 19.2338 24.8631 18.3289L14.7507 14L23.3555 20.8526Z" fill="#FF5A89"/>
<rect x="1.25073" y="0.5" width="27" height="27" stroke="#EBEEF5"/>
</svg>
