<svg width="28" height="28" viewBox="0 0 28 28" fill="none" xmlns="http://www.w3.org/2000/svg">
<path d="M14 25C11.8244 25 9.69767 24.3549 7.88873 23.1462C6.07979 21.9375 4.66989 20.2195 3.83732 18.2095C3.00476 16.1995 2.78692 13.9878 3.21136 11.854C3.6358 9.72021 4.68345 7.7602 6.22183 6.22182L10.5967 10.5967C9.92358 11.2698 9.46519 12.1274 9.27948 13.061C9.09377 13.9947 9.18908 14.9624 9.55336 15.8419C9.91765 16.7213 10.5345 17.473 11.326 18.0019C12.1175 18.5307 13.0481 18.813 14 18.813L14 25Z" fill="#567DF4"/>
<path d="M21.4307 22.1108C19.4045 23.967 16.757 24.9977 14.0091 25L14.004 18.813C15.2063 18.812 16.3647 18.361 17.2513 17.5488L21.4307 22.1108Z" fill="#0ACF83"/>
<path d="M6.22182 6.22183C7.65908 4.78457 9.46647 3.77364 11.4434 3.30123C13.4203 2.82881 15.4895 2.91339 17.4213 3.54558C19.3531 4.17777 21.0719 5.33284 22.3871 6.88261C23.7022 8.43238 24.5623 10.3162 24.8717 12.3251L18.7569 13.2672C18.6215 12.3882 18.2452 11.5639 17.6697 10.8858C17.0943 10.2077 16.3422 9.70232 15.497 9.42571C14.6517 9.1491 13.7464 9.11209 12.8814 9.3188C12.0164 9.5255 11.2256 9.96783 10.5967 10.5967L6.22182 6.22183Z" fill="#FF5A89"/>
<path d="M6.22182 6.22183C7.93407 4.50958 10.1635 3.41017 12.5642 3.09411C14.965 2.77804 17.4029 3.26298 19.5 4.47372L16.4065 9.83182C15.4889 9.30206 14.4222 9.08988 13.3718 9.22817C12.3213 9.36647 11.3459 9.84751 10.5967 10.5967L6.22182 6.22183Z" fill="#22215B"/>
<path d="M24.8702 12.3151C25.1493 14.1156 24.9767 15.9573 24.3681 17.6746C23.7594 19.392 22.7337 20.9313 21.383 22.1542L17.2304 17.5678C17.8214 17.0327 18.2702 16.3592 18.5365 15.6078C18.8028 14.8564 18.8783 14.0506 18.7562 13.2628L24.8702 12.3151Z" fill="#FFC700"/>
<rect x="0.5" y="0.5" width="27" height="27" stroke="#EBEEF5"/>
</svg>
