<svg width="17" height="17" viewBox="0 0 17 17" fill="none" xmlns="http://www.w3.org/2000/svg">
<path fill-rule="evenodd" clip-rule="evenodd" d="M3.08203 5.02344C3.08203 3.91887 3.97746 3.02344 5.08203 3.02344C6.1866 3.02344 7.08203 3.91887 7.08203 5.02344C7.08203 6.12801 6.1866 7.02344 5.08203 7.02344C3.97746 7.02344 3.08203 6.12801 3.08203 5.02344ZM8.50149 4.27344C8.15815 2.70085 6.75759 1.52344 5.08203 1.52344C3.14903 1.52344 1.58203 3.09044 1.58203 5.02344C1.58203 6.95643 3.14903 8.52344 5.08203 8.52344C6.75759 8.52344 8.15815 7.34603 8.50149 5.77344H13.832C14.2462 5.77344 14.582 5.43765 14.582 5.02344C14.582 4.60922 14.2462 4.27344 13.832 4.27344H8.50149ZM3.08203 11.5234C3.08203 11.1092 3.41782 10.7734 3.83203 10.7734H9.16258C9.50591 9.20085 10.9065 8.02344 12.582 8.02344C14.515 8.02344 16.082 9.59044 16.082 11.5234C16.082 13.4564 14.515 15.0234 12.582 15.0234C10.9065 15.0234 9.50591 13.846 9.16258 12.2734H3.83203C3.41782 12.2734 3.08203 11.9377 3.08203 11.5234ZM10.582 11.5234C10.582 12.628 11.4775 13.5234 12.582 13.5234C13.6866 13.5234 14.582 12.628 14.582 11.5234C14.582 10.4189 13.6866 9.52344 12.582 9.52344C11.4775 9.52344 10.582 10.4189 10.582 11.5234Z" fill="#132954"/>
</svg>
