<svg width="19" height="19" viewBox="0 0 19 19" fill="none" xmlns="http://www.w3.org/2000/svg">
<path d="M13.666 5.79297H13.1035V1.29297H11.9785V5.79297H11.416C11.1177 5.79327 10.8318 5.91189 10.6208 6.1228C10.4099 6.33372 10.2913 6.61969 10.291 6.91797V11.418C10.2913 11.7162 10.4099 12.0022 10.6208 12.2131C10.8318 12.424 11.1177 12.5427 11.416 12.543H11.9785V17.043H13.1035V12.543H13.666C13.9643 12.5427 14.2503 12.424 14.4612 12.2131C14.6721 12.0022 14.7907 11.7162 14.791 11.418V6.91797C14.7907 6.61969 14.6721 6.33372 14.4612 6.1228C14.2503 5.91189 13.9643 5.79327 13.666 5.79297ZM13.666 11.418H11.416V6.91797H13.666V11.418Z" fill="#525F7F"/>
<path d="M6.91602 3.54297H6.35352V1.29297H5.22852V3.54297H4.66602C4.36774 3.54327 4.08176 3.66189 3.87085 3.8728C3.65994 4.08372 3.54131 4.36969 3.54102 4.66797V13.668C3.54131 13.9662 3.65994 14.2522 3.87085 14.4631C4.08176 14.674 4.36774 14.7927 4.66602 14.793H5.22852V17.043H6.35352V14.793H6.91602C7.21429 14.7927 7.50027 14.674 7.71118 14.4631C7.9221 14.2522 8.04072 13.9662 8.04102 13.668V4.66797C8.04072 4.36969 7.9221 4.08372 7.71118 3.8728C7.50027 3.66189 7.21429 3.54327 6.91602 3.54297ZM6.91602 13.668H4.66602V4.66797H6.91602V13.668Z" fill="#525F7F"/>
</svg>
