<svg width="16" height="16" viewBox="0 0 16 16" fill="none" xmlns="http://www.w3.org/2000/svg">
<path fill-rule="evenodd" clip-rule="evenodd" d="M0.666992 8.00002C0.666992 3.94993 3.95024 0.666687 8.00033 0.666687C12.0504 0.666687 15.3337 3.94993 15.3337 8.00002C15.3337 12.0501 12.0504 15.3334 8.00033 15.3334C3.95024 15.3334 0.666992 12.0501 0.666992 8.00002Z" fill="#00C45A"/>
<path fill-rule="evenodd" clip-rule="evenodd" d="M11.5408 5.362C11.8011 5.62235 11.8011 6.04446 11.5408 6.30481L7.40272 10.6381C7.14237 10.8985 6.72026 10.8985 6.45991 10.6381L4.45991 8.63814C4.19956 8.37779 4.19956 7.95568 4.45991 7.69533C4.72026 7.43498 5.14237 7.43498 5.40272 7.69533L6.93132 9.22393L10.598 5.362C10.8583 5.10165 11.2804 5.10165 11.5408 5.362Z" fill="white"/>
</svg>
