<svg width="16" height="23" viewBox="0 0 16 23" fill="none" xmlns="http://www.w3.org/2000/svg">
<path d="M0 0.999999C0 0.447714 0.447715 0 1 0H4.47943C5.03172 0 5.47943 0.447715 5.47943 1V21.0273C5.47943 21.5796 5.03172 22.0273 4.47943 22.0273H1C0.447716 22.0273 0 21.5796 0 21.0273V0.999999Z" fill="#185DDC"/>
<path d="M10.5205 9.87671C10.5205 9.32442 10.9682 8.87671 11.5205 8.87671H14.9999C15.5522 8.87671 15.9999 9.32442 15.9999 9.87671V20.9178C15.9999 21.47 15.5522 21.9178 14.9999 21.9178H11.5205C10.9682 21.9178 10.5205 21.47 10.5205 20.9178V9.87671Z" fill="#0ACF83"/>
</svg>
