<svg width="18" height="18" viewBox="0 0 25 30" fill="none" xmlns="http://www.w3.org/2000/svg">
<path d="M7.78527 2.76181L8.85484 2.43836C9.70736 2.1813 10.6243 2.24325 11.4345 2.61265C12.2447 2.98205 12.8928 3.63365 13.2578 4.44583L14.2223 6.591C14.5362 7.28927 14.6237 8.0683 14.4725 8.81882C14.3213 9.56934 13.9389 10.2537 13.3791 10.7759L11.6916 12.3491C11.6592 12.3793 11.6331 12.4156 11.615 12.456C11.5968 12.4964 11.5868 12.54 11.5856 12.5843C11.5722 13.0862 11.9055 13.9915 12.6148 15.2201C13.1388 16.1277 13.6162 16.7759 14.0237 17.1564C14.1667 17.2894 14.2805 17.3746 14.3583 17.4267L14.4737 17.4986L14.5299 17.4892L16.8464 16.7815C17.5781 16.5575 18.3614 16.5681 19.0868 16.8116C19.8122 17.0552 20.4432 17.5195 20.8914 18.1396L22.2598 20.0378C22.7797 20.7577 23.0207 21.6419 22.938 22.5261C22.8553 23.4103 22.4545 24.2344 21.81 24.8454L20.9973 25.6164C20.3463 26.2328 19.5416 26.6629 18.6674 26.8615C17.7932 27.0602 16.8816 27.0201 16.0282 26.7456C12.7719 25.7003 9.84982 22.8764 7.22582 18.3315C4.59715 13.7785 3.61474 9.83158 4.34273 6.48449C4.52169 5.66347 4.90468 4.9008 5.45633 4.26693C6.00797 3.63306 6.71047 3.14844 7.49892 2.85785L7.78527 2.76181ZM8.14242 4.75108C7.6802 4.93038 7.26962 5.22144 6.9474 5.59824C6.62517 5.97503 6.40136 6.4258 6.29596 6.91025C5.69083 9.69681 6.55653 13.1722 8.95787 17.3315C11.3565 21.4861 13.9292 23.9714 16.6392 24.844C17.1511 25.0083 17.6979 25.0321 18.2221 24.9128C18.7464 24.7935 19.229 24.5354 19.6193 24.1657L20.4332 23.394C20.7263 23.1165 20.9086 22.742 20.9465 22.3402C20.9843 21.9384 20.8751 21.5365 20.639 21.2091L19.2694 19.3116C19.0658 19.03 18.7791 18.8191 18.4497 18.7084C18.1202 18.5977 17.7644 18.5928 17.432 18.6944L15.0484 19.4193L14.8627 19.4603C13.4596 19.6914 12.2201 18.5365 10.8828 16.2201C10.0041 14.6982 9.56212 13.4954 9.58629 12.5346C9.60186 11.9082 9.86961 11.3133 10.3278 10.8856L12.0141 9.31308C12.5369 8.82652 12.6904 8.06045 12.3981 7.41015L11.4343 5.26614C11.2683 4.89699 10.9737 4.60087 10.6054 4.43303C10.2371 4.26519 9.82027 4.23712 9.43278 4.35404L8.36254 4.67634L8.14242 4.75108Z" fill="#929191"/>
</svg>
