<svg width="14" height="14" viewBox="0 0 14 14" fill="none" xmlns="http://www.w3.org/2000/svg">
<path d="M2.78125 9.10938V8.6875H1.9375V9.10938C1.9375 9.89259 2.24863 10.6437 2.80245 11.1975C3.35627 11.7514 4.10741 12.0625 4.89062 12.0625H6.15625V11.2188H4.89062C4.33118 11.2188 3.79466 10.9965 3.39907 10.6009C3.00349 10.2053 2.78125 9.66882 2.78125 9.10938Z" fill="#3434FF"/>
<path d="M10.375 4.89062V5.3125H11.2188V4.89062C11.2188 4.10741 10.9076 3.35627 10.3538 2.80245C9.79998 2.24863 9.04884 1.9375 8.26562 1.9375H7V2.78125H8.26562C8.54263 2.78125 8.81693 2.83581 9.07285 2.94182C9.32877 3.04782 9.5613 3.2032 9.75718 3.39907C9.95305 3.59495 10.1084 3.82748 10.2144 4.0834C10.3204 4.33932 10.375 4.61362 10.375 4.89062Z" fill="#3434FF"/>
<path d="M4.89062 4.89063H2.35938C2.02371 4.89062 1.70179 5.02397 1.46444 5.26132C1.22709 5.49867 1.09375 5.82059 1.09375 6.15625V7H1.9375V6.15625C1.9375 6.04436 1.98195 5.93706 2.06106 5.85794C2.14018 5.77882 2.24749 5.73438 2.35938 5.73438H4.89062C5.00251 5.73438 5.10982 5.77882 5.18894 5.85794C5.26805 5.93706 5.3125 6.04436 5.3125 6.15625V7H6.15625V6.15625C6.15625 5.82059 6.02291 5.49867 5.78556 5.26132C5.54821 5.02397 5.22629 4.89063 4.89062 4.89063Z" fill="#3434FF"/>
<path d="M3.625 4.46875C3.95876 4.46875 4.28502 4.36978 4.56253 4.18436C4.84003 3.99893 5.05632 3.73538 5.18405 3.42703C5.31177 3.11868 5.34519 2.77938 5.28008 2.45204C5.21496 2.12469 5.05424 1.82401 4.81824 1.58801C4.58224 1.35201 4.28156 1.19129 3.95422 1.12618C3.62687 1.06106 3.28757 1.09448 2.97922 1.2222C2.67087 1.34993 2.40732 1.56622 2.2219 1.84373C2.03647 2.12123 1.9375 2.4475 1.9375 2.78125C1.9375 3.2288 2.11529 3.65803 2.43176 3.97449C2.74823 4.29096 3.17745 4.46875 3.625 4.46875ZM3.625 1.9375C3.79188 1.9375 3.95501 1.98699 4.09376 2.0797C4.23252 2.17241 4.34066 2.30419 4.40452 2.45836C4.46839 2.61254 4.48509 2.78219 4.45254 2.94586C4.41998 3.10953 4.33962 3.25987 4.22162 3.37787C4.10362 3.49587 3.95328 3.57623 3.78961 3.60879C3.62594 3.64135 3.45629 3.62464 3.30211 3.56078C3.14794 3.49691 3.01616 3.38877 2.92345 3.25001C2.83074 3.11126 2.78125 2.94813 2.78125 2.78125C2.78125 2.55747 2.87015 2.34286 3.02838 2.18463C3.18661 2.0264 3.40122 1.9375 3.625 1.9375Z" fill="#3434FF"/>
<path d="M11.6406 10.7969H9.10938C8.77371 10.7969 8.45179 10.9302 8.21444 11.1676C7.97709 11.4049 7.84375 11.7268 7.84375 12.0625V12.9062H8.6875V12.0625C8.6875 11.9506 8.73195 11.8433 8.81106 11.7642C8.89018 11.6851 8.99749 11.6406 9.10938 11.6406H11.6406C11.7525 11.6406 11.8598 11.6851 11.9389 11.7642C12.0181 11.8433 12.0625 11.9506 12.0625 12.0625V12.9062H12.9062V12.0625C12.9062 11.7268 12.7729 11.4049 12.5356 11.1676C12.2982 10.9302 11.9763 10.7969 11.6406 10.7969Z" fill="#3434FF"/>
<path d="M8.6875 8.6875C8.6875 9.02126 8.78647 9.34752 8.9719 9.62502C9.15732 9.90253 9.42087 10.1188 9.72922 10.2465C10.0376 10.3743 10.3769 10.4077 10.7042 10.3426C11.0316 10.2775 11.3322 10.1167 11.5682 9.88074C11.8042 9.64474 11.965 9.34406 12.0301 9.01672C12.0952 8.68937 12.0618 8.35007 11.934 8.04172C11.8063 7.73337 11.59 7.46982 11.3125 7.2844C11.035 7.09897 10.7088 7 10.375 7C9.92745 7 9.49823 7.17779 9.18176 7.49426C8.86529 7.81073 8.6875 8.23995 8.6875 8.6875ZM11.2188 8.6875C11.2188 8.85438 11.1693 9.01751 11.0766 9.15626C10.9838 9.29502 10.8521 9.40316 10.6979 9.46702C10.5437 9.53088 10.3741 9.54759 10.2104 9.51504C10.0467 9.48248 9.89638 9.40212 9.77838 9.28412C9.66038 9.16612 9.58002 9.01578 9.54746 8.85211C9.51491 8.68844 9.53162 8.51879 9.59548 8.36461C9.65934 8.21044 9.76748 8.07866 9.90624 7.98595C10.045 7.89324 10.2081 7.84375 10.375 7.84375C10.5988 7.84375 10.8134 7.93265 10.9716 8.09088C11.1299 8.24911 11.2188 8.46372 11.2188 8.6875Z" fill="#3434FF"/>
</svg>
