<svg width="16" height="16" viewBox="0 0 16 16" fill="none" xmlns="http://www.w3.org/2000/svg">
<path d="M5.87109 6H6.84957V12H5.87109V6Z" fill="#858585"/>
<path d="M8.80664 6H9.78511V12H8.80664V6Z" fill="#858585"/>
<path d="M1.95703 3V4H2.93551V14C2.93551 14.2652 3.0386 14.5196 3.22209 14.7071C3.40559 14.8946 3.65447 15 3.91398 15H11.7418C12.0013 15 12.2502 14.8946 12.4337 14.7071C12.6172 14.5196 12.7203 14.2652 12.7203 14V4H13.6987V3H1.95703ZM3.91398 14V4H11.7418V14H3.91398Z" fill="#858585"/>
<path d="M5.87109 1H9.78499V2H5.87109V1Z" fill="#858585"/>
</svg>