
<svg height='28' width='28'  fill="#185DDC" xmlns="http://www.w3.org/2000/svg" viewBox="0 0 100 100" x="0px" y="0px"><path d="M83.3,33.2l-.5,0,.5-.07h0a2.35,2.35,0,0,0-.64-1.33L61.85,11a2.24,2.24,0,0,0-.38-.31l-.1-.06a3.47,3.47,0,0,0-.33-.18l-.18-.05a1.4,1.4,0,0,0-.29-.09,2.63,2.63,0,0,0-.49-.05H26.68a2.5,2.5,0,0,0-2.5,2.5V39.64a2.5,2.5,0,0,0,5,0V15.29h28.4V33.43a2.51,2.51,0,0,0,2.49,2.5l18.26.1V84.44H29.18V80.57a2.5,2.5,0,0,0-5,0v6.37a2.5,2.5,0,0,0,2.5,2.5H80.83a2.5,2.5,0,0,0,2.5-2.5V33.54A2,2,0,0,0,83.3,33.2ZM62.58,30.94V18.83L74.76,31Z"></path><path d="M44.87,55.56a2.15,2.15,0,0,0-2.1,1,8.17,8.17,0,0,0-.59,3.6,7.68,7.68,0,0,0,.58,3.52,2.19,2.19,0,0,0,2.11,1,2.19,2.19,0,0,0,2.11-1,7.66,7.66,0,0,0,.59-3.52,8,8,0,0,0-.6-3.6A2.15,2.15,0,0,0,44.87,55.56Z"></path><path d="M33.71,56.71a1.49,1.49,0,0,0-.82-.7,4.72,4.72,0,0,0-1.57-.21H29.63v8.67h1.69a2.68,2.68,0,0,0,2.1-.72,3.72,3.72,0,0,0,.7-2.19c0-.43,0-1,0-1.8a17.7,17.7,0,0,0-.08-1.84A3.42,3.42,0,0,0,33.71,56.71Z"></path><path d="M69.66,45.14H19.17a2.5,2.5,0,0,0-2.5,2.5V72.57a2.5,2.5,0,0,0,2.5,2.5H69.66a2.5,2.5,0,0,0,2.5-2.5V47.64A2.5,2.5,0,0,0,69.66,45.14ZM37.19,63.07a6.21,6.21,0,0,1-.87,2.27,3.78,3.78,0,0,1-1.91,1.49,9,9,0,0,1-3.09.45H26.45V53h4.87a10,10,0,0,1,3,.39,3.69,3.69,0,0,1,1.9,1.31,5.43,5.43,0,0,1,.92,2.12,16.19,16.19,0,0,1,.25,3.1A18.36,18.36,0,0,1,37.19,63.07Zm12.3,2.65c-.9,1.2-2.45,1.81-4.62,1.81s-3.72-.61-4.62-1.81-1.33-3-1.33-5.52a9.54,9.54,0,0,1,1.33-5.59c.9-1.24,2.45-1.86,4.62-1.86s3.72.62,4.62,1.86a9.54,9.54,0,0,1,1.34,5.59C50.83,62.69,50.38,64.54,49.49,65.72Zm6.65-1.89a2.29,2.29,0,0,0,2.11.85,24.13,24.13,0,0,0,3.57-.29l.19,0L62.08,67l-.14,0a18.58,18.58,0,0,1-3.95.48,7.49,7.49,0,0,1-2.85-.45,3.64,3.64,0,0,1-1.73-1.44,6.31,6.31,0,0,1-.84-2.28,19,19,0,0,1-.23-3.22c0-2.76.38-4.63,1.17-5.73s2.25-1.66,4.34-1.66A18.08,18.08,0,0,1,62,53.3l.14,0L62,55.93l-.19,0c-2.62-.4-4.45-.42-5.17,0a2,2,0,0,0-.78,1.26,14.5,14.5,0,0,0-.27,3.38A6.87,6.87,0,0,0,56.14,63.83Z"></path></svg>