<svg width="17" height="18" viewBox="0 0 20 18" fill="none" xmlns="http://www.w3.org/2000/svg">
<path d="M0.625 11.375C0.79076 11.375 0.949732 11.4408 1.06694 11.5581C1.18415 11.6753 1.25 11.8342 1.25 12V15.125C1.25 15.4565 1.3817 15.7745 1.61612 16.0089C1.85054 16.2433 2.16848 16.375 2.5 16.375H17.5C17.8315 16.375 18.1495 16.2433 18.3839 16.0089C18.6183 15.7745 18.75 15.4565 18.75 15.125V12C18.75 11.8342 18.8158 11.6753 18.9331 11.5581C19.0503 11.4408 19.2092 11.375 19.375 11.375C19.5408 11.375 19.6997 11.4408 19.8169 11.5581C19.9342 11.6753 20 11.8342 20 12V15.125C20 15.788 19.7366 16.4239 19.2678 16.8928C18.7989 17.3616 18.163 17.625 17.5 17.625H2.5C1.83696 17.625 1.20107 17.3616 0.732233 16.8928C0.263392 16.4239 0 15.788 0 15.125V12C0 11.8342 0.065848 11.6753 0.183058 11.5581C0.300269 11.4408 0.45924 11.375 0.625 11.375Z" fill="#185DDC"/>
<path d="M9.55829 13.8175C9.61635 13.8757 9.68532 13.9219 9.76125 13.9534C9.83718 13.9849 9.91858 14.0011 10.0008 14.0011C10.083 14.0011 10.1644 13.9849 10.2403 13.9534C10.3163 13.9219 10.3852 13.8757 10.4433 13.8175L14.1933 10.0675C14.3106 9.95014 14.3766 9.79097 14.3766 9.625C14.3766 9.45903 14.3106 9.29986 14.1933 9.1825C14.0759 9.06514 13.9168 8.99921 13.7508 8.99921C13.5848 8.99921 13.4256 9.06514 13.3083 9.1825L10.6258 11.8663V0.875C10.6258 0.70924 10.5599 0.550268 10.4427 0.433058C10.3255 0.315848 10.1666 0.25 10.0008 0.25C9.83503 0.25 9.67606 0.315848 9.55885 0.433058C9.44164 0.550268 9.37579 0.70924 9.37579 0.875V11.8663L6.69329 9.1825C6.57593 9.06514 6.41676 8.99921 6.25079 8.99921C6.08482 8.99921 5.92565 9.06514 5.80829 9.1825C5.69093 9.29986 5.625 9.45903 5.625 9.625C5.625 9.79097 5.69093 9.95014 5.80829 10.0675L9.55829 13.8175Z" fill="#185DDC"/>
</svg>
