<svg width="13" height="16" viewBox="0 0 13 16" fill="none" xmlns="http://www.w3.org/2000/svg">
<path d="M12.0009 14.999C12.1259 14.9988 12.2464 15.0453 12.3387 15.1295C12.431 15.2137 12.4885 15.3294 12.4998 15.4538C12.5111 15.5783 12.4754 15.7024 12.3997 15.8018C12.324 15.9013 12.2139 15.9687 12.0909 15.991L12.0009 15.999H1.00092C0.875975 15.9992 0.755471 15.9527 0.663138 15.8685C0.570805 15.7843 0.513336 15.6686 0.502046 15.5442C0.490757 15.4197 0.526466 15.2956 0.602141 15.1962C0.677817 15.0967 0.787974 15.0293 0.910921 15.007L1.00092 14.999H12.0009ZM6.50092 2.78103e-08C6.61795 -3.89861e-05 6.73128 0.0409714 6.82118 0.115889C6.91108 0.190807 6.97186 0.294886 6.99292 0.41L7.00092 0.5L6.99692 12.294L10.6419 8.646C10.7245 8.56302 10.8336 8.51166 10.9502 8.50088C11.0668 8.4901 11.1835 8.52058 11.2799 8.587L11.3499 8.645C11.4327 8.72773 11.4839 8.8369 11.4945 8.95349C11.5051 9.07008 11.4745 9.18669 11.4079 9.283L11.3499 9.353L6.85792 13.853C6.78827 13.9226 6.69952 13.9699 6.60292 13.989L6.49692 13.999C6.42065 13.9989 6.3454 13.9814 6.27693 13.9478C6.20847 13.9142 6.1486 13.8653 6.10192 13.805L1.64492 9.353C1.55599 9.26498 1.5033 9.14681 1.49724 9.02183C1.49119 8.89686 1.53222 8.77415 1.61222 8.67794C1.69222 8.58174 1.80539 8.51902 1.92938 8.50219C2.05337 8.48535 2.17916 8.51561 2.28192 8.587L2.35192 8.645L5.99692 12.286L6.00092 0.501C6.00079 0.435255 6.01363 0.370129 6.03869 0.309351C6.06376 0.248573 6.10057 0.193335 6.14701 0.1468C6.19346 0.100265 6.24862 0.0633457 6.30935 0.0381558C6.37008 0.012966 6.43518 -1.0368e-07 6.50092 2.78103e-08Z" fill="black"/>
</svg>
