<svg width="28" height="28" viewBox="0 0 28 28" fill="none" xmlns="http://www.w3.org/2000/svg">
<path d="M14.6876 12.4739C14.6565 12.3017 14.562 12.1475 14.4228 12.0416C14.2836 11.9356 14.1098 11.8856 13.9356 11.9014C13.7614 11.9172 13.5994 11.9977 13.4815 12.127C13.3637 12.2562 13.2985 12.4249 13.2988 12.5999V18.9027L13.31 19.0287C13.3412 19.2008 13.4357 19.355 13.5749 19.4609C13.7141 19.5669 13.8879 19.6169 14.0621 19.6011C14.2363 19.5853 14.3983 19.5048 14.5161 19.3755C14.634 19.2463 14.6992 19.0776 14.6988 18.9027V12.5999L14.6876 12.4739Z" fill="#858585"/>
<path d="M15.1176 9.4499C15.1176 9.17142 15.007 8.90435 14.81 8.70744C14.6131 8.51053 14.3461 8.3999 14.0676 8.3999C13.7891 8.3999 13.522 8.51053 13.3251 8.70744C13.1282 8.90435 13.0176 9.17142 13.0176 9.4499C13.0176 9.72838 13.1282 9.99545 13.3251 10.1924C13.522 10.3893 13.7891 10.4999 14.0676 10.4999C14.3461 10.4999 14.6131 10.3893 14.81 10.1924C15.007 9.99545 15.1176 9.72838 15.1176 9.4499Z" fill="#858585"/>
<path d="M25.1988 13.9999C25.1988 11.0295 24.0188 8.18074 21.9184 6.08033C19.818 3.97992 16.9693 2.79993 13.9988 2.79993C11.0284 2.79993 8.17964 3.97992 6.07923 6.08033C3.97882 8.18074 2.79883 11.0295 2.79883 13.9999C2.79883 16.9704 3.97882 19.8191 6.07923 21.9195C8.17964 24.0199 11.0284 25.1999 13.9988 25.1999C16.9693 25.1999 19.818 24.0199 21.9184 21.9195C24.0188 19.8191 25.1988 16.9704 25.1988 13.9999ZM4.19883 13.9999C4.19883 12.713 4.45231 11.4386 4.94481 10.2496C5.4373 9.06064 6.15917 7.98029 7.06918 7.07028C7.9792 6.16027 9.05954 5.4384 10.2485 4.94591C11.4375 4.45341 12.7119 4.19993 13.9988 4.19993C15.2858 4.19993 16.5601 4.45341 17.7491 4.94591C18.9381 5.4384 20.0185 6.16027 20.9285 7.07028C21.8385 7.98029 22.5604 9.06064 23.0528 10.2496C23.5453 11.4386 23.7988 12.713 23.7988 13.9999C23.7988 16.599 22.7663 19.0917 20.9285 20.9296C19.0906 22.7674 16.5979 23.7999 13.9988 23.7999C11.3997 23.7999 8.90704 22.7674 7.06918 20.9296C5.23132 19.0917 4.19883 16.599 4.19883 13.9999Z" fill="#858585"/>
</svg>
