<?xml version="1.0" encoding="utf-8"?>
<!-- Generator: Adobe Illustrator 16.0.0, SVG Export Plug-In . SVG Version: 6.00 Build 0)  -->
<!DOCTYPE svg PUBLIC "-//W3C//DTD SVG 1.1//EN" "http://www.w3.org/Graphics/SVG/1.1/DTD/svg11.dtd">
<svg version="1.1" id="Layer_1" xmlns="http://www.w3.org/2000/svg" xmlns:xlink="http://www.w3.org/1999/xlink" x="0px" y="0px"
	 width="14px" height="14.504px" viewBox="0 0 22 21.504" enable-background="new 0 0 22 21.504" xml:space="preserve">
<path fill="none" stroke="#328DF6" stroke-width="1.2" stroke-miterlimit="10" d="M4.925,12.793
	c-0.094-0.119-0.179-0.219-0.255-0.324c-0.851-1.192-1.696-2.388-2.388-3.684C1.803,7.89,1.395,6.966,1.14,5.978
	C0.903,5.061,0.963,4.171,1.349,3.309c0.693-1.553,2.419-2.503,4.064-2.275c1.859,0.257,3.191,1.702,3.41,3.372
	c0.094,0.718-0.025,1.405-0.247,2.083C8.23,7.547,7.728,8.532,7.171,9.492c-0.632,1.091-1.347,2.127-2.105,3.133
	C5.027,12.678,4.983,12.726,4.925,12.793z M4.929,6.894c1.07,0.077,2.004-0.917,1.988-1.982c-0.018-1.108-0.912-1.98-2.035-1.967
	c-1.066,0.013-1.952,0.927-1.939,2C2.957,6.042,3.837,6.906,4.929,6.894z"/>
<path fill="none" stroke="#328DF6" stroke-width="1.2" stroke-miterlimit="10" d="M17.007,20.601
	c-0.095-0.12-0.179-0.22-0.255-0.326c-0.852-1.192-1.695-2.388-2.389-3.683c-0.479-0.896-0.887-1.819-1.141-2.807
	c-0.238-0.918-0.177-1.808,0.209-2.669c0.692-1.553,2.42-2.503,4.063-2.275c1.858,0.257,3.19,1.702,3.409,3.373
	c0.095,0.718-0.024,1.404-0.245,2.082c-0.347,1.059-0.849,2.043-1.405,3.004c-0.633,1.091-1.348,2.127-2.105,3.134
	C17.109,20.485,17.064,20.534,17.007,20.601z M17.012,14.702c1.069,0.076,2.004-0.918,1.987-1.982
	c-0.017-1.108-0.912-1.98-2.034-1.967c-1.066,0.013-1.951,0.927-1.938,2C15.039,13.849,15.919,14.711,17.012,14.702z"/>
<path fill="none" stroke="#328DF6" stroke-width="1.2" stroke-miterlimit="10" d="M11.228,1.99c0,0,4.795-0.829,6.322,3.88"/>
<path fill="none" stroke="#328DF6" stroke-width="1.2" stroke-miterlimit="10" d="M5.075,15.691c0,0,1.689,4.591,6.555,3.554"/>
</svg>
