<svg width="16" height="17" viewBox="0 0 16 17" fill="none" xmlns="http://www.w3.org/2000/svg">
<path fill-rule="evenodd" clip-rule="evenodd" d="M11.327 0.75C14.0472 0.75 15.875 2.6595 15.875 5.50125V12.1237C15.875 14.9655 14.0472 16.875 11.327 16.875H4.298C1.57775 16.875 -0.25 14.9655 -0.25 12.1237V5.50125C-0.25 2.6595 1.57775 0.75 4.298 0.75H11.327ZM11.327 1.875H4.298C2.219 1.875 0.875 3.29775 0.875 5.50125V12.1237C0.875 14.3272 2.219 15.75 4.298 15.75H11.327C13.4067 15.75 14.75 14.3272 14.75 12.1237V5.50125C14.75 3.29775 13.4067 1.875 11.327 1.875ZM4.34083 6.90188C4.65132 6.90188 4.90333 7.15388 4.90333 7.46438V12.6094C4.90333 12.9199 4.65132 13.1719 4.34083 13.1719C4.03032 13.1719 3.77833 12.9199 3.77833 12.6094V7.46438C3.77833 7.15388 4.03032 6.90188 4.34083 6.90188ZM7.84107 4.43887C8.15158 4.43887 8.40357 4.69088 8.40357 5.00138V12.6086C8.40357 12.9191 8.15158 13.1711 7.84107 13.1711C7.53058 13.1711 7.27857 12.9191 7.27857 12.6086V5.00138C7.27857 4.69088 7.53058 4.43887 7.84107 4.43887ZM11.2838 9.62063C11.5943 9.62063 11.8463 9.87263 11.8463 10.1831V12.6086C11.8463 12.9191 11.5943 13.1711 11.2838 13.1711C10.9733 13.1711 10.7213 12.9191 10.7213 12.6086V10.1831C10.7213 9.87263 10.9733 9.62063 11.2838 9.62063Z" fill="#328DFF"/>
</svg>
