<svg width="108" height="95" viewBox="0 0 108 95" fill="none" xmlns="http://www.w3.org/2000/svg">
<circle cx="58.3839" cy="47.0676" r="44.7843" fill="#F6F5FF"/>
<path d="M65.3442 36.5018L107.349 48.3561L102.969 95L52.7168 82.3727L65.3442 36.5018Z" fill="#D2D2D2"/>
<path d="M107.089 48.0984L63.0223 36.7595C60.8747 39.8519 55.3428 47.8407 50.3949 55.0563C45.447 62.2719 36.8226 71.1197 33.1289 74.6416L84.6692 89.846C85.6141 89.3306 89.617 85.5681 98.0696 74.6416C106.522 63.7151 107.605 52.3934 107.089 48.0984Z" fill="#F3F3F3" stroke="#CCCCCC" stroke-width="0.818293"/>
<circle cx="66.8878" cy="48.8715" r="2.06161" fill="#C4C4C4"/>
<circle cx="60.7042" cy="59.6949" r="2.06161" fill="#C4C4C4"/>
<circle cx="54.5186" cy="69.4876" r="2.06161" fill="#C4C4C4"/>
<circle cx="25.4663" cy="25.4665" r="18.655" transform="rotate(25.8347 25.4663 25.4665)" fill="#F6F5FF" stroke="#D2D2D2" stroke-width="0.818293"/>
<rect width="10.3081" height="1.54621" transform="matrix(1 0 0 -1 19.541 30.8783)" fill="#C4C4C4"/>
<circle cx="14.6433" cy="22.3741" r="2.83471" fill="#C4C4C4"/>
<circle cx="34.7429" cy="22.3741" r="2.83471" fill="#C4C4C4"/>
</svg>
