<svg width="19" height="21" viewBox="0 0 19 21" fill="none" xmlns="http://www.w3.org/2000/svg">
<path fill-rule="evenodd" clip-rule="evenodd" d="M13.1369 0.477539C16.2809 0.477539 18.3929 2.63054 18.3929 5.83454V15.0305C18.3929 18.2625 16.3459 20.3645 13.1779 20.3845L5.4849 20.3875C2.3409 20.3875 0.227905 18.2345 0.227905 15.0305V5.83454C0.227905 2.60154 2.27491 0.500539 5.4429 0.481539L13.1359 0.477539H13.1369ZM13.1369 1.97754L5.4479 1.98154C3.1199 1.99554 1.72791 3.43554 1.72791 5.83454V15.0305C1.72791 17.4455 3.13291 18.8875 5.4839 18.8875L13.1729 18.8845C15.5009 18.8705 16.8929 17.4285 16.8929 15.0305V5.83454C16.8929 3.41954 15.4889 1.97754 13.1369 1.97754ZM12.944 13.9512C13.358 13.9512 13.694 14.2872 13.694 14.7012C13.694 15.1152 13.358 15.4512 12.944 15.4512H5.724C5.31 15.4512 4.974 15.1152 4.974 14.7012C4.974 14.2872 5.31 13.9512 5.724 13.9512H12.944ZM12.944 9.76474C13.358 9.76474 13.694 10.1007 13.694 10.5147C13.694 10.9287 13.358 11.2647 12.944 11.2647H5.724C5.31 11.2647 4.974 10.9287 4.974 10.5147C4.974 10.1007 5.31 9.76474 5.724 9.76474H12.944ZM8.4787 5.58794C8.8927 5.58794 9.2287 5.92394 9.2287 6.33794C9.2287 6.75194 8.8927 7.08794 8.4787 7.08794H5.7237C5.3097 7.08794 4.9737 6.75194 4.9737 6.33794C4.9737 5.92394 5.3097 5.58794 5.7237 5.58794H8.4787Z" fill="#fff"/>
</svg>
