<svg width="17" height="17" viewBox="0 0 17 17" fill="none" xmlns="http://www.w3.org/2000/svg">
<path fill-rule="evenodd" clip-rule="evenodd" d="M8.65909 2.12801C9.13642 2.12801 9.60042 2.32401 9.93309 2.66468C10.2651 3.00735 10.4484 3.47735 10.4344 3.95401C10.4358 4.06135 10.4711 4.18535 10.5351 4.29401C10.6411 4.47401 10.8084 4.60068 11.0071 4.65268C11.2058 4.70201 11.4138 4.67535 11.5904 4.57068C12.4438 4.08335 13.5298 4.37535 14.0171 5.22201L14.4324 5.94135C14.4431 5.96068 14.4524 5.97935 14.4604 5.99868C14.9018 6.83268 14.6071 7.88268 13.7871 8.36201C13.6678 8.43068 13.5711 8.52668 13.5044 8.64268C13.4011 8.82201 13.3724 9.03535 13.4244 9.23135C13.4778 9.43135 13.6051 9.59735 13.7844 9.70001C14.1891 9.93268 14.4911 10.3247 14.6118 10.7773C14.7324 11.2293 14.6664 11.72 14.4311 12.1247L13.9884 12.862C13.5011 13.6993 12.4151 13.9893 11.5704 13.5013C11.4578 13.4367 11.3278 13.4013 11.1984 13.398H11.1944C11.0018 13.398 10.8038 13.48 10.6598 13.6233C10.5138 13.7693 10.4338 13.964 10.4351 14.1707C10.4304 15.15 9.63376 15.942 8.65909 15.942H7.82376C6.84442 15.942 6.04776 15.146 6.04776 14.1667C6.04642 14.046 6.01176 13.9207 5.94709 13.812C5.84242 13.6293 5.67309 13.4987 5.47776 13.4467C5.28376 13.3947 5.07109 13.4233 4.89642 13.5247C4.47776 13.758 3.98509 13.8147 3.53442 13.688C3.08442 13.5607 2.69576 13.2513 2.46776 12.8413L2.05109 12.1233C1.56376 11.278 1.85376 10.1947 2.69776 9.70668C2.93709 9.56868 3.08576 9.31135 3.08576 9.03535C3.08576 8.75935 2.93709 8.50135 2.69776 8.36335C1.85309 7.87268 1.56376 6.78668 2.05042 5.94135L2.50242 5.19935C2.98309 4.36335 4.06976 4.06868 4.91709 4.55535C5.03242 4.62401 5.15776 4.65868 5.28509 4.66001C5.70042 4.66001 6.04776 4.31735 6.05442 3.89601C6.05176 3.43135 6.23509 2.98535 6.56909 2.64868C6.90442 2.31268 7.34976 2.12801 7.82376 2.12801H8.65909ZM8.65909 3.12801H7.82376C7.61709 3.12801 7.42376 3.20868 7.27776 3.35401C7.13242 3.50001 7.05309 3.69401 7.05442 3.90068C7.04042 4.87535 6.24376 5.66001 5.27909 5.66001C4.96976 5.65668 4.67176 5.57335 4.41309 5.41868C4.04976 5.21201 3.57509 5.33935 3.36242 5.70935L2.91109 6.45135C2.70442 6.81001 2.83109 7.28401 3.19909 7.49801C3.74509 7.81401 4.08576 8.40335 4.08576 9.03535C4.08576 9.66735 3.74509 10.256 3.19776 10.5727C2.83176 10.7847 2.70509 11.256 2.91709 11.6227L3.33776 12.348C3.44176 12.5353 3.61176 12.6707 3.80842 12.726C4.00442 12.7807 4.22042 12.7573 4.40042 12.6573C4.66509 12.502 4.97309 12.4213 5.28242 12.4213C5.43509 12.4213 5.58776 12.4407 5.73709 12.4807C6.18776 12.602 6.57909 12.9033 6.81109 13.308C6.96176 13.562 7.04509 13.8587 7.04776 14.1613C7.04776 14.5947 7.39576 14.942 7.82376 14.942H8.65909C9.08509 14.942 9.43309 14.5967 9.43509 14.1707C9.43242 13.7 9.61642 13.2527 9.95309 12.916C10.2851 12.584 10.7491 12.3847 11.2131 12.398C11.5171 12.4053 11.8098 12.4873 12.0678 12.634C12.4391 12.8467 12.9131 12.72 13.1278 12.3533L13.5704 11.6153C13.6691 11.4453 13.6978 11.232 13.6451 11.0353C13.5931 10.8387 13.4624 10.668 13.2864 10.5673C12.8744 10.33 12.5804 9.94735 12.4584 9.48868C12.3378 9.03868 12.4038 8.54735 12.6391 8.14268C12.7924 7.87601 13.0171 7.65135 13.2864 7.49668C13.6478 7.28535 13.7744 6.81268 13.5644 6.44468C13.5558 6.43001 13.5478 6.41468 13.5411 6.39868L13.1504 5.72135C12.9378 5.35135 12.4644 5.22401 12.0931 5.43535C11.6918 5.67268 11.2144 5.74068 10.7558 5.62001C10.2978 5.50135 9.91376 5.21135 9.67442 4.80201C9.52109 4.54601 9.43776 4.24801 9.43509 3.94468C9.44109 3.71668 9.36109 3.51201 9.21576 3.36201C9.07109 3.21268 8.86776 3.12801 8.65909 3.12801ZM8.24436 6.77741C9.48902 6.77741 10.5017 7.79075 10.5017 9.03541C10.5017 10.2801 9.48902 11.2921 8.24436 11.2921C6.99969 11.2921 5.98702 10.2801 5.98702 9.03541C5.98702 7.79075 6.99969 6.77741 8.24436 6.77741ZM8.24436 7.77741C7.55102 7.77741 6.98702 8.34208 6.98702 9.03541C6.98702 9.72875 7.55102 10.2921 8.24436 10.2921C8.93769 10.2921 9.50169 9.72875 9.50169 9.03541C9.50169 8.34208 8.93769 7.77741 8.24436 7.77741Z" fill="#7C8AB5"/>
</svg>
