<svg width="356" height="220" viewBox="0 0 356 220" fill="none" xmlns="http://www.w3.org/2000/svg">
<path d="M283.057 67.515H41.0296V68.9106H283.057V67.515Z" fill="#D1CFD0"/>
<path d="M57.3245 61.7311C58.5191 61.7311 59.4875 60.7632 59.4875 59.5692C59.4875 58.3752 58.5191 57.4072 57.3245 57.4072C56.1299 57.4072 55.1615 58.3752 55.1615 59.5692C55.1615 60.7632 56.1299 61.7311 57.3245 61.7311Z" fill="#D62800"/>
<path d="M67.1144 61.7311C68.3089 61.7311 69.2773 60.7632 69.2773 59.5692C69.2773 58.3752 68.3089 57.4072 67.1144 57.4072C65.9198 57.4072 64.9514 58.3752 64.9514 59.5692C64.9514 60.7632 65.9198 61.7311 67.1144 61.7311Z" fill="#F97F23"/>
<path d="M76.5491 61.7311C77.7437 61.7311 78.7121 60.7632 78.7121 59.5692C78.7121 58.3752 77.7437 57.4072 76.5491 57.4072C75.3546 57.4072 74.3862 58.3752 74.3862 59.5692C74.3862 60.7632 75.3546 61.7311 76.5491 61.7311Z" fill="#0F6D66"/>
<path d="M307.237 219.658H49.5765C44.4758 219.658 40.3274 215.512 40.3274 210.414V181.026H66.2589C69.4388 181.026 72.0214 178.444 72.0214 175.266V121.354C72.0214 118.176 69.4388 115.594 66.2589 115.594H40.3274V58.3994C40.3274 53.3011 44.4758 49.1547 49.5765 49.1547H307.237C312.338 49.1547 316.486 53.3011 316.486 58.3994V62.6669H289.732C286.56 62.6669 283.969 65.2483 283.969 68.4267V122.338C283.969 125.517 286.552 128.098 289.732 128.098H316.486V210.414C316.486 215.512 312.338 219.658 307.237 219.658ZM41.7236 182.413V210.414C41.7236 214.746 45.2506 218.263 49.5765 218.263H307.237C311.571 218.263 315.09 214.738 315.09 210.414V129.486H289.732C285.785 129.486 282.581 126.275 282.581 122.338V68.4267C282.581 64.4819 285.793 61.2793 289.732 61.2793H315.09V58.3994C315.09 54.0675 311.563 50.5503 307.237 50.5503H49.5765C45.2425 50.5503 41.7236 54.0755 41.7236 58.3994V114.207H66.267C70.2136 114.207 73.4177 117.417 73.4177 121.354V175.266C73.4177 179.211 70.2055 182.413 66.267 182.413H41.7236Z" fill="#D1CFD0"/>
<path d="M348.447 129.486H289.732C285.785 129.486 282.581 126.275 282.581 122.338V68.4265C282.581 64.4818 285.793 61.2792 289.732 61.2792H348.447C352.394 61.2792 355.598 64.4898 355.598 68.4265V122.338C355.598 126.283 352.386 129.486 348.447 129.486ZM289.732 62.6667C286.56 62.6667 283.969 65.2481 283.969 68.4265V122.338C283.969 125.517 286.552 128.098 289.732 128.098H348.447C351.627 128.098 354.21 125.517 354.21 122.338V68.4265C354.21 65.2481 351.627 62.6667 348.447 62.6667H289.732Z" fill="#D1CFD0"/>
<path d="M66.2589 182.413H7.55176C3.60513 182.413 0.401016 179.202 0.401016 175.266V121.354C0.401016 117.409 3.6132 114.207 7.55176 114.207H66.2669C70.2136 114.207 73.4177 117.417 73.4177 121.354V175.266C73.4177 179.211 70.2055 182.413 66.2589 182.413ZM7.55176 115.594C4.37186 115.594 1.7892 118.176 1.7892 121.354V175.266C1.7892 178.444 4.37186 181.026 7.55176 181.026H66.2669C69.4468 181.026 72.0295 178.444 72.0295 175.266V121.354C72.0295 118.176 69.4468 115.594 66.2669 115.594H7.55176Z" fill="#D1CFD0"/>
<path d="M50.6418 167.158H24.5004C20.812 167.158 17.8258 164.174 17.8258 160.487V136.141C17.8258 132.454 20.812 129.469 24.5004 129.469H50.6418C54.3301 129.469 57.3163 132.454 57.3163 136.141V160.487C57.3163 164.166 54.3301 167.158 50.6418 167.158Z" fill="#3F8CFC"/>
<path d="M332.16 111.666H306.019C302.33 111.666 299.344 108.681 299.344 104.994V84.2299C299.344 80.5433 302.33 77.5585 306.019 77.5585H332.16C335.848 77.5585 338.835 80.5433 338.835 84.2299V104.994C338.835 108.681 335.848 111.666 332.16 111.666Z" fill="#F97F23"/>
<path d="M136.16 33.3192H114.934C111.246 33.3192 108.259 30.3344 108.259 26.6478V6.69813C108.259 3.01152 111.246 0.0267334 114.934 0.0267334H136.16C139.849 0.0267334 142.835 3.01152 142.835 6.69813V26.6397C142.835 30.3263 139.849 33.3192 136.16 33.3192Z" fill="#54D6E5"/>
<path d="M274.349 16.0234H219.548C218.466 16.0234 217.595 16.8947 217.595 17.9756V30.8344C217.595 31.9154 218.466 32.7866 219.548 32.7866H224.511L223.704 37.1267L228.539 32.7866H274.349C275.43 32.7866 276.302 31.9154 276.302 30.8344V17.9756C276.294 16.8947 275.422 16.0234 274.349 16.0234Z" fill="#F5AB9D"/>
<path d="M326.002 101.566H312.169C310.829 101.566 309.739 100.477 309.739 99.1375V88.7634C309.739 87.4242 310.829 86.3352 312.169 86.3352H326.002C327.342 86.3352 328.431 87.4242 328.431 88.7634V99.1375C328.431 100.477 327.342 101.566 326.002 101.566ZM312.169 87.7389C311.596 87.7389 311.136 88.1987 311.136 88.7714V99.1456C311.136 99.7183 311.596 100.178 312.169 100.178H326.002C326.575 100.178 327.035 99.7183 327.035 99.1456V88.7714C327.035 88.1987 326.575 87.7389 326.002 87.7389H312.169Z" fill="white"/>
<path d="M319.085 95.5156C318.948 95.5156 318.803 95.4752 318.69 95.3865L310.046 89.3362C309.731 89.1184 309.65 88.6828 309.876 88.3682C310.094 88.0536 310.53 87.9729 310.845 88.1988L319.093 93.9667L327.342 88.1988C327.657 87.981 328.092 88.0536 328.31 88.3682C328.528 88.6828 328.456 89.1184 328.141 89.3362L319.497 95.3865C319.368 95.4752 319.223 95.5156 319.085 95.5156Z" fill="white"/>
<path d="M131.076 24.3084C131.019 24.3084 130.954 24.3084 130.898 24.3003C128.646 24.0583 126.459 23.2758 124.57 22.0496C122.819 20.9364 121.302 19.4198 120.18 17.6612C118.953 15.7655 118.178 13.5712 117.936 11.3286C117.888 10.7639 118.057 10.2234 118.412 9.79588C118.768 9.36833 119.276 9.10212 119.825 9.05372C119.881 9.04565 119.946 9.04565 120.002 9.04565H122.101C122.109 9.04565 122.117 9.04565 122.117 9.04565C123.15 9.04565 124.038 9.81202 124.183 10.8446C124.264 11.4658 124.417 12.0708 124.635 12.6516C124.917 13.4099 124.74 14.2731 124.167 14.8539L123.666 15.354C124.482 16.6367 125.579 17.7257 126.863 18.5486L127.363 18.0484C127.944 17.4757 128.808 17.2901 129.574 17.5725C130.155 17.7903 130.761 17.9435 131.374 18.0242C132.431 18.1694 133.198 19.081 133.174 20.1378V22.219C133.182 23.3645 132.246 24.3084 131.092 24.3165C131.084 24.3084 131.084 24.3084 131.076 24.3084ZM122.117 10.4332H120.01C119.567 10.4735 119.284 10.8123 119.316 11.1915C119.534 13.2163 120.236 15.1927 121.342 16.911C122.351 18.5002 123.723 19.8715 125.313 20.8799C127.024 21.9932 129.001 22.695 131.027 22.9128C131.463 22.9128 131.778 22.5982 131.778 22.219V20.1297C131.778 20.1216 131.778 20.1216 131.778 20.1136C131.786 19.7586 131.527 19.4601 131.18 19.4037C130.47 19.3069 129.76 19.1294 129.074 18.8793C128.816 18.7825 128.533 18.847 128.34 19.0326L127.46 19.9119C127.242 20.1297 126.895 20.1781 126.62 20.0248C124.772 18.9761 123.231 17.4353 122.181 15.588C122.028 15.3137 122.077 14.9749 122.294 14.749L123.182 13.8616C123.368 13.668 123.432 13.3857 123.336 13.1275C123.085 12.4499 122.908 11.74 122.811 11.014C122.763 10.6913 122.464 10.4332 122.117 10.4332Z" fill="white"/>
<path d="M265.947 22.2029H225.286C224.899 22.2029 224.592 21.8883 224.592 21.5092C224.592 21.13 224.907 20.8154 225.286 20.8154H265.947C266.334 20.8154 266.641 21.13 266.641 21.5092C266.641 21.8883 266.326 22.2029 265.947 22.2029Z" fill="white"/>
<path d="M248.223 27.2689H225.286C224.899 27.2689 224.592 26.9543 224.592 26.5751C224.592 26.196 224.907 25.8813 225.286 25.8813H248.223C248.611 25.8813 248.917 26.196 248.917 26.5751C248.917 26.9543 248.611 27.2689 248.223 27.2689Z" fill="white"/>
<path d="M47.809 151.863C48.1964 150.75 48.4143 149.556 48.4143 148.314C48.4143 147.072 48.2045 145.878 47.809 144.764C47.801 144.732 47.7848 144.7 47.7767 144.668C46.2756 140.505 42.2805 137.52 37.6075 137.52C32.9345 137.52 28.9395 140.505 27.4383 144.668C27.4222 144.7 27.4141 144.732 27.406 144.764C27.0186 145.878 26.8007 147.072 26.8007 148.314C26.8007 149.556 27.0105 150.75 27.406 151.863C27.4141 151.896 27.4302 151.928 27.4383 151.96C28.9395 156.123 32.9345 159.108 37.6075 159.108C42.2805 159.108 46.2756 156.123 47.7767 151.96C47.7848 151.928 47.801 151.896 47.809 151.863ZM37.5994 157.559C37.1878 157.559 36.526 156.816 35.9691 155.155C35.7028 154.356 35.4849 153.428 35.3316 152.428H39.8673C39.714 153.428 39.4961 154.356 39.2298 155.155C38.6809 156.816 38.0111 157.559 37.5994 157.559ZM35.1459 150.879C35.0733 150.056 35.0329 149.193 35.0329 148.314C35.0329 147.435 35.0733 146.571 35.1459 145.749H40.061C40.1337 146.571 40.174 147.435 40.174 148.314C40.174 149.193 40.1337 150.056 40.061 150.879H35.1459ZM28.3422 148.306C28.3422 147.418 28.4714 146.555 28.7054 145.741H33.5883C33.5156 146.579 33.4753 147.443 33.4753 148.306C33.4753 149.169 33.5156 150.032 33.5883 150.871H28.7054C28.4714 150.064 28.3422 149.201 28.3422 148.306ZM37.5994 139.053C38.0111 139.053 38.6729 139.795 39.2298 141.457C39.4961 142.256 39.714 143.183 39.8673 144.184H35.3316C35.4849 143.183 35.7028 142.256 35.9691 141.457C36.526 139.803 37.1878 139.053 37.5994 139.053ZM41.6106 145.741H46.4935C46.7275 146.555 46.8567 147.418 46.8567 148.306C46.8567 149.193 46.7275 150.056 46.4935 150.871H41.6106C41.6833 150.032 41.7236 149.169 41.7236 148.306C41.7236 147.443 41.6833 146.579 41.6106 145.741ZM45.8882 144.192H41.4331C41.1587 142.296 40.6825 140.586 40.0207 139.376C42.5953 140.078 44.726 141.852 45.8882 144.192ZM35.1863 139.376C34.5245 140.586 34.0483 142.288 33.7739 144.192H29.3188C30.481 141.852 32.6117 140.078 35.1863 139.376ZM29.3107 152.428H33.7658C34.0402 154.324 34.5164 156.034 35.1782 157.244C32.6117 156.542 30.481 154.767 29.3107 152.428ZM40.0207 157.236C40.6825 156.026 41.1587 154.324 41.4331 152.42H45.8882C44.726 154.767 42.5953 156.542 40.0207 157.236Z" fill="white"/>
<path d="M141.899 218.65C141.899 218.65 144.037 174.588 138.799 160.858C133.561 147.136 100.076 160.108 100.076 160.108C100.076 160.108 92.8362 186.358 96.3631 218.65H115.507L118.865 183.906H120.664L123.651 218.65H141.899Z" fill="#252525"/>
<path d="M97.2588 144.676C97.2588 144.676 96.2903 148.693 95.12 153.501C93.7722 159.051 92.1499 165.658 91.4236 168.344C90.0677 173.362 87.485 192.634 87.485 192.634C90.6084 196.708 90.6084 200.508 90.2452 201.597C89.874 202.686 88.7037 201.056 88.7037 199.967C88.7037 198.878 87.3478 196.579 86.5811 197.652C85.8144 198.741 85.8547 201.992 87.6222 203.767C89.3897 205.525 89.5269 207.832 89.5269 207.832C77.5821 203.767 83.3124 192.771 83.3124 192.771C80.6248 187.213 84.7732 158.438 85.7256 152.469C86.1372 149.863 86.6053 146.047 86.9927 142.578C87.5092 138.069 87.8966 134.124 87.8966 134.124L97.2588 144.676Z" fill="#F4A79C"/>
<path d="M97.2589 144.676C97.2589 144.676 96.2904 148.693 95.1201 153.501L86.9847 142.578C87.5013 138.069 87.8887 134.124 87.8887 134.124L97.2589 144.676Z" fill="#E58177"/>
<path d="M115.402 56.4069C101.383 58.7867 101.415 69.5239 101.649 73.2508C101.883 76.9778 75.4273 93.9588 106.161 104.236H127.08C127.08 104.236 149.041 100.654 139.219 80.3256C137.137 77.3488 132.165 70.8468 131.479 68.5962C130.793 66.3455 126.959 54.4467 115.402 56.4069Z" fill="#092547"/>
<path d="M141.035 113.11L137.936 161.173L100.068 160.1L86.7749 135.165C86.7749 135.165 85.758 118.329 88.3971 114.312C89.6965 112.319 95.0636 109.463 100.156 107.084C105.362 104.647 110.293 102.703 110.293 102.703L109.962 92.1113C106.129 90.2236 105.346 84.3751 105.346 84.3751C99.9465 83.278 99.1555 79.1477 100.729 77.1551C101.754 75.8563 104.474 78.1958 104.741 78.4055C104.724 78.3813 104.708 78.3652 104.676 78.3329C103.99 77.6472 104.046 76.179 104.571 75.0335C106.879 72.4682 107.557 66.1356 107.557 66.1356C111.27 70.6289 126.669 71.1049 126.669 71.1049C126.669 73.5169 129.494 75.5498 129.494 75.5498C129.494 75.5498 129.3 77.2519 129.155 78.1474C129.381 77.7117 129.849 77.2519 130.075 76.9131C130.39 76.4372 134.732 75.34 133.214 79.8898C131.697 84.4396 128.453 84.0282 128.453 84.0282C127.194 88.7393 123.215 91.7241 123.215 91.7241L123.053 101.727C127.597 103.413 131.156 105.309 133.868 107.076C138.912 110.335 141.035 113.11 141.035 113.11Z" fill="#F4A79C"/>
<path d="M141.035 113.11L137.936 161.173L100.068 160.1L86.7749 135.165C86.7749 135.165 85.758 118.329 88.3971 114.312C89.6965 112.319 95.0636 109.464 100.156 107.084C100.156 107.084 114.773 117.087 133.876 107.084C138.912 110.335 141.035 113.11 141.035 113.11Z" fill="#C537E2"/>
<path d="M116.702 93.5232C114.547 93.491 112.206 93.1521 110.245 92.1599C110.374 92.2244 110.172 92.0389 110.245 92.1599C110.576 92.7569 111.528 93.7491 111.98 94.2654C115.467 98.2505 121.286 96.4838 122.981 91.7888C122.892 92.0228 121.778 92.3696 121.536 92.4745C120.979 92.7165 120.414 92.9263 119.833 93.1037C118.8 93.4103 117.751 93.5474 116.702 93.5232Z" fill="#E58177"/>
<path d="M107.404 75.1383C107.307 75.1383 107.218 75.1141 107.129 75.0577C106.887 74.9044 106.807 74.5898 106.96 74.3478C107.033 74.2268 108.792 71.4517 113.869 72.0568C114.151 72.089 114.361 72.3472 114.329 72.6376C114.296 72.9199 114.038 73.1297 113.747 73.0974C109.373 72.573 107.912 74.7995 107.856 74.8963C107.751 75.0496 107.581 75.1383 107.404 75.1383Z" fill="#092547"/>
<path d="M125.16 74.5978C125.006 74.5978 124.845 74.5252 124.748 74.3962C123.134 72.2988 118.953 73.0006 118.913 73.0087C118.63 73.0571 118.356 72.8715 118.308 72.5811C118.259 72.2988 118.445 72.0245 118.727 71.9761C118.921 71.9438 123.57 71.1533 125.571 73.7508C125.749 73.9767 125.708 74.3074 125.474 74.4849C125.386 74.5575 125.273 74.5978 125.16 74.5978Z" fill="#092547"/>
<path d="M116.758 82.4229C116.217 82.4229 115.741 82.2535 115.434 81.9147C115.015 81.4549 114.999 80.7773 115.386 80.0432C116.153 78.5992 115.677 76.3808 115.668 76.3646C115.628 76.1791 115.741 75.9935 115.935 75.9532C116.12 75.9129 116.306 76.0258 116.346 76.2194C116.371 76.3162 116.887 78.704 115.999 80.382C115.83 80.7046 115.677 81.1564 115.951 81.4549C116.225 81.7453 116.911 81.8663 117.702 81.5275C117.88 81.4468 118.082 81.5355 118.162 81.713C118.235 81.8905 118.154 82.0922 117.977 82.1728C117.557 82.3342 117.137 82.4229 116.758 82.4229Z" fill="#E58177"/>
<path d="M111.689 83.7621C113.247 84.1332 117.113 84.8108 121.019 83.5846C121.044 83.5766 121.06 83.5927 121.052 83.6169C120.842 84.0202 119.785 87.2228 116.516 87.2228C114.014 87.2228 112.037 85.1658 111.375 84.23C111.213 84.0041 111.423 83.6976 111.689 83.7621Z" fill="white"/>
<path d="M129.704 81.0596C129.663 81.0596 129.615 81.0516 129.575 81.0354C129.397 80.9628 129.308 80.7611 129.381 80.5837C129.494 80.3013 130.551 77.8248 132.133 77.7764C132.311 77.7764 132.488 77.9216 132.488 78.1152C132.496 78.3088 132.343 78.4701 132.149 78.4701C131.189 78.5024 130.285 80.1884 130.018 80.8418C129.97 80.979 129.841 81.0596 129.704 81.0596Z" fill="#E58177"/>
<path d="M104.515 81.0596C104.385 81.0596 104.256 80.987 104.2 80.858C103.433 79.1962 101.77 79.5027 101.698 79.5188C101.512 79.5592 101.327 79.4382 101.286 79.2446C101.246 79.059 101.367 78.8735 101.561 78.8332C102.343 78.6718 104.038 78.8251 104.837 80.5595C104.918 80.737 104.845 80.9386 104.668 81.0193C104.611 81.0516 104.563 81.0596 104.515 81.0596Z" fill="#E58177"/>
<path d="M111.286 78.4701C111.972 78.4701 112.529 77.9139 112.529 77.2278C112.529 76.5417 111.972 75.9855 111.286 75.9855C110.599 75.9855 110.043 76.5417 110.043 77.2278C110.043 77.9139 110.599 78.4701 111.286 78.4701Z" fill="#092547"/>
<path d="M121.738 78.4701C122.424 78.4701 122.981 77.9139 122.981 77.2278C122.981 76.5417 122.424 75.9855 121.738 75.9855C121.051 75.9855 120.495 76.5417 120.495 77.2278C120.495 77.9139 121.051 78.4701 121.738 78.4701Z" fill="#092547"/>
<path d="M254.002 157.817L254.89 159.64C254.89 159.64 257.933 168.853 258.699 178.614C259.458 188.383 259.337 218.957 259.337 218.957H240.048L237.764 186.221H235.1L232.179 218.957H223.551L228.692 159.64H254.89" fill="#886D69"/>
<path d="M291.798 119.297L283.493 134.762C283.001 135.673 283.356 136.811 284.284 137.287L289.901 140.142C290.789 140.594 291.879 140.263 292.363 139.384L300.91 123.831C301.426 122.895 301.047 121.725 300.078 121.274L294.219 118.499C293.331 118.079 292.266 118.426 291.798 119.297Z" fill="#0074FF"/>
<path d="M290.749 141.046C290.361 141.046 289.958 140.957 289.586 140.764L283.969 137.908C283.356 137.593 282.904 137.061 282.694 136.399C282.484 135.738 282.557 135.044 282.88 134.439L291.185 118.975C291.83 117.781 293.291 117.297 294.518 117.878L300.377 120.653C301.007 120.951 301.499 121.508 301.709 122.169C301.919 122.831 301.854 123.565 301.515 124.178L292.968 139.731C292.508 140.57 291.645 141.046 290.749 141.046ZM293.428 119.015C293.017 119.015 292.621 119.233 292.411 119.62L284.106 135.084C283.961 135.359 283.929 135.673 284.026 135.972C284.123 136.27 284.324 136.512 284.607 136.658L290.224 139.513C290.781 139.796 291.459 139.586 291.758 139.037L300.305 123.484C300.458 123.202 300.49 122.879 300.393 122.573C300.296 122.266 300.079 122.024 299.788 121.887L293.929 119.112C293.767 119.055 293.598 119.015 293.428 119.015Z" fill="black"/>
<path d="M290.103 140.997C290.103 140.997 287.851 143.635 284.138 143.232C284.138 143.232 277.101 157.631 275.075 160.939C273.057 164.254 269.659 168.941 266.262 168.377C262.864 167.804 261.242 163.109 259.87 157.817C258.489 152.525 255.826 139.585 255.826 139.585C255.826 139.585 255.987 134.487 258.417 134.084C260.838 133.68 268.287 134.326 268.287 134.326L269.942 143.748L270.717 148.145C270.717 148.145 279.377 139.416 279.377 138.279C279.377 137.141 279.538 126.065 290.216 130.115C290.216 130.115 291.265 131.486 289.57 131.89C287.867 132.293 286.1 129.728 284.235 132.954C283.259 134.657 282.847 135.729 282.645 136.23C282.549 136.472 283.097 137.004 283.388 137.173L290.103 140.997Z" fill="#B7824E"/>
<path d="M270.709 148.153C270.709 148.153 265.761 155.897 265.761 154.276C265.761 153.154 268.328 147.306 269.934 143.756L270.709 148.153Z" fill="#A06B3C"/>
<path d="M249.127 65.8291C254.178 65.8291 258.272 61.737 258.272 56.6892C258.272 51.6414 254.178 47.5493 249.127 47.5493C244.077 47.5493 239.983 51.6414 239.983 56.6892C239.983 61.737 244.077 65.8291 249.127 65.8291Z" fill="#242B29"/>
<path d="M237.473 88.9654C245.666 88.9654 252.307 82.0707 252.307 73.5655C252.307 65.0604 245.666 58.1656 237.473 58.1656C229.28 58.1656 222.639 65.0604 222.639 73.5655C222.639 82.0707 229.28 88.9654 237.473 88.9654Z" fill="#242B29"/>
<path d="M271.201 135.367L258.046 137.157C258.046 137.157 256.948 143.692 256.577 145.886C256.214 148.088 254.607 158.172 254.898 159.64H228.7L211.655 115.901C211.655 115.901 218.474 107.164 228.902 103.332C228.999 103.292 229.096 103.26 229.192 103.22C229.192 103.22 231.355 102.953 231.485 101.404C231.622 99.8556 231.283 93.2488 231.283 93.2488C231.283 93.2488 226.965 90.2156 225.956 85.6981C225.956 85.6981 222.316 86.0288 221.097 81.5839C219.895 77.139 224.051 78.1554 224.988 79.9866C224.955 79.7527 224.681 77.8812 225.343 77.0745C226.053 76.2194 228.523 72.7344 228.523 71.8713C228.523 71.8713 240.984 71.4195 245.681 67.9426C245.625 68.104 244.592 70.6612 243.575 70.9677C243.575 70.9677 245.391 71.1694 246.601 68.951C246.601 68.951 246.755 72.5811 247.917 73.9687C249.071 75.3643 250.338 77.7279 249.329 80.0028C249.329 80.0028 250.386 80.4061 250.992 78.2361C250.992 78.2361 253.163 77.0745 253.768 79.3413C254.373 81.6162 251.597 85.1495 248.813 85.7545C248.813 85.7545 247.804 91.3611 243.809 93.6279C243.809 93.6279 243.203 101.453 244.212 102.114C244.438 102.26 245.407 102.695 246.835 103.405C251.791 105.849 262.25 111.561 266.262 119.757C271.435 130.317 271.201 135.367 271.201 135.367Z" fill="#B7824E"/>
<path d="M271.201 135.367L258.046 137.158C258.046 137.158 256.948 143.692 256.577 145.886C256.214 148.088 254.607 158.172 254.898 159.64H228.7L211.655 115.901C211.655 115.901 218.474 107.164 228.902 103.333C229.854 104.357 231.533 106.003 232.873 106.527C234.882 107.326 236.916 108.221 237.538 110.803C237.538 110.803 238.151 107.423 241.428 106.632C243.93 106.027 245.915 104.551 246.843 103.405C251.799 105.85 262.259 111.561 266.27 119.757C271.435 130.317 271.201 135.367 271.201 135.367Z" fill="#5AD3E5"/>
<path d="M237.473 95.1365C235.318 95.0235 233.196 94.2975 231.275 93.2407C231.396 93.3053 231.549 93.8699 231.614 93.991C231.92 94.604 232.3 95.1849 232.727 95.7092C236.069 99.8153 241.944 98.2503 243.809 93.6199C243.712 93.8538 242.59 94.1604 242.34 94.2572C241.775 94.475 241.202 94.6766 240.613 94.8219C239.58 95.0961 238.522 95.1929 237.473 95.1365Z" fill="#A06B3C"/>
<path d="M237.861 84.3991C237.481 84.3991 237.094 84.383 236.755 84.3346C236.561 84.3104 236.392 84.1974 236.279 84.02C235.714 83.1729 236.392 80.3818 236.537 79.8251C236.585 79.6396 236.779 79.5267 236.965 79.5751C237.15 79.6235 237.263 79.809 237.215 80.0026C236.779 81.6967 236.618 83.4311 236.876 83.6489C237.756 83.7699 239.192 83.6408 239.208 83.6408C239.386 83.6247 239.572 83.7618 239.588 83.9554C239.604 84.149 239.467 84.3184 239.273 84.3346C239.224 84.3426 238.579 84.3991 237.861 84.3991Z" fill="#844618"/>
<path d="M233.365 85.6174H241.694C241.694 85.6174 240.064 88.7958 237.392 88.5941C234.721 88.3925 233.365 85.6174 233.365 85.6174Z" fill="white"/>
<path d="M228.103 75.7921C227.974 75.7921 227.853 75.7598 227.732 75.6872C227.409 75.4855 227.304 75.058 227.506 74.7353C227.53 74.695 229.854 71.0406 234.761 73.6059C235.1 73.7834 235.229 74.2029 235.052 74.5417C234.874 74.8805 234.455 75.0176 234.116 74.8321C230.387 72.8799 228.757 75.3564 228.684 75.4613C228.563 75.6791 228.337 75.7921 228.103 75.7921Z" fill="#242B29"/>
<path d="M246.529 75.324C246.319 75.324 246.109 75.2272 245.972 75.0417C244.277 72.7829 240.516 74.0333 240.475 74.0414C240.112 74.1624 239.717 73.9688 239.596 73.6058C239.475 73.2428 239.668 72.8475 240.032 72.7184C240.225 72.6539 244.785 71.1292 247.093 74.1947C247.328 74.5012 247.263 74.9368 246.956 75.1708C246.819 75.2756 246.674 75.324 246.529 75.324Z" fill="#242B29"/>
<path d="M231.678 79.914C232.329 79.914 232.857 79.3867 232.857 78.7363C232.857 78.0858 232.329 77.5585 231.678 77.5585C231.028 77.5585 230.5 78.0858 230.5 78.7363C230.5 79.3867 231.028 79.914 231.678 79.914Z" fill="#242B29"/>
<path d="M242.606 79.914C243.257 79.914 243.784 79.3867 243.784 78.7363C243.784 78.0858 243.257 77.5585 242.606 77.5585C241.955 77.5585 241.428 78.0858 241.428 78.7363C241.428 79.3867 241.955 79.914 242.606 79.914Z" fill="#242B29"/>
<path d="M224.729 83.27C224.576 83.27 224.431 83.1651 224.39 83.0118C223.866 80.979 222.502 81.1726 222.486 81.1807C222.292 81.2129 222.114 81.0838 222.09 80.8902C222.058 80.6966 222.187 80.5192 222.381 80.495C222.405 80.4869 224.39 80.2045 225.068 82.8424C225.117 83.028 225.004 83.2216 224.818 83.27C224.786 83.2619 224.762 83.27 224.729 83.27Z" fill="#844618"/>
<path d="M249.491 83.2701C249.434 83.2701 249.378 83.2539 249.321 83.2297C249.152 83.1329 249.095 82.9232 249.184 82.7538C249.361 82.4392 250.927 79.7125 252.485 80.1643C252.67 80.2207 252.775 80.4063 252.727 80.5918C252.678 80.7774 252.485 80.8822 252.299 80.8338C251.524 80.608 250.354 82.1004 249.797 83.1007C249.733 83.2055 249.62 83.2701 249.491 83.2701Z" fill="#844618"/>
<path d="M230.984 84.706C228.079 84.706 225.714 82.3424 225.714 79.4383C225.714 76.5342 228.079 74.1705 230.984 74.1705C233.89 74.1705 236.255 76.5342 236.255 79.4383C236.255 82.3424 233.89 84.706 230.984 84.706ZM230.984 74.8643C228.458 74.8643 226.408 76.9133 226.408 79.4383C226.408 81.9632 228.458 84.0123 230.984 84.0123C233.51 84.0123 235.56 81.9632 235.56 79.4383C235.56 76.9133 233.51 74.8643 230.984 74.8643Z" fill="white"/>
<path d="M243.389 84.4395C240.483 84.4395 238.119 82.0759 238.119 79.1718C238.119 76.2677 240.483 73.9041 243.389 73.9041C246.294 73.9041 248.659 76.2677 248.659 79.1718C248.659 82.0759 246.294 84.4395 243.389 84.4395ZM243.389 74.5897C240.863 74.5897 238.813 76.6388 238.813 79.1637C238.813 81.6887 240.863 83.7377 243.389 83.7377C245.915 83.7377 247.965 81.6887 247.965 79.1637C247.965 76.6468 245.915 74.5897 243.389 74.5897Z" fill="white"/>
<path d="M238.458 79.0914H235.907V79.7852H238.458V79.0914Z" fill="white"/>
<path d="M209.08 203.105H146.652V218.957H209.08V203.105Z" fill="#022E42"/>
<path d="M167.362 46.0974C167.362 46.0974 171.93 37.2075 181.074 40.4182C190.219 43.6289 195.037 47.2106 193.431 57.3347C191.825 67.4587 191.082 69.4351 191.082 69.4351L159.824 68.572C159.824 68.572 159.453 61.9006 158.839 60.1742C158.226 58.4479 154.013 44.6211 167.362 46.0974Z" fill="#242B29"/>
<path d="M69.5114 102.752C69.8827 102.477 70.4153 102.55 70.6978 102.921L75.7663 109.48C75.9842 109.754 76.3797 109.81 76.6541 109.592C76.8881 109.407 76.9608 109.092 76.8316 108.826L72.6994 100.211C72.4572 99.662 72.6671 99.0166 73.1917 98.7262C73.7405 98.4197 74.4265 98.6052 74.7493 99.1376L79.5192 107.019C79.721 107.358 80.1568 107.487 80.5119 107.318L80.5603 107.293C80.9154 107.124 81.0849 106.729 80.9719 106.358L77.671 95.9189C77.5015 95.3784 77.7598 94.7976 78.2844 94.5717C78.8332 94.3297 79.4788 94.5717 79.7371 95.1203L84.2326 104.809C84.4343 105.236 84.9589 105.39 85.3544 105.131C85.5965 104.97 85.7337 104.696 85.7014 104.405L84.7329 95.2897C84.6684 94.6766 85.1526 94.1442 85.766 94.1442C86.2503 94.1442 86.6699 94.4749 86.7749 94.9428C87.4528 97.8792 89.7933 107.979 90.2453 109.988C90.778 112.343 92.2065 104.43 95.0071 103.679C99.0264 102.606 93.748 112.488 93.5947 113.707C93.4413 114.925 91.9967 120.33 90.9313 122.387L114.619 149.871L121.399 141.118L141.035 155.889C141.035 155.889 126.257 175.04 119.873 176.911C113.489 178.791 109.357 175.782 104.975 168.651C100.592 161.52 81.9324 126.977 81.9324 126.977C81.9324 126.977 73.6679 119.717 73.1675 111.206L69.2612 103.849C69.0594 103.47 69.1643 103.002 69.5114 102.752Z" fill="#F4A99D"/>
<path d="M83.3124 119.563C83.1267 119.563 82.9734 119.418 82.9653 119.224C82.9653 119.144 82.7555 111.327 90.1968 110.262C90.3824 110.23 90.5599 110.367 90.5922 110.561C90.6164 110.754 90.4873 110.924 90.2936 110.956C83.4819 111.932 83.6513 118.902 83.6594 119.2C83.6675 119.394 83.5141 119.555 83.3204 119.563C83.3204 119.555 83.3124 119.563 83.3124 119.563Z" fill="#C45853"/>
<path d="M233.631 155.607L213.527 159.325L212.034 205.033L145.151 205.63L144.11 155.01L141.14 158.285C141.14 158.285 121.625 146.523 119.09 139.521C119.09 139.521 129.671 110.343 159.009 102.744C159.009 102.744 165.263 101.856 165.263 99.17C165.263 98.7424 165.272 98.0648 165.288 97.2177C165.36 92.7728 165.57 83.8346 165.57 83.8346C165.57 83.8346 162.245 78.9863 161.938 76.0903C161.938 76.0903 158.734 78.3813 156.289 75.1707C153.835 71.96 154.432 66.4099 159.832 68.5719C159.832 68.5719 161.026 69.4431 160.946 67.4586C160.873 65.4741 158.823 54.1481 165.796 49.8484C165.796 49.8484 170.953 57.3346 181.445 56.5037C191.937 55.6647 191.429 63.5784 190.687 66.7407C189.936 69.9029 191.477 67.9588 191.477 67.9588C191.477 67.9588 194.504 66.4503 196.086 68.5477C197.676 70.6451 197.175 77.8812 189.847 76.3C189.847 76.3 189.016 82.0437 186.772 84.367C186.772 84.367 186.748 84.8026 186.716 85.5448C186.659 86.8033 186.578 88.9329 186.53 91.1756C186.457 95.1042 186.498 99.3636 187.022 99.9282C187.353 100.283 190.081 101.324 193.891 103.002C201.639 106.422 213.842 112.472 219.33 120.757C227.522 133.124 232.292 145.031 233.631 155.607Z" fill="#F4A79C"/>
<path d="M186.772 84.3752C186.772 84.3752 186.748 84.8109 186.716 85.553C186.716 85.553 175.885 104.373 167.104 85.5692C167.435 85.9725 175.812 96.1369 186.772 84.3752Z" fill="#C9827B"/>
<path d="M233.631 155.607L213.527 159.326L212.034 205.033L145.151 205.63L144.11 155.01L141.14 158.285C141.14 158.285 121.625 146.523 119.09 139.521C119.09 139.521 129.671 110.343 159.009 102.744L173.81 113.199C175.352 114.288 177.394 114.296 178.943 113.239L193.899 103.002C201.647 106.422 213.85 112.473 219.338 120.757C227.522 133.124 232.292 145.031 233.631 155.607Z" fill="#185FED"/>
<path d="M210.404 159.64L211.655 218.956H225.932L229.483 156.373L210.404 159.64Z" fill="#F4A89C"/>
<path d="M163.294 63.2074C163.189 63.2074 163.084 63.1832 162.987 63.1348C162.64 62.9654 162.503 62.546 162.673 62.2071C162.697 62.1507 165.522 56.6086 172.43 59.0287C172.794 59.1578 172.987 59.5531 172.858 59.9161C172.729 60.2791 172.333 60.4647 171.97 60.3437C166.248 58.335 164.012 62.6428 163.924 62.8202C163.795 63.0703 163.552 63.2074 163.294 63.2074Z" fill="#242B29"/>
<path d="M187.257 63.2075C187.006 63.2075 186.764 63.0704 186.643 62.8364C184.537 58.8433 179.218 60.5212 178.992 60.5938C178.629 60.7148 178.233 60.5131 178.112 60.1501C177.991 59.7871 178.193 59.3918 178.556 59.2708C180.848 58.5206 185.747 58.1576 187.878 62.183C188.056 62.5218 187.926 62.9413 187.587 63.1268C187.474 63.1833 187.361 63.2075 187.257 63.2075Z" fill="#242B29"/>
<path d="M176.167 78.7926C172.939 78.7926 170.574 76.5177 170.542 76.4854C170.405 76.3483 170.405 76.1305 170.534 75.9934C170.671 75.8562 170.889 75.8562 171.026 75.9853C171.228 76.1789 175.933 80.6802 181.026 75.9772C181.163 75.8481 181.389 75.8562 181.518 75.9934C181.647 76.1386 181.639 76.3564 181.502 76.4854C179.63 78.2118 177.789 78.7926 176.167 78.7926Z" fill="#C45853"/>
<path d="M176.135 75.0498C175.715 75.0498 175.376 74.9287 175.11 74.6787C173.633 73.3153 175.489 68.6042 175.707 68.0718C175.78 67.8943 175.982 67.8056 176.159 67.8782C176.337 67.9508 176.425 68.1525 176.353 68.3299C175.602 70.1692 174.739 73.3799 175.586 74.1624C176.022 74.5657 176.966 74.235 177.676 73.88C177.846 73.7913 178.056 73.8639 178.145 74.0333C178.233 74.2027 178.161 74.4125 177.991 74.5012C177.257 74.8723 176.643 75.0498 176.135 75.0498Z" fill="#C45853"/>
<path d="M190.525 73.5977C190.477 73.5977 190.42 73.5896 190.372 73.5573C190.202 73.4686 190.13 73.2588 190.219 73.0894C190.945 71.6374 192.971 69.1689 195.448 70.1934C195.626 70.266 195.707 70.4677 195.634 70.6451C195.561 70.8226 195.36 70.9033 195.182 70.8307C192.688 69.7981 190.856 73.3637 190.84 73.396C190.775 73.5251 190.654 73.5977 190.525 73.5977Z" fill="#C45853"/>
<path d="M161.624 74.4207C161.454 74.4207 161.309 74.2997 161.277 74.1303C160.857 71.5569 156.991 70.6454 156.951 70.6373C156.765 70.597 156.644 70.4114 156.692 70.2178C156.733 70.0323 156.918 69.9113 157.112 69.9516C157.29 69.9919 161.478 70.9761 161.971 74.0093C162.003 74.2029 161.874 74.3804 161.68 74.4127C161.664 74.4207 161.64 74.4207 161.624 74.4207Z" fill="#C45853"/>
<path d="M169.315 68.5881C170.14 68.5881 170.808 67.9199 170.808 67.0957C170.808 66.2714 170.14 65.6033 169.315 65.6033C168.49 65.6033 167.822 66.2714 167.822 67.0957C167.822 67.9199 168.49 68.5881 169.315 68.5881Z" fill="#242B29"/>
<path d="M182.002 68.5881C182.827 68.5881 183.495 67.9199 183.495 67.0957C183.495 66.2714 182.827 65.6033 182.002 65.6033C181.178 65.6033 180.509 66.2714 180.509 67.0957C180.509 67.9199 181.178 68.5881 182.002 68.5881Z" fill="#242B29"/>
<path d="M167.822 74.8724C164.005 74.8724 160.897 71.7666 160.897 67.9509C160.897 64.1352 164.005 61.0294 167.822 61.0294C171.64 61.0294 174.747 64.1352 174.747 67.9509C174.747 71.7585 171.64 74.8724 167.822 74.8724ZM167.822 62.062C164.578 62.062 161.938 64.6999 161.938 67.9428C161.938 71.1858 164.578 73.8237 167.822 73.8237C171.067 73.8237 173.706 71.1858 173.706 67.9428C173.706 64.6999 171.067 62.062 167.822 62.062Z" fill="white"/>
<path d="M183.496 74.8724C179.678 74.8724 176.571 71.7666 176.571 67.9509C176.571 64.1352 179.678 61.0294 183.496 61.0294C187.313 61.0294 190.42 64.1352 190.42 67.9509C190.428 71.7585 187.321 74.8724 183.496 74.8724ZM183.496 62.062C180.251 62.062 177.612 64.6999 177.612 67.9428C177.612 71.1858 180.251 73.8237 183.496 73.8237C186.74 73.8237 189.379 71.1858 189.379 67.9428C189.379 64.6999 186.74 62.062 183.496 62.062Z" fill="white"/>
<path d="M177.087 67.4183H174.222V68.459H177.087V67.4183Z" fill="white"/>
<path d="M191.001 147.257C188.241 147.257 185.667 146.16 183.754 144.176C181.841 142.183 180.848 139.57 180.953 136.811L181.333 127.042H201.058V137.206C201.058 142.748 196.546 147.257 191.001 147.257ZM182.672 128.437L182.341 136.867C182.245 139.239 183.108 141.498 184.755 143.208C186.401 144.918 188.621 145.862 191.001 145.862C195.779 145.862 199.669 141.973 199.669 137.198V128.429H182.672V128.437Z" fill="#0B3C89"/>
<path d="M210.947 129.695L209.704 159.613L211.099 159.671L212.342 129.753L210.947 129.695Z" fill="#0B3C89"/>
<path d="M143.062 128.902L141.669 128.995L143.413 155.066L144.806 154.974L143.062 128.902Z" fill="#0B3C89"/>
</svg>
