<svg width="16" height="16" viewBox="0 0 16 16" fill="none" xmlns="http://www.w3.org/2000/svg">
<path d="M0.5 9.90039C0.632608 9.90039 0.759785 9.95307 0.853553 10.0468C0.947322 10.1406 1 10.2678 1 10.4004V12.9004C1 13.1656 1.10536 13.42 1.29289 13.6075C1.48043 13.795 1.73478 13.9004 2 13.9004H14C14.2652 13.9004 14.5196 13.795 14.7071 13.6075C14.8946 13.42 15 13.1656 15 12.9004V10.4004C15 10.2678 15.0527 10.1406 15.1464 10.0468C15.2402 9.95307 15.3674 9.90039 15.5 9.90039C15.6326 9.90039 15.7598 9.95307 15.8536 10.0468C15.9473 10.1406 16 10.2678 16 10.4004V12.9004C16 13.4308 15.7893 13.9395 15.4142 14.3146C15.0391 14.6897 14.5304 14.9004 14 14.9004H2C1.46957 14.9004 0.960859 14.6897 0.585786 14.3146C0.210714 13.9395 0 13.4308 0 12.9004V10.4004C0 10.2678 0.0526784 10.1406 0.146447 10.0468C0.240215 9.95307 0.367392 9.90039 0.5 9.90039Z" fill="#1B2559"/>
<path d="M7.64663 1.14592C7.69308 1.09935 7.74825 1.06241 7.809 1.0372C7.86974 1.012 7.93486 0.999023 8.00063 0.999023C8.0664 0.999023 8.13152 1.012 8.19227 1.0372C8.25301 1.06241 8.30819 1.09935 8.35463 1.14592L11.3546 4.14592C11.4485 4.2398 11.5013 4.36714 11.5013 4.49992C11.5013 4.63269 11.4485 4.76003 11.3546 4.85392C11.2607 4.9478 11.1334 5.00055 11.0006 5.00055C10.8679 5.00055 10.7405 4.9478 10.6466 4.85392L8.50063 2.70692V11.4999C8.50063 11.6325 8.44795 11.7597 8.35419 11.8535C8.26042 11.9472 8.13324 11.9999 8.00063 11.9999C7.86802 11.9999 7.74085 11.9472 7.64708 11.8535C7.55331 11.7597 7.50063 11.6325 7.50063 11.4999V2.70692L5.35463 4.85392C5.30814 4.90041 5.25295 4.93728 5.19222 4.96244C5.13148 4.9876 5.06638 5.00055 5.00063 5.00055C4.93489 5.00055 4.86979 4.9876 4.80905 4.96244C4.74831 4.93728 4.69312 4.90041 4.64663 4.85392C4.60014 4.80743 4.56327 4.75224 4.53811 4.6915C4.51295 4.63076 4.5 4.56566 4.5 4.49992C4.5 4.43417 4.51295 4.36907 4.53811 4.30833C4.56327 4.24759 4.60014 4.19241 4.64663 4.14592L7.64663 1.14592Z" fill="#1B2559"/>
</svg>
