<svg width="16" height="16" viewBox="0 0 16 16" fill="none" xmlns="http://www.w3.org/2000/svg">
<path fill-rule="evenodd" clip-rule="evenodd" d="M13.2267 12.1287C13.2267 14.3261 10.2134 14.5801 7.94741 14.5801L7.78526 14.5799C6.34155 14.5764 2.66675 14.4853 2.66675 12.1154C2.66675 9.96291 5.55898 9.67524 7.80774 9.6644L8.10957 9.66421C9.55318 9.66771 13.2267 9.75886 13.2267 12.1287ZM7.94741 10.6641C5.10675 10.6641 3.66675 11.1521 3.66675 12.1154C3.66675 13.0874 5.10675 13.5801 7.94741 13.5801C10.7874 13.5801 12.2267 13.0921 12.2267 12.1287C12.2267 11.1567 10.7874 10.6641 7.94741 10.6641ZM7.94741 1.33313C9.89941 1.33313 11.4867 2.92113 11.4867 4.87313C11.4867 6.82513 9.89941 8.41247 7.94741 8.41247H7.92608C5.97808 8.40647 4.40008 6.8178 4.40673 4.87113C4.40673 2.92113 5.99475 1.33313 7.94741 1.33313ZM7.94741 2.28513C6.52008 2.28513 5.35873 3.4458 5.35873 4.87313C5.35408 6.2958 6.50675 7.4558 7.92808 7.46113L7.94741 7.93713V7.46113C9.37408 7.46113 10.5347 6.2998 10.5347 4.87313C10.5347 3.4458 9.37408 2.28513 7.94741 2.28513Z" fill="#7C8AB5"/>
</svg>
