<svg width="18" height="19" viewBox="0 0 18 19" fill="none" xmlns="http://www.w3.org/2000/svg">
<path d="M16.9707 9.23227L9.6953 16.5077C8.80401 17.399 7.59515 17.8997 6.33467 17.8997C5.07419 17.8997 3.86534 17.399 2.97405 16.5077C2.08275 15.6164 1.58203 14.4075 1.58203 13.1471C1.58203 11.8866 2.08275 10.6777 2.97405 9.78644L10.2495 2.51102C10.8437 1.91682 11.6496 1.58301 12.4899 1.58301C13.3302 1.58301 14.1361 1.91682 14.7303 2.51102C15.3245 3.10521 15.6583 3.91112 15.6583 4.75144C15.6583 5.59175 15.3245 6.39766 14.7303 6.99185L7.44697 14.2673C7.29986 14.4144 7.12522 14.5311 6.93301 14.6107C6.7408 14.6903 6.5348 14.7313 6.32676 14.7313C6.11871 14.7313 5.91271 14.6903 5.7205 14.6107C5.5283 14.5311 5.35366 14.4144 5.20655 14.2673C5.05944 14.1202 4.94275 13.9455 4.86313 13.7533C4.78352 13.5611 4.74254 13.3551 4.74254 13.1471C4.74254 12.939 4.78352 12.733 4.86313 12.5408C4.94275 12.3486 5.05944 12.174 5.20655 12.0269L11.9278 5.31352" stroke="black" stroke-opacity="0.5" stroke-width="1.5" stroke-linecap="round" stroke-linejoin="round"/>
</svg>
