<svg width="17" height="13" viewBox="0 0 17 13" fill="none" xmlns="http://www.w3.org/2000/svg">
<path fill-rule="evenodd" clip-rule="evenodd" d="M5.06677 0.751034L5.41952 0.751487C5.47982 0.751572 5.5408 0.751661 5.60233 0.751755L5.97723 0.752362C6.79982 0.753767 7.676 0.755693 8.34378 0.757081L8.63624 0.757679C8.6822 0.757771 8.72668 0.757859 8.76958 0.757943C10.4571 0.639443 11.9803 1.89194 12.1161 3.57269C12.1173 3.58993 12.1184 3.68776 12.1194 3.86571L13.6762 2.59072C14.1292 2.21947 14.739 2.14672 15.2677 2.39647C15.7965 2.64772 16.125 3.16672 16.1242 3.75172L16.1152 9.26347C16.1145 9.84847 15.7852 10.3675 15.2572 10.6165C15.0502 10.7147 14.8312 10.762 14.6137 10.762C14.2755 10.762 13.9417 10.6457 13.6665 10.42L12.1229 9.13913C12.1228 9.16084 12.1228 9.18261 12.1228 9.20444C12.1543 9.99644 11.8723 10.7592 11.3278 11.3517C10.7556 11.9749 9.96658 12.3372 9.10708 12.3724C9.0925 12.3735 9.01035 12.3742 8.87555 12.3746L8.57924 12.3752C8.46367 12.3752 8.33235 12.3752 8.18852 12.3752L7.55406 12.3746C7.4969 12.3745 7.43882 12.3744 7.37995 12.3743L7.01814 12.3738C6.15612 12.3723 5.1851 12.37 4.43228 12.3684L4.12396 12.3678C4.02627 12.3675 3.934 12.3674 3.84808 12.3672C3.76858 12.3732 3.68908 12.3762 3.60958 12.3762C2.02408 12.3769 0.64108 11.1619 0.51058 9.56819L0.510463 9.56658L0.509763 9.55171C0.50971 9.55009 0.509657 9.54831 0.509602 9.54633L0.509087 9.52271C0.509027 9.51936 0.508967 9.51574 0.508906 9.51184L0.508338 9.46816C0.508274 9.46228 0.508208 9.45604 0.508143 9.44941L0.507543 9.37852C0.507475 9.36932 0.507408 9.35966 0.50734 9.34951L0.506932 9.28251C0.506863 9.2703 0.506795 9.25755 0.506727 9.24424L0.506118 9.10849C0.506051 9.09156 0.505985 9.074 0.505918 9.05577L0.505332 8.87312C0.505268 8.85068 0.505205 8.82751 0.505143 8.80357L0.504599 8.56685C0.504541 8.53811 0.504484 8.50853 0.504427 8.47809L0.503798 8.06978C0.50375 8.03204 0.503703 7.99333 0.503658 7.95364L0.503076 7.28113C0.503044 7.23095 0.503015 7.17966 0.502987 7.12722L0.502976 4.18878C0.503008 4.09966 0.503043 4.00906 0.50308 3.91694C0.46708 3.14369 0.74758 2.37569 1.29508 1.77794C1.86658 1.15394 2.65483 0.790193 3.51508 0.753443C3.52666 0.752609 3.58148 0.75198 3.67189 0.751523L3.83326 0.750964C3.86429 0.750891 3.8973 0.750828 3.93218 0.750774L4.89825 0.750856C4.95343 0.750909 5.00964 0.750969 5.06677 0.751034ZM8.81008 1.88144C7.86316 1.88007 6.70534 1.87841 5.71728 1.87733L5.19746 1.87681C5.11439 1.87673 5.0333 1.87666 4.95447 1.8766L3.65016 1.87664C3.60108 1.87686 3.56933 1.87719 3.55708 1.87769C3.00358 1.90094 2.49283 2.13569 2.12458 2.53769C1.78108 2.91344 1.60408 3.39344 1.62733 3.89144L1.62795 6.78867C1.62798 6.85262 1.62802 6.91614 1.62805 6.97914L1.62874 7.87467C1.6288 7.93039 1.62885 7.98518 1.62891 8.03895L1.6293 8.34877C1.62937 8.39815 1.62944 8.44636 1.62951 8.49331L1.63024 8.87952C1.63104 9.22724 1.63205 9.45277 1.63333 9.49619C1.71883 10.5349 2.69233 11.3292 3.80683 11.2437C3.92469 11.2439 4.04579 11.244 4.1694 11.2442L4.54705 11.2448C4.86683 11.2454 5.19777 11.2459 5.52848 11.2465L5.92449 11.2471C6.12171 11.2475 6.31721 11.2478 6.50853 11.2481L6.88487 11.2487C6.94642 11.2487 7.00732 11.2488 7.06749 11.2489L7.4189 11.2494C7.47575 11.2494 7.53168 11.2495 7.5866 11.2496L8.91068 11.2495C8.9973 11.2492 9.05171 11.2488 9.06808 11.2482C9.61933 11.2257 10.1308 10.9917 10.4991 10.5904C10.8433 10.2162 11.0203 9.73619 10.9986 9.24044L10.9979 9.22807L10.9978 5.60092C10.9978 5.54201 10.9977 5.48386 10.9977 5.42656L10.9971 4.78468C10.9971 4.73545 10.997 4.68739 10.9969 4.64059L10.9963 4.25555C10.9961 4.14 10.9958 4.038 10.9955 3.95179L10.9949 3.80105C10.9944 3.71547 10.9939 3.66058 10.9933 3.64169C10.9086 2.59769 9.93058 1.79369 8.81008 1.88144ZM14.3887 3.46147L12.1225 5.31044C12.1226 5.40259 12.1227 5.49838 12.1228 5.5978L12.1233 7.47853L14.3797 9.55072C14.5455 9.68572 14.712 9.63022 14.7765 9.59872C14.841 9.56872 14.9902 9.47497 14.9902 9.26197L14.9992 3.75022C15 3.53722 14.85 3.44347 14.7855 3.41272C14.7217 3.38272 14.553 3.32647 14.3887 3.46147Z" fill="#1B2559"/>
</svg>
