<svg width="21" height="20" viewBox="0 0 21 20" fill="none" xmlns="http://www.w3.org/2000/svg">
<path fill-rule="evenodd" clip-rule="evenodd" d="M14.6412 0C17.9482 0 20.6382 2.69 20.6382 5.998V13.175C20.6382 16.482 17.9482 19.173 14.6412 19.173H5.99721C2.69021 19.173 -0.000793457 16.482 -0.000793457 13.175V5.998C-0.000793457 2.69 2.69021 0 5.99721 0H14.6412ZM14.6412 1.5H5.99721C3.51721 1.5 1.49921 3.518 1.49921 5.998V13.175C1.49921 15.655 3.51721 17.673 5.99721 17.673H14.6412C17.1212 17.673 19.1382 15.655 19.1382 13.175V12.895L15.8403 12.8956C13.9433 12.8956 12.3993 11.3526 12.3983 9.4566C12.3983 7.5586 13.9423 6.0146 15.8403 6.0136L19.1382 6.013V5.998C19.1382 3.518 17.1212 1.5 14.6412 1.5ZM19.1382 7.513L15.8403 7.5136C14.7693 7.5146 13.8983 8.3856 13.8983 9.4556C13.8983 10.5246 14.7703 11.3956 15.8403 11.3956L19.1382 11.395V7.513ZM16.2979 8.6436C16.7119 8.6436 17.0479 8.9796 17.0479 9.3936C17.0479 9.8076 16.7119 10.1436 16.2979 10.1436H15.9859C15.5719 10.1436 15.2359 9.8076 15.2359 9.3936C15.2359 8.9796 15.5719 8.6436 15.9859 8.6436H16.2979ZM10.6842 4.5381C11.0982 4.5381 11.4342 4.8741 11.4342 5.2881C11.4342 5.7021 11.0982 6.0381 10.6842 6.0381H5.28521C4.87121 6.0381 4.53521 5.7021 4.53521 5.2881C4.53521 4.8741 4.87121 4.5381 5.28521 4.5381H10.6842Z" fill="#fff"/>
</svg>
