<svg width="18" height="18" viewBox="0 0 18 18" fill="none" xmlns="http://www.w3.org/2000/svg">
<path d="M12.9375 2.8125H15.1875C15.3367 2.8125 15.4798 2.87176 15.5852 2.97725C15.6907 3.08274 15.75 3.22582 15.75 3.375V4.57031C15.75 4.99922 15.5796 5.41056 15.2763 5.71384C14.9731 6.01712 14.5617 6.1875 14.1328 6.1875H12.9375" stroke="#1B2559" stroke-linecap="round" stroke-linejoin="round"/>
<path d="M3.375 2.8125H12.9375V9.5625C12.9375 9.93184 12.8648 10.2976 12.7234 10.6388C12.5821 10.98 12.3749 11.2901 12.1137 11.5512C11.8526 11.8124 11.5425 12.0196 11.2013 12.1609C10.8601 12.3023 10.4943 12.375 10.125 12.375H6.1875C5.44158 12.375 4.72621 12.0787 4.19876 11.5512C3.67132 11.0238 3.375 10.3084 3.375 9.5625V2.8125Z" stroke="#1B2559" stroke-linecap="round" stroke-linejoin="round"/>
<path d="M2.25 14.625H14.0625" stroke="#1B2559" stroke-linecap="round" stroke-linejoin="round"/>
</svg>
