<svg width="20" height="20" viewBox="0 0 20 20" fill="none" xmlns="http://www.w3.org/2000/svg">
<path d="M2.07397 6.31345H2.34765C3.40132 6.31345 4.26341 7.17555 4.26341 8.22922V17.808C4.26341 18.8617 3.40132 19.7238 2.34765 19.7238H2.07397C1.0203 19.7238 0.158203 18.8617 0.158203 17.808V8.22922C0.158203 7.17555 1.0203 6.31345 2.07397 6.31345ZM9.73702 0.566162C10.7907 0.566162 11.6528 1.42826 11.6528 2.48193V17.808C11.6528 18.8617 10.7907 19.7238 9.73702 19.7238C8.68335 19.7238 7.82126 18.8617 7.82126 17.808V2.48193C7.82126 1.42826 8.68335 0.566162 9.73702 0.566162ZM17.4001 11.5134C18.4537 11.5134 19.3158 12.3755 19.3158 13.4291V17.808C19.3158 18.8617 18.4537 19.7238 17.4001 19.7238C16.3464 19.7238 15.4843 18.8617 15.4843 17.808V13.4291C15.4843 12.3755 16.3464 11.5134 17.4001 11.5134Z" fill="#FFA61B"/>
</svg>
