<svg width="14" height="16" viewBox="0 0 14 16" fill="none" xmlns="http://www.w3.org/2000/svg">
<path fill-rule="evenodd" clip-rule="evenodd" d="M9.93077 0.5C12.2888 0.5 13.8728 2.11475 13.8728 4.51775V11.4147C13.8728 13.8387 12.3375 15.4152 9.96152 15.4302L4.19177 15.4325C1.83377 15.4325 0.249023 13.8177 0.249023 11.4147V4.51775C0.249023 2.093 1.78427 0.51725 4.16027 0.503L9.93002 0.5H9.93077ZM9.93077 1.625L4.16402 1.628C2.41802 1.6385 1.37402 2.7185 1.37402 4.51775V11.4147C1.37402 13.226 2.42777 14.3075 4.19102 14.3075L9.95777 14.3052C11.7038 14.2947 12.7478 13.2132 12.7478 11.4147V4.51775C12.7478 2.7065 11.6948 1.625 9.93077 1.625ZM9.7861 10.6053C10.0966 10.6053 10.3486 10.8573 10.3486 11.1678C10.3486 11.4783 10.0966 11.7303 9.7861 11.7303H4.3711C4.0606 11.7303 3.8086 11.4783 3.8086 11.1678C3.8086 10.8573 4.0606 10.6053 4.3711 10.6053H9.7861ZM9.7861 7.4654C10.0966 7.4654 10.3486 7.7174 10.3486 8.0279C10.3486 8.3384 10.0966 8.5904 9.7861 8.5904H4.3711C4.0606 8.5904 3.8086 8.3384 3.8086 8.0279C3.8086 7.7174 4.0606 7.4654 4.3711 7.4654H9.7861ZM6.43712 4.3328C6.74762 4.3328 6.99962 4.5848 6.99962 4.8953C6.99962 5.2058 6.74762 5.4578 6.43712 5.4578H4.37087C4.06037 5.4578 3.80837 5.2058 3.80837 4.8953C3.80837 4.5848 4.06037 4.3328 4.37087 4.3328H6.43712Z" fill="#1B2559"/>
</svg>
