<svg width="22" height="22" viewBox="0 0 22 22" fill="none" xmlns="http://www.w3.org/2000/svg">
<path fill-rule="evenodd" clip-rule="evenodd" d="M7.94885 0.964844C8.89985 0.965844 9.80585 1.41984 10.3738 2.17884L11.2848 3.39084C11.5738 3.77484 12.0328 4.00384 12.5128 4.00484H15.3418C19.2038 4.00484 21.0028 5.98384 21.0028 10.2328L20.9748 15.1998C20.9739 19.1678 18.5078 21.6338 14.5378 21.6338H6.75585C2.77785 21.6338 0.305847 19.1668 0.305847 15.1968V7.39784C0.305847 3.12884 2.20485 0.964844 5.94885 0.964844H7.94885ZM7.94785 2.46484H5.94885C3.04485 2.46484 1.80585 3.94084 1.80585 7.39784V15.1968C1.80585 18.3808 3.56385 20.1338 6.75585 20.1338H14.5378C17.7218 20.1338 19.4748 18.3808 19.4748 15.1968V15.1938L19.5028 10.2288C19.5028 6.82984 18.3368 5.50484 15.3418 5.50484H12.5118C11.5628 5.50384 10.6568 5.05084 10.0868 4.29284L9.17385 3.07884C8.88685 2.69384 8.42785 2.46584 7.94785 2.46484ZM15.022 13.1776C15.436 13.1776 15.772 13.5136 15.772 13.9276C15.772 14.3416 15.436 14.6776 15.022 14.6776H6.28705C5.87305 14.6776 5.53705 14.3416 5.53705 13.9276C5.53705 13.5136 5.87305 13.1776 6.28705 13.1776H15.022Z" fill="#fff"/>
</svg>
