<svg width="17" height="17" viewBox="0 0 17 17" fill="none" xmlns="http://www.w3.org/2000/svg">
<path fill-rule="evenodd" clip-rule="evenodd" d="M6.23225 0.5C6.9455 0.50075 7.625 0.84125 8.051 1.4105L8.73425 2.3195C8.951 2.6075 9.29525 2.77925 9.65525 2.78H11.777C14.6735 2.78 16.0228 4.26425 16.0228 7.451L16.0018 11.1762C16.001 14.1522 14.1515 16.0018 11.174 16.0018H5.3375C2.354 16.0018 0.5 14.1515 0.5 11.174V5.32475C0.5 2.123 1.92425 0.5 4.73225 0.5H6.23225ZM6.2315 1.625H4.73225C2.55425 1.625 1.625 2.732 1.625 5.32475V11.174C1.625 13.562 2.9435 14.8768 5.3375 14.8768H11.174C13.562 14.8768 14.8768 13.562 14.8768 11.174V11.1718L14.8978 7.448C14.8978 4.89875 14.0233 3.905 11.777 3.905H9.6545C8.94275 3.90425 8.26325 3.5645 7.83575 2.996L7.151 2.0855C6.93575 1.79675 6.5915 1.62575 6.2315 1.625ZM11.5372 9.6596C11.8477 9.6596 12.0997 9.9116 12.0997 10.2221C12.0997 10.5326 11.8477 10.7846 11.5372 10.7846H4.9859C4.6754 10.7846 4.4234 10.5326 4.4234 10.2221C4.4234 9.9116 4.6754 9.6596 4.9859 9.6596H11.5372Z" fill="#1B2559"/>
</svg>
