<svg width="16" height="16" viewBox="0 0 16 16" fill="none" xmlns="http://www.w3.org/2000/svg">
<path d="M14.7291 3.69778L12.1764 1.07556C12.0077 0.904029 11.7794 0.807739 11.5414 0.807739C11.3035 0.807739 11.0752 0.904029 10.9065 1.07556L1.85671 10.3111L1.03044 13.9556C1.00194 14.0888 1.00292 14.2268 1.0333 14.3596C1.06369 14.4924 1.12272 14.6166 1.20607 14.7231C1.28943 14.8296 1.39501 14.9157 1.5151 14.9751C1.6352 15.0346 1.76676 15.0658 1.9002 15.0667C1.96237 15.0731 2.02502 15.0731 2.0872 15.0667L5.69233 14.2222L14.7291 4.99556C14.8969 4.82316 14.9911 4.58986 14.9911 4.34667C14.9911 4.10347 14.8969 3.87018 14.7291 3.69778ZM5.25745 13.4222L1.87845 14.1467L2.64819 10.76L9.41923 3.86667L12.0285 6.53333L5.25745 13.4222ZM12.6112 5.88889L10.002 3.22222L11.5153 1.68444L14.0811 4.35111L12.6112 5.88889Z" fill="#fff"/>
</svg>
