<svg width="4" height="14" viewBox="0 0 4 14" fill="none" xmlns="http://www.w3.org/2000/svg">
<path d="M1.99925 3.25002C1.80222 3.24997 1.60713 3.21111 1.42511 3.13567C1.2431 3.06022 1.07772 2.94966 0.938434 2.8103C0.799147 2.67095 0.688671 2.50552 0.613316 2.32346C0.53796 2.14141 0.499201 1.9463 0.499251 1.74927C0.4993 1.55224 0.538157 1.35714 0.613604 1.17513C0.68905 0.993113 0.799608 0.82774 0.938965 0.688452C1.07832 0.549164 1.24375 0.438689 1.4258 0.363333C1.60786 0.287978 1.80297 0.249218 2 0.249268C2.39792 0.249367 2.77951 0.407537 3.06082 0.688982C3.34212 0.970428 3.5001 1.35209 3.5 1.75002C3.4999 2.14794 3.34173 2.52953 3.06029 2.81083C2.77884 3.09214 2.39717 3.25012 1.99925 3.25002ZM3.49925 12.25C3.4992 12.053 3.46034 11.8579 3.3849 11.6759C3.30945 11.4939 3.19889 11.3285 3.05953 11.1892C2.92018 11.0499 2.75475 10.9394 2.5727 10.8641C2.39064 10.7887 2.19553 10.75 1.9985 10.75C1.80147 10.7501 1.60637 10.7889 1.42436 10.8644C1.24234 10.9398 1.07697 11.0504 0.937685 11.1897C0.798397 11.3291 0.687921 11.4945 0.612566 11.6766C0.53721 11.8586 0.49845 12.0537 0.4985 12.2508C0.498599 12.6487 0.656769 13.0303 0.938214 13.3116C1.21966 13.5929 1.60133 13.7509 1.99925 13.7508C2.39717 13.7507 2.77876 13.5925 3.06007 13.3111C3.34137 13.0296 3.49935 12.6479 3.49925 12.25ZM3.49925 7.00002C3.4992 6.80299 3.46034 6.60789 3.3849 6.42588C3.30945 6.24386 3.19889 6.07849 3.05953 5.9392C2.92018 5.79991 2.75475 5.68944 2.5727 5.61408C2.39064 5.53873 2.19553 5.49997 1.9985 5.50002C1.80147 5.50007 1.60637 5.53892 1.42436 5.61437C1.24234 5.68982 1.07697 5.80038 0.937685 5.93973C0.798397 6.07909 0.687922 6.24452 0.612566 6.42657C0.537211 6.60862 0.498451 6.80374 0.4985 7.00077C0.498599 7.39869 0.65677 7.78028 0.938215 8.06158C1.21966 8.34289 1.60133 8.50087 1.99925 8.50077C2.39717 8.50067 2.77876 8.3425 3.06007 8.06105C3.34137 7.77961 3.49935 7.39794 3.49925 7.00002Z" fill="#929191"/>
</svg>
