<svg width="25" height="24" viewBox="0 0 25 24" fill="none" xmlns="http://www.w3.org/2000/svg">
<path fill-rule="evenodd" clip-rule="evenodd" d="M16.641 3C19.948 3 22.638 5.69 22.638 8.998V16.175C22.638 19.482 19.948 22.173 16.641 22.173H7.99702C4.69002 22.173 1.99902 19.482 1.99902 16.175V8.998C1.99902 5.69 4.69002 3 7.99702 3H16.641ZM16.641 4.5H7.99702C5.51702 4.5 3.49902 6.518 3.49902 8.998V16.175C3.49902 18.655 5.51702 20.673 7.99702 20.673H16.641C19.121 20.673 21.138 18.655 21.138 16.175V15.895L17.8401 15.8956C15.9431 15.8956 14.3991 14.3526 14.3981 12.4566C14.3981 10.5586 15.9421 9.0146 17.8401 9.0136L21.138 9.013V8.998C21.138 6.518 19.121 4.5 16.641 4.5ZM21.138 10.513L17.8401 10.5136C16.7691 10.5146 15.8981 11.3856 15.8981 12.4556C15.8981 13.5246 16.7701 14.3956 17.8401 14.3956L21.138 14.395V10.513ZM18.2977 11.6436C18.7117 11.6436 19.0477 11.9796 19.0477 12.3936C19.0477 12.8076 18.7117 13.1436 18.2977 13.1436H17.9857C17.5717 13.1436 17.2357 12.8076 17.2357 12.3936C17.2357 11.9796 17.5717 11.6436 17.9857 11.6436H18.2977ZM12.684 7.5381C13.098 7.5381 13.434 7.8741 13.434 8.2881C13.434 8.7021 13.098 9.0381 12.684 9.0381H7.28502C6.87102 9.0381 6.53502 8.7021 6.53502 8.2881C6.53502 7.8741 6.87102 7.5381 7.28502 7.5381H12.684Z" fill="#FF5A89"/>
</svg>
