<svg width="18" height="18" viewBox="0 0 18 18" fill="none" xmlns="http://www.w3.org/2000/svg">
<path d="M7.3125 11.8125H14.7206L13.2694 13.2694L14.0625 14.0625L16.875 11.25L14.0625 8.4375L13.2694 9.23062L14.7206 10.6875H7.3125V11.8125Z" fill="#1B2559"/>
<path d="M12.375 7.87501V5.62501C12.3754 5.55098 12.3612 5.4776 12.3332 5.40906C12.3053 5.34053 12.264 5.27819 12.2119 5.22563L8.27437 1.28813C8.22182 1.236 8.15948 1.19476 8.09095 1.16676C8.02241 1.13877 7.94903 1.12458 7.875 1.12501H2.25C1.95163 1.12501 1.66548 1.24354 1.4545 1.45451C1.24353 1.66549 1.125 1.95164 1.125 2.25001V15.75C1.125 16.0484 1.24353 16.3345 1.4545 16.5455C1.66548 16.7565 1.95163 16.875 2.25 16.875H11.25C11.5484 16.875 11.8345 16.7565 12.0455 16.5455C12.2565 16.3345 12.375 16.0484 12.375 15.75V14.625H11.25V15.75H2.25V2.25001H6.75V5.62501C6.75 5.92338 6.86853 6.20953 7.0795 6.4205C7.29048 6.63148 7.57663 6.75001 7.875 6.75001H11.25V7.87501H12.375ZM7.875 5.62501V2.48063L11.0194 5.62501H7.875Z" fill="#1B2559"/>
</svg>
