<svg width="16" height="15" viewBox="0 0 16 15" fill="none" xmlns="http://www.w3.org/2000/svg">
<path fill-rule="evenodd" clip-rule="evenodd" d="M5.58073 7.449C5.59423 7.461 5.60698 7.47226 5.61973 7.48576C6.42898 8.31526 6.87523 9.414 6.87523 10.5803V13.5683L8.55223 12.6548C8.68423 12.5828 8.76598 12.4418 8.76598 12.2865V10.5713C8.76598 9.4095 9.20773 8.31451 10.0095 7.48951L13.6372 3.63076C13.872 3.38101 14.001 3.05326 14.001 2.70751V2.00551C14.001 1.65751 13.7265 1.37476 13.3905 1.37476H2.23723C1.90048 1.37476 1.62598 1.65751 1.62598 2.00551V2.70751C1.62598 3.05326 1.75498 3.38101 1.98973 3.63001L5.58073 7.449ZM6.61048 14.8755C6.45898 14.8755 6.30898 14.835 6.17248 14.754C5.90848 14.5965 5.75023 14.3183 5.75023 14.0093V10.5803C5.75023 9.729 5.43298 8.92725 4.85473 8.313C4.83748 8.29875 4.82023 8.283 4.80523 8.2665L1.17073 4.40175C0.738727 3.94276 0.500977 3.34051 0.500977 2.70751V2.00551C0.500977 1.03726 1.28023 0.249756 2.23723 0.249756H13.3905C14.3467 0.249756 15.126 1.03726 15.126 2.00551V2.70751C15.126 3.33976 14.8882 3.94126 14.4577 4.40101L10.8225 8.2665C10.2202 8.8875 9.89098 9.70425 9.89098 10.5713V12.2865C9.89098 12.8535 9.58423 13.3725 9.09073 13.6425L7.01998 14.7705C6.89098 14.8403 6.75073 14.8755 6.61048 14.8755Z" fill="black"/>
</svg>
