<svg width="37" height="33" viewBox="0 0 37 33" fill="none" xmlns="http://www.w3.org/2000/svg">
<path d="M4.62988 0.3125C3.40326 0.3125 2.22687 0.799775 1.35951 1.66713C0.492158 2.53449 0.00488281 3.71087 0.00488281 4.9375V28.0625C0.00488281 29.2891 0.492158 30.4655 1.35951 31.3329C2.22687 32.2002 3.40326 32.6875 4.62988 32.6875H32.3799C33.6065 32.6875 34.7829 32.2002 35.6503 31.3329C36.5176 30.4655 37.0049 29.2891 37.0049 28.0625V4.9375C37.0049 3.71087 36.5176 2.53449 35.6503 1.66713C34.7829 0.799775 33.6065 0.3125 32.3799 0.3125H4.62988ZM32.3799 2.625C32.9932 2.625 33.5814 2.86864 34.0151 3.30232C34.4487 3.73599 34.6924 4.32419 34.6924 4.9375V19.9688L25.9581 15.4663C25.7412 15.3577 25.4957 15.32 25.2562 15.3586C25.0168 15.3972 24.7955 15.5101 24.6238 15.6814L16.0444 24.2607L9.89313 20.163C9.67104 20.0151 9.40464 19.9486 9.13912 19.9748C8.87359 20.0009 8.62527 20.1181 8.43626 20.3064L2.31738 25.75V4.9375C2.31738 4.32419 2.56102 3.73599 2.9947 3.30232C3.42838 2.86864 4.01657 2.625 4.62988 2.625H32.3799Z" fill="#AEAEAE"/>
</svg>
