<svg width="18" height="18" viewBox="0 0 18 18" fill="none" xmlns="http://www.w3.org/2000/svg">
<g clip-path="url(#clip0_2369_4519)">
<path fill-rule="evenodd" clip-rule="evenodd" d="M0 8.75C0 6.42936 0.921872 4.20376 2.56282 2.56282C4.20376 0.921872 6.42936 0 8.75 0C11.0706 0 13.2962 0.921872 14.9372 2.56282C16.5781 4.20376 17.5 6.42936 17.5 8.75C17.5 11.0706 16.5781 13.2962 14.9372 14.9372C13.2962 16.5781 11.0706 17.5 8.75 17.5C6.42936 17.5 4.20376 16.5781 2.56282 14.9372C0.921872 13.2962 0 11.0706 0 8.75H0ZM8.25067 12.495L13.2883 6.19733L12.3783 5.46933L8.08267 10.8372L5.04 8.302L4.29333 9.198L8.25067 12.4962V12.495Z" fill="#3EA54E"/>
</g>
<defs>
<clipPath id="clip0_2369_4519">
<rect width="17.5" height="17.5" fill="white"/>
</clipPath>
</defs>
</svg>
