<svg width="28" height="28" viewBox="0 0 28 28" fill="none" xmlns="http://www.w3.org/2000/svg">
<path d="M3.5 19.25H1.75V3.5C1.75046 3.03601 1.93499 2.59116 2.26307 2.26307C2.59116 1.93499 3.03601 1.75046 3.5 1.75H19.25V3.5H3.5V19.25Z" fill="#7C8AB5"/>
<path d="M18.375 14.875C18.8942 14.875 19.4017 14.721 19.8334 14.4326C20.2651 14.1442 20.6015 13.7342 20.8002 13.2545C20.9989 12.7749 21.0508 12.2471 20.9496 11.7379C20.8483 11.2287 20.5983 10.761 20.2312 10.3938C19.864 10.0267 19.3963 9.77673 18.8871 9.67544C18.3779 9.57415 17.8501 9.62614 17.3705 9.82482C16.8908 10.0235 16.4808 10.36 16.1924 10.7916C15.904 11.2233 15.75 11.7308 15.75 12.25C15.7507 12.946 16.0275 13.6133 16.5196 14.1054C17.0117 14.5975 17.679 14.8743 18.375 14.875ZM18.375 11.375C18.5481 11.375 18.7172 11.4263 18.8611 11.5225C19.005 11.6186 19.1172 11.7553 19.1834 11.9152C19.2496 12.075 19.2669 12.251 19.2332 12.4207C19.1994 12.5904 19.1161 12.7463 18.9937 12.8687C18.8713 12.9911 18.7154 13.0744 18.5457 13.1082C18.376 13.142 18.2 13.1246 18.0402 13.0584C17.8803 12.9922 17.7436 12.88 17.6475 12.7361C17.5513 12.5922 17.5 12.4231 17.5 12.25C17.5 12.0179 17.5922 11.7954 17.7563 11.6313C17.9204 11.4672 18.1429 11.375 18.375 11.375Z" fill="#7C8AB5"/>
<path d="M24.5 6.125H7.875C7.41101 6.12546 6.96616 6.30999 6.63807 6.63807C6.30999 6.96616 6.12546 7.41101 6.125 7.875V24.5C6.12546 24.964 6.30999 25.4088 6.63807 25.7369C6.96616 26.065 7.41101 26.2495 7.875 26.25H24.5C24.964 26.2495 25.4088 26.065 25.7369 25.7369C26.065 25.4088 26.2495 24.964 26.25 24.5V7.875C26.2495 7.41101 26.065 6.96616 25.7369 6.63807C25.4088 6.30999 24.964 6.12546 24.5 6.125ZM24.5 24.5H7.875V19.25L11.375 15.7526L16.2628 20.6404C16.5909 20.9684 17.036 21.1528 17.5 21.1528C17.964 21.1528 18.4091 20.9684 18.7372 20.6404L20.125 19.2526L24.5 23.625V24.5ZM24.5 21.1505L21.3622 18.0128C21.0341 17.6847 20.589 17.5004 20.125 17.5004C19.661 17.5004 19.2159 17.6847 18.8878 18.0128L17.5 19.4005L12.6122 14.5128C12.2841 14.1847 11.839 14.0004 11.375 14.0004C10.911 14.0004 10.4659 14.1847 10.1378 14.5128L7.875 16.7755V7.875H24.5V21.1505Z" fill="#7C8AB5"/>
</svg>
