<svg width="21" height="22" viewBox="0 0 20 20" fill="none" xmlns="http://www.w3.org/2000/svg">
<path fill-rule="evenodd" clip-rule="evenodd" d="M19.2729 12.7352C19.6859 12.7662 19.9949 13.1272 19.9639 13.5402L19.7739 16.0492C19.6169 18.1192 17.8699 19.7402 15.7949 19.7402H4.19494C2.11994 19.7402 0.372944 18.1192 0.215944 16.0492L0.0259441 13.5402C-0.00505586 13.1272 0.304944 12.7662 0.717944 12.7352C1.13294 12.7202 1.49094 13.0132 1.52294 13.4272L1.71194 15.9352C1.80994 17.2272 2.89994 18.2402 4.19494 18.2402H15.7949C17.0899 18.2402 18.1809 17.2272 18.2779 15.9352L18.4679 13.4272C18.4999 13.0132 18.8669 12.7192 19.2729 12.7352ZM11.2851 0.00012207C12.7881 0.00012207 14.0332 1.12639 14.2207 2.57915L16.1902 2.58002C18.2862 2.58002 19.9902 4.28902 19.9902 6.39102V9.83002C19.9902 10.097 19.8482 10.343 19.6192 10.477C17.1509 11.9225 14.0242 12.7656 10.7448 12.8781L10.7451 14.6767C10.7451 15.0907 10.4091 15.4267 9.99514 15.4267C9.58114 15.4267 9.24514 15.0907 9.24514 14.6767L9.24449 12.8783C5.96843 12.7669 2.8414 11.9236 0.371244 10.477C0.141244 10.343 0.000244141 10.097 0.000244141 9.83002V6.38102C0.000244141 4.28502 1.70924 2.58002 3.81024 2.58002L5.76955 2.57915C5.95709 1.12639 7.20221 0.00012207 8.70514 0.00012207H11.2851ZM16.1902 4.08002H3.81024C2.53624 4.08002 1.50024 5.11202 1.50024 6.38102V9.39302C3.87396 10.6828 6.86648 11.3897 9.98124 11.391L9.99514 11.3897L10.0062 11.3901L10.4824 11.3852C13.4282 11.315 16.2383 10.6161 18.4902 9.39302V6.39102C18.4902 5.11602 17.4592 4.08002 16.1902 4.08002ZM11.2851 1.50012H8.70514C8.0318 1.50012 7.4634 1.9584 7.29549 2.5794H12.6948C12.5269 1.9584 11.9585 1.50012 11.2851 1.50012Z" fill="white"/>
</svg>
