<svg width="20" height="20" viewBox="0 0 20 20" fill="none" xmlns="http://www.w3.org/2000/svg">
<path d="M7.4678 11.8752C6.85611 11.8753 6.25815 11.6939 5.74954 11.3541C5.24093 11.0143 4.84451 10.5313 4.61042 9.9662C4.37633 9.40108 4.31509 8.77924 4.43444 8.17931C4.55379 7.57939 4.84837 7.02833 5.28092 6.59583L8.47217 3.40583C9.05217 2.82584 9.83881 2.5 10.659 2.5C11.4793 2.5 12.2659 2.82584 12.8459 3.40583C13.4259 3.98583 13.7518 4.77247 13.7518 5.59271C13.7518 6.41295 13.4259 7.19959 12.8459 7.77958L12.5003 8.12458L11.6159 7.24146L11.964 6.89333C12.3084 6.54738 12.5014 6.07903 12.501 5.59094C12.5005 5.10286 12.3065 4.63487 11.9615 4.28958C11.6104 3.95451 11.1438 3.76756 10.6584 3.76756C10.1731 3.76756 9.7064 3.95451 9.3553 4.28958L6.1653 7.47958C5.99405 7.65064 5.85819 7.85378 5.7655 8.07738C5.67281 8.30098 5.6251 8.54066 5.6251 8.78271C5.6251 9.02476 5.67281 9.26444 5.7655 9.48804C5.85819 9.71164 5.99405 9.91477 6.1653 10.0858C6.5164 10.4209 6.98309 10.6079 7.46842 10.6079C7.95376 10.6079 8.42044 10.4209 8.77155 10.0858L9.6553 10.9696C9.36865 11.2576 9.02772 11.486 8.65224 11.6415C8.27676 11.7969 7.87418 11.8764 7.4678 11.8752Z" fill="#185DDC"/>
<path d="M12.4678 10.6252C11.8561 10.6253 11.2582 10.4439 10.7495 10.1041C10.2409 9.76432 9.84451 9.28132 9.61042 8.7162C9.37633 8.15108 9.31509 7.52924 9.43444 6.92931C9.55379 6.32939 9.84837 5.77833 10.2809 5.34583L10.6265 5.00083L11.5103 5.88521L11.1653 6.23021C10.8198 6.57574 10.6257 7.04438 10.6257 7.53302C10.6257 8.02167 10.8198 8.4903 11.1653 8.83583C11.5164 9.17091 11.9831 9.35786 12.4684 9.35786C12.9538 9.35786 13.4204 9.17091 13.7715 8.83583L16.9622 5.64521C17.307 5.29946 17.5007 4.83105 17.5007 4.34271C17.5007 3.85437 17.307 3.38596 16.9622 3.04021C16.6111 2.70513 16.1444 2.51818 15.659 2.51818C15.1737 2.51818 14.707 2.70513 14.3559 3.04021L13.4722 2.15583C14.0522 1.57584 14.8388 1.25 15.659 1.25C16.4793 1.25 17.2659 1.57584 17.8459 2.15583C18.4259 2.73583 18.7518 3.52247 18.7518 4.34271C18.7518 5.16295 18.4259 5.94959 17.8459 6.52958L14.6559 9.71896C14.3693 10.0071 14.0284 10.2355 13.6529 10.3911C13.2774 10.5466 12.8748 10.6262 12.4684 10.6252H12.4678Z" fill="#185DDC"/>
<path d="M15 18.75H2.5C2.16858 18.7497 1.85083 18.6179 1.61648 18.3835C1.38213 18.1492 1.25033 17.8314 1.25 17.5V5C1.25033 4.66858 1.38213 4.35083 1.61648 4.11648C1.85083 3.88213 2.16858 3.75033 2.5 3.75H5V5H2.5V17.5H15V11.25H16.25V17.5C16.2497 17.8314 16.1179 18.1492 15.8835 18.3835C15.6492 18.6179 15.3314 18.7497 15 18.75Z" fill="#185DDC"/>
</svg>
