<svg width="14" height="16" viewBox="0 0 14 16" fill="none" xmlns="http://www.w3.org/2000/svg">
<path fill-rule="evenodd" clip-rule="evenodd" d="M8.48155 0.500244C8.51376 0.500244 8.54535 0.502956 8.57608 0.508164L8.67873 0.508794C8.83173 0.508794 8.97798 0.571044 9.08448 0.681294L12.8832 4.63904C12.9837 4.74329 13.0401 4.88354 13.0401 5.02829V11.9028C13.0535 13.7845 11.588 15.322 9.70323 15.3985L3.68898 15.3993H3.60723C1.76977 15.3578 0.296098 13.8717 0.251203 12.0522L0.250977 3.86804C0.294477 2.00729 1.83123 0.508794 3.67848 0.508794L8.38702 0.508164C8.41776 0.502956 8.44934 0.500244 8.48155 0.500244ZM7.91898 1.63349L3.67998 1.63379C2.43723 1.63379 1.40523 2.64029 1.37598 3.88154V11.9028C1.34823 13.1875 2.36073 14.2458 3.63273 14.2743H9.68073C10.9325 14.2225 11.924 13.1823 11.915 11.9073L11.915 5.73749L10.4076 5.73824C9.03505 5.73449 7.91905 4.61549 7.91905 3.24449L7.91898 1.63349ZM8.34145 9.95632C8.65195 9.95632 8.90395 10.2083 8.90395 10.5188C8.90395 10.8293 8.65195 11.0813 8.34145 11.0813H4.29145C3.98095 11.0813 3.72895 10.8293 3.72895 10.5188C3.72895 10.2083 3.98095 9.95632 4.29145 9.95632H8.34145ZM6.80778 7.14232C7.11828 7.14232 7.37028 7.39432 7.37028 7.70482C7.37028 8.01532 7.11828 8.26732 6.80778 8.26732H4.29078C3.98028 8.26732 3.72828 8.01532 3.72828 7.70482C3.72828 7.39432 3.98028 7.14232 4.29078 7.14232H6.80778ZM9.04398 2.26424L9.04405 3.24449C9.04405 3.99749 9.6568 4.61099 10.4091 4.61324L11.2985 4.61249L9.04398 2.26424Z" fill="#1B2559"/>
</svg>
