<svg width="17" height="17" viewBox="0 0 17 17" fill="none" xmlns="http://www.w3.org/2000/svg">
<path d="M8.5 1.0625C4.39277 1.0625 1.0625 4.39277 1.0625 8.5C1.0625 12.6072 4.39277 15.9375 8.5 15.9375C12.6072 15.9375 15.9375 12.6072 15.9375 8.5C15.9375 4.39277 12.6072 1.0625 8.5 1.0625ZM8.5 14.6758C5.09004 14.6758 2.32422 11.91 2.32422 8.5C2.32422 5.09004 5.09004 2.32422 8.5 2.32422C11.91 2.32422 14.6758 5.09004 14.6758 8.5C14.6758 11.91 11.91 14.6758 8.5 14.6758ZM9.29189 8.11484L8.87021 8.01689V5.7873C9.50107 5.87363 9.89121 6.26875 9.95762 6.75352C9.96592 6.81992 10.0224 6.86807 10.0888 6.86807H10.8342C10.9122 6.86807 10.9736 6.8 10.967 6.72197C10.8657 5.6877 10.0141 5.02363 8.87686 4.90908V4.36621C8.87686 4.29316 8.81709 4.2334 8.74404 4.2334H8.27754C8.20449 4.2334 8.14473 4.29316 8.14473 4.36621V4.91406C6.96934 5.02861 6.04961 5.67773 6.04961 6.88965C6.04961 8.01191 6.87637 8.55313 7.74463 8.76064L8.15469 8.86523V11.2343C7.4209 11.1363 7.00918 10.7445 6.92451 10.2166C6.91455 10.1535 6.85811 10.107 6.79336 10.107H6.02637C5.94834 10.107 5.88691 10.1734 5.89355 10.2515C5.96826 11.1646 6.66055 12.0046 8.13809 12.1125V12.6338C8.13809 12.7068 8.19785 12.7666 8.2709 12.7666H8.74238C8.81543 12.7666 8.8752 12.7068 8.8752 12.6321L8.87188 12.1059C10.1718 11.9913 11.1015 11.2957 11.1015 10.0473C11.0998 8.89512 10.3677 8.38047 9.29189 8.11484ZM8.15303 7.8459C8.06006 7.81934 7.98203 7.79443 7.904 7.76289C7.34287 7.56035 7.08223 7.2333 7.08223 6.81162C7.08223 6.20898 7.53877 5.86533 8.15303 5.7873V7.8459ZM8.87021 11.2393V9.01963C8.92168 9.03457 8.96816 9.04619 9.01631 9.05615C9.80156 9.29521 10.0655 9.62725 10.0655 10.1369C10.0655 10.786 9.57744 11.1762 8.87021 11.2393Z" fill="#525F7F"/>
</svg>
