<svg width="16" height="16" viewBox="0 0 16 16" fill="none" xmlns="http://www.w3.org/2000/svg">
<path fill-rule="evenodd" clip-rule="evenodd" d="M14.9545 10.0514C15.2643 10.0746 15.496 10.3454 15.4728 10.6551L15.3303 12.5369C15.2125 14.0894 13.9023 15.3051 12.346 15.3051H3.64603C2.08978 15.3051 0.779525 14.0894 0.661775 12.5369L0.519275 10.6551C0.496025 10.3454 0.728525 10.0746 1.03828 10.0514C1.34952 10.0401 1.61802 10.2599 1.64202 10.5704L1.78377 12.4514C1.85728 13.4204 2.67478 14.1801 3.64603 14.1801H12.346C13.3173 14.1801 14.1355 13.4204 14.2083 12.4514L14.3508 10.5704C14.3748 10.2599 14.65 10.0394 14.9545 10.0514ZM8.96367 0.500061C10.0909 0.500061 11.0247 1.34476 11.1654 2.43433L12.6425 2.43499C14.2145 2.43499 15.4925 3.71674 15.4925 5.29324V7.87249C15.4925 8.07274 15.386 8.25724 15.2142 8.35774C13.363 9.44186 11.0179 10.0742 8.5584 10.1585L8.55867 11.5075C8.55867 11.818 8.30667 12.07 7.99617 12.07C7.68567 12.07 7.43367 11.818 7.43367 11.5075L7.43319 10.1587C4.97614 10.0751 2.63087 9.44267 0.77825 8.35774C0.60575 8.25724 0.5 8.07274 0.5 7.87249V5.28574C0.5 3.71374 1.78175 2.43499 3.3575 2.43499L4.82698 2.43433C4.96763 1.34476 5.90147 0.500061 7.02868 0.500061H8.96367ZM12.6425 3.55999H3.3575C2.402 3.55999 1.625 4.33399 1.625 5.28574V7.54474C3.40528 8.51205 5.64967 9.04222 7.98575 9.04323L7.99617 9.04226L8.0045 9.04256L8.36161 9.03884C10.571 8.98621 12.6786 8.46203 14.3675 7.54474V5.29324C14.3675 4.33699 13.5943 3.55999 12.6425 3.55999ZM8.96367 1.62506H7.02868C6.52367 1.62506 6.09737 1.96877 5.97144 2.43452H10.0209C9.89498 1.96877 9.46868 1.62506 8.96367 1.62506Z" fill="#1B2559"/>
</svg>
