<svg width="15" height="15" viewBox="0 0 15 15" fill="none" xmlns="http://www.w3.org/2000/svg">
<path d="M14.25 3.0303L11.0875 0.395L10.2006 1.43956L13.3631 4.07487L14.25 3.0303ZM4.5425 1.43956L3.6625 0.395L0.5 3.02348L1.38687 4.06804L4.5425 1.43956ZM7.71875 4.58691H6.6875V8.68323L9.95312 10.629L10.4688 9.78924L7.71875 8.17119V4.58691ZM7.375 1.85602C3.95813 1.85602 1.1875 4.60739 1.1875 8.00051C1.1875 11.3936 3.95125 14.145 7.375 14.145C10.7919 14.145 13.5625 11.3936 13.5625 8.00051C13.5625 4.60739 10.7919 1.85602 7.375 1.85602ZM7.375 12.7796C4.71438 12.7796 2.5625 10.6426 2.5625 8.00051C2.5625 5.35838 4.71438 3.22147 7.375 3.22147C10.0356 3.22147 12.1875 5.35838 12.1875 8.00051C12.1875 10.6426 10.0356 12.7796 7.375 12.7796Z" fill="white"/>
</svg>



