<svg width="16" height="17" viewBox="0 0 16 17" fill="none" xmlns="http://www.w3.org/2000/svg">
<path fill-rule="evenodd" clip-rule="evenodd" d="M10.1728 1.13157C10.4833 1.13157 10.7353 1.38358 10.7353 1.69407C10.7353 2.00458 10.4833 2.25657 10.1728 2.25657H4.72175C2.84075 2.25657 1.625 3.54958 1.625 5.55208V11.6136C1.625 13.6423 2.8115 14.9023 4.72175 14.9023H11.1748C13.0558 14.9023 14.2715 13.6116 14.2715 11.6136V6.33432C14.2715 6.02383 14.5235 5.77182 14.834 5.77182C15.1445 5.77182 15.3965 6.02383 15.3965 6.33432V11.6136C15.3965 14.2536 13.7 16.0273 11.1748 16.0273H4.72175C2.1965 16.0273 0.5 14.2536 0.5 11.6136V5.55208C0.5 2.90833 2.1965 1.13157 4.72175 1.13157H10.1728ZM11.7593 6.25392C12.0053 6.44442 12.0503 6.79767 11.8598 7.04292L9.6623 9.87792C9.5708 9.99642 9.4358 10.0737 9.2873 10.0917C9.1373 10.1119 8.9888 10.0684 8.8703 9.97618L6.7568 8.31568L4.85855 10.7824C4.74755 10.9264 4.58105 11.0022 4.4123 11.0022C4.2923 11.0022 4.17155 10.9639 4.06955 10.8859C3.82355 10.6962 3.77705 10.3429 3.9668 10.0969L6.21155 7.17943C6.30305 7.06017 6.4388 6.98293 6.5873 6.96418C6.7388 6.94468 6.8873 6.98668 7.00505 7.08043L9.12005 8.74168L10.9703 6.35442C11.1608 6.10768 11.5133 6.06192 11.7593 6.25392ZM13.9756 0.5C15.0811 0.5 15.9796 1.3985 15.9796 2.504C15.9796 3.6095 15.0811 4.50875 13.9756 4.50875C12.8708 4.50875 11.9716 3.6095 11.9716 2.504C11.9716 1.3985 12.8708 0.5 13.9756 0.5ZM13.9756 1.625C13.4911 1.625 13.0966 2.01875 13.0966 2.504C13.0966 2.9885 13.4911 3.38375 13.9756 3.38375C14.4601 3.38375 14.8546 2.9885 14.8546 2.504C14.8546 2.01875 14.4601 1.625 13.9756 1.625Z" fill="#FF457A"/>
</svg>
