<svg width="16" height="15" viewBox="0 0 16 15" fill="none" xmlns="http://www.w3.org/2000/svg">
<path fill-rule="evenodd" clip-rule="evenodd" d="M6.19376 9.46775C8.63801 9.46775 11.8878 9.743 11.8878 12.1242C11.8878 14.6326 8.10109 14.7831 6.47681 14.7922L5.88708 14.7922C4.15521 14.7832 0.499756 14.6335 0.499756 12.1392C0.499756 9.62804 4.28642 9.47737 5.9107 9.46833L6.10585 9.46777C6.13626 9.46775 6.16559 9.46775 6.19376 9.46775ZM6.19376 10.5927C4.10951 10.5927 1.62476 10.8605 1.62476 12.1392C1.62476 13.1532 3.16226 13.6677 6.19376 13.6677C9.22526 13.6677 10.7628 13.148 10.7628 12.1242C10.7628 11.108 9.22526 10.5927 6.19376 10.5927ZM13.0298 9.11742C15.0593 9.42118 15.4845 10.3609 15.4845 11.0952C15.4845 11.6419 15.2483 12.3822 14.121 12.8089C14.0558 12.8337 13.9883 12.8457 13.9215 12.8457C13.6943 12.8457 13.4805 12.7069 13.3958 12.4827C13.2855 12.1924 13.4318 11.8669 13.722 11.7574C14.3595 11.5159 14.3595 11.2212 14.3595 11.0952C14.3595 10.6699 13.8563 10.3789 12.864 10.2312C12.5565 10.1847 12.3443 9.89817 12.39 9.59142C12.4365 9.28393 12.7283 9.07767 13.0298 9.11742ZM6.19376 0.5C8.31701 0.5 10.045 2.228 10.045 4.35125C10.0495 5.37425 9.65276 6.34025 8.92976 7.06775C8.20826 7.796 7.24451 8.19875 6.21926 8.2025H6.19376C4.06976 8.2025 2.34176 6.4745 2.34176 4.35125C2.34176 2.228 4.06976 0.5 6.19376 0.5ZM11.5095 1.34285C12.9832 1.58435 14.0527 2.8451 14.0527 4.33985C14.0497 5.8436 12.927 7.1351 11.4405 7.3436C11.4142 7.34735 11.388 7.34885 11.3617 7.34885C11.0857 7.34885 10.845 7.1456 10.8052 6.86435C10.7625 6.55685 10.9762 6.27185 11.2837 6.2291C12.2197 6.09785 12.9262 5.2856 12.9277 4.3391C12.9277 3.3986 12.2542 2.6051 11.328 2.4536C11.0212 2.4026 10.8135 2.11385 10.8637 1.8071C10.914 1.50035 11.2042 1.2941 11.5095 1.34285ZM6.19376 1.625C4.69001 1.625 3.46676 2.84825 3.46676 4.35125C3.46676 5.85425 4.69001 7.0775 6.19376 7.0775H6.21701C6.94001 7.0745 7.62101 6.79025 8.13176 6.275C8.64326 5.76125 8.92301 5.078 8.92003 4.3535C8.92003 2.84825 7.69676 1.625 6.19376 1.625Z" fill="#3434FF"/>
</svg>
