<svg width="16" height="17" viewBox="0 0 16 17" fill="none" xmlns="http://www.w3.org/2000/svg">
<path fill-rule="evenodd" clip-rule="evenodd" d="M10.1726 1.13157C10.4831 1.13157 10.7351 1.38358 10.7351 1.69407C10.7351 2.00458 10.4831 2.25657 10.1726 2.25657H4.72163C2.84063 2.25657 1.62488 3.54958 1.62488 5.55208V11.6136C1.62488 13.6423 2.81138 14.9023 4.72163 14.9023H11.1746C13.0556 14.9023 14.2714 13.6116 14.2714 11.6136V6.33432C14.2714 6.02383 14.5234 5.77182 14.8339 5.77182C15.1444 5.77182 15.3964 6.02383 15.3964 6.33432V11.6136C15.3964 14.2536 13.6999 16.0273 11.1746 16.0273H4.72163C2.19638 16.0273 0.499878 14.2536 0.499878 11.6136V5.55208C0.499878 2.90833 2.19638 1.13157 4.72163 1.13157H10.1726ZM11.7592 6.25392C12.0052 6.44442 12.0502 6.79767 11.8597 7.04292L9.66218 9.87792C9.57068 9.99642 9.43568 10.0737 9.28718 10.0917C9.13718 10.1119 8.98868 10.0684 8.87018 9.97618L6.75668 8.31568L4.85843 10.7824C4.74743 10.9264 4.58093 11.0022 4.41218 11.0022C4.29218 11.0022 4.17143 10.9639 4.06943 10.8859C3.82343 10.6962 3.77693 10.3429 3.96668 10.0969L6.21143 7.17943C6.30293 7.06017 6.43868 6.98293 6.58718 6.96418C6.73868 6.94468 6.88718 6.98668 7.00493 7.08043L9.11993 8.74168L10.9702 6.35442C11.1607 6.10768 11.5132 6.06192 11.7592 6.25392ZM13.9754 0.5C15.0809 0.5 15.9794 1.3985 15.9794 2.504C15.9794 3.6095 15.0809 4.50875 13.9754 4.50875C12.8707 4.50875 11.9714 3.6095 11.9714 2.504C11.9714 1.3985 12.8707 0.5 13.9754 0.5ZM13.9754 1.625C13.4909 1.625 13.0964 2.01875 13.0964 2.504C13.0964 2.9885 13.4909 3.38375 13.9754 3.38375C14.4599 3.38375 14.8544 2.9885 14.8544 2.504C14.8544 2.01875 14.4599 1.625 13.9754 1.625Z" fill="#3EA54E"/>
</svg>
