<svg width="16" height="16" viewBox="0 0 16 16" fill="none" xmlns="http://www.w3.org/2000/svg">
<path fill-rule="evenodd" clip-rule="evenodd" d="M7.6875 0C11.9265 0 15.375 3.4485 15.375 7.6875C15.375 11.9265 11.9265 15.375 7.6875 15.375C3.4485 15.375 0 11.9265 0 7.6875C0 3.4485 3.4485 0 7.6875 0ZM7.6875 1.125C4.06875 1.125 1.125 4.06875 1.125 7.6875C1.125 11.3062 4.06875 14.25 7.6875 14.25C11.3062 14.25 14.25 11.3062 14.25 7.6875C14.25 4.06875 11.3062 1.125 7.6875 1.125ZM7.3731 5.07105C7.7631 5.2338 10.4998 6.63555 10.4998 7.68405C10.4998 8.66655 8.03685 10.0406 7.4076 10.3031C7.16235 10.4051 6.8826 10.501 6.62085 10.501C6.41835 10.501 6.22635 10.4433 6.0696 10.2873C5.94885 10.168 5.62635 9.8493 5.62485 7.75005C5.6241 5.52105 5.95935 5.18955 6.0696 5.0793C6.46185 4.6908 7.10085 4.95705 7.3731 5.07105ZM6.85035 6.0648C6.7176 6.81555 6.71535 8.6088 6.8481 9.3213C7.5066 9.0888 8.9331 8.1513 9.3171 7.68705C8.9346 7.2363 7.5261 6.3183 6.85035 6.0648Z" fill="#FFA61B"/>
</svg>
