<svg width="18" height="18" viewBox="0 0 18 18" fill="none" xmlns="http://www.w3.org/2000/svg">
<path d="M16.2554 13.915C15.7732 13.4852 15.3511 12.9924 15.0004 12.45C14.6175 11.7013 14.388 10.8836 14.3254 10.045V7.57501C14.3287 6.25782 13.8509 4.98475 12.9818 3.995C12.1126 3.00525 10.912 2.36694 9.60539 2.20001V1.55501C9.60539 1.37798 9.53506 1.2082 9.40988 1.08302C9.2847 0.957838 9.11492 0.887512 8.93789 0.887512C8.76086 0.887512 8.59108 0.957838 8.4659 1.08302C8.34072 1.2082 8.27039 1.37798 8.27039 1.55501V2.21001C6.97552 2.38898 5.78938 3.03114 4.93165 4.01757C4.07393 5.00399 3.60276 6.26783 3.60539 7.57501V10.045C3.54277 10.8836 3.31328 11.7013 2.93039 12.45C2.58583 12.9912 2.17049 13.4839 1.69539 13.915C1.64206 13.9619 1.59931 14.0195 1.57 14.0842C1.54069 14.1489 1.52548 14.219 1.52539 14.29V14.97C1.52539 15.1026 1.57807 15.2298 1.67184 15.3236C1.76561 15.4173 1.89278 15.47 2.02539 15.47H15.9254C16.058 15.47 16.1852 15.4173 16.2789 15.3236C16.3727 15.2298 16.4254 15.1026 16.4254 14.97V14.29C16.4253 14.219 16.4101 14.1489 16.3808 14.0842C16.3515 14.0195 16.3087 13.9619 16.2554 13.915ZM2.56539 14.47C3.0306 14.0206 3.44019 13.517 3.78539 12.97C4.2677 12.0658 4.54911 11.068 4.61039 10.045V7.57501C4.59056 6.98903 4.68885 6.40505 4.89941 5.85785C5.10997 5.31064 5.4285 4.8114 5.83601 4.38986C6.24353 3.96832 6.73171 3.6331 7.27148 3.40415C7.81125 3.1752 8.39157 3.05722 8.97789 3.05722C9.56421 3.05722 10.1445 3.1752 10.6843 3.40415C11.2241 3.6331 11.7122 3.96832 12.1198 4.38986C12.5273 4.8114 12.8458 5.31064 13.0564 5.85785C13.2669 6.40505 13.3652 6.98903 13.3454 7.57501V10.045C13.4067 11.068 13.6881 12.0658 14.1704 12.97C14.5156 13.517 14.9252 14.0206 15.3904 14.47H2.56539Z" fill="#1B2559"/>
<path d="M9.00016 17.14C9.31512 17.1327 9.61738 17.0143 9.85346 16.8057C10.0895 16.5971 10.2442 16.3117 10.2902 16H7.66016C7.70739 16.3202 7.86932 16.6123 8.11581 16.822C8.3623 17.0317 8.67657 17.1447 9.00016 17.14Z" fill="#1B2559"/>
</svg>
