<svg width="10" height="13" viewBox="0 0 10 13" fill="none" xmlns="http://www.w3.org/2000/svg">
<path d="M3.23854 0.550271L2.70154 0.712271C2.22259 0.856546 1.79482 1.13467 1.46862 1.51389C1.14242 1.8931 0.931359 2.35763 0.860292 2.85277C0.637542 4.40377 1.13554 6.21727 2.33629 8.29702C3.53404 10.3715 4.85254 11.708 6.30379 12.293C6.77009 12.481 7.28054 12.531 7.77447 12.4373C8.26839 12.3436 8.72501 12.11 9.09004 11.7643L9.49729 11.3788C9.76114 11.1289 9.92528 10.7916 9.95921 10.4298C9.99315 10.068 9.89457 9.70614 9.68179 9.41152L8.66479 8.00152C8.52729 7.81117 8.33368 7.66861 8.11109 7.59383C7.88849 7.51904 7.64808 7.51579 7.42354 7.58452L5.88529 8.05477L5.84554 8.06227C5.67604 8.08702 5.28529 7.72027 4.79779 6.87577C4.28779 5.99227 4.18129 5.47552 4.32229 5.34202L5.10529 4.61227C5.39122 4.34553 5.58649 3.99597 5.66369 3.61263C5.7409 3.22929 5.69617 2.8314 5.53579 2.47477L5.04079 1.37152C4.89146 1.0392 4.62629 0.772586 4.29478 0.621461C3.96327 0.470336 3.58809 0.445031 3.23929 0.550271H3.23854ZM4.35604 1.67902L4.85179 2.78227C4.94819 2.99619 4.97515 3.23495 4.92887 3.46498C4.8826 3.69501 4.76542 3.90477 4.59379 4.06477L3.80929 4.79527C3.30679 5.27002 3.47329 6.08227 4.14754 7.25077C4.78279 8.35027 5.36179 8.89327 5.98354 8.79877L6.07654 8.77927L7.64254 8.30152C7.7174 8.27853 7.79757 8.27954 7.87182 8.30443C7.94606 8.32931 8.01066 8.37681 8.05654 8.44027L9.07354 9.85027C9.18003 9.99761 9.22939 10.1786 9.21242 10.3596C9.19545 10.5406 9.11331 10.7093 8.98129 10.8343L8.57404 11.2198C8.3133 11.4665 7.9872 11.6333 7.63448 11.7001C7.28176 11.767 6.91726 11.7312 6.58429 11.597C5.31079 11.084 4.10704 9.86377 2.98579 7.92202C1.86229 5.97577 1.40779 4.32052 1.60279 2.95927C1.65352 2.6055 1.8043 2.2736 2.03737 2.00266C2.27043 1.73173 2.57608 1.53305 2.91829 1.43002L3.45604 1.26802C3.63038 1.21563 3.81783 1.22844 3.98343 1.30406C4.14902 1.37969 4.28146 1.51296 4.35604 1.67902Z" fill="#3A3B41"/>
</svg>
