 <svg width="80" height="80" viewBox="0 0 80 80" fill="none" xmlns="http://www.w3.org/2000/svg">
<path d="M62.4008 60.7999H17.6008C14.8808 60.7999 12.8008 58.7199 12.8008 56V24C12.8008 21.28 14.8808 19.2 17.6008 19.2H62.4008C65.1208 19.2 67.2008 21.28 67.2008 24V56C67.2008 58.7199 65.1208 60.7999 62.4008 60.7999ZM17.6008 22.4C16.6408 22.4 16.0008 23.04 16.0008 24V56C16.0008 56.9599 16.6408 57.5999 17.6008 57.5999H62.4008C63.3608 57.5999 64.0008 56.9599 64.0008 56V24C64.0008 23.04 63.3608 22.4 62.4008 22.4H17.6008Z" fill="#CDCDCD"/>
<path d="M47.9996 38.4001C44.4796 38.4001 41.5996 35.5201 41.5996 32.0001C41.5996 28.4801 44.4796 25.6001 47.9996 25.6001C51.5196 25.6001 54.3996 28.4801 54.3996 32.0001C54.3996 35.5201 51.5196 38.4001 47.9996 38.4001ZM47.9996 28.8001C46.2396 28.8001 44.7996 30.2401 44.7996 32.0001C44.7996 33.7601 46.2396 35.2001 47.9996 35.2001C49.7596 35.2001 51.1996 33.7601 51.1996 32.0001C51.1996 30.2401 49.7596 28.8001 47.9996 28.8001Z" fill="#CDCDCD"/>
<path d="M56.4813 60.3201L30.4013 35.8401L15.5212 49.6001L13.2812 47.3601L30.4013 31.3601L58.7213 58.0801L56.4813 60.3201Z" fill="#CDCDCD"/>
<path d="M64.6387 52.3199L55.9987 45.2799L48.7987 51.1999L46.7188 48.6399L55.9987 41.1199L66.5587 49.7599L64.6387 52.3199Z" fill="#CDCDCD"/>
</svg>