<svg width="21" height="22" viewBox="0 0 21 22" fill="none" xmlns="http://www.w3.org/2000/svg">
<path d="M18.375 5.75H19.6875V11H18.375V5.75Z" fill="#1B2559"/>
<path d="M15.0938 3.78125H16.4062V11H15.0938V3.78125Z" fill="#1B2559"/>
<path d="M11.8125 7.0625H13.125V11H11.8125V7.0625Z" fill="#1B2559"/>
<path d="M10.5 20.1875H9.1875V16.25C9.18698 15.728 8.97939 15.2276 8.61029 14.8585C8.24119 14.4894 7.74074 14.2818 7.21875 14.2812H4.59375C4.07176 14.2818 3.57131 14.4894 3.20221 14.8585C2.83311 15.2276 2.62552 15.728 2.625 16.25V20.1875H1.3125V16.25C1.31354 15.3801 1.65958 14.5461 2.27471 13.931C2.88983 13.3158 3.72383 12.9698 4.59375 12.9688H7.21875C8.08867 12.9698 8.92267 13.3158 9.53779 13.931C10.1529 14.5461 10.499 15.3801 10.5 16.25V20.1875Z" fill="#1B2559"/>
<path d="M5.90625 6.40625C6.29563 6.40625 6.67627 6.52172 7.00003 6.73804C7.32379 6.95437 7.57613 7.26185 7.72514 7.62159C7.87415 7.98133 7.91314 8.37718 7.83717 8.75908C7.76121 9.14099 7.5737 9.49178 7.29837 9.76712C7.02303 10.0425 6.67224 10.23 6.29034 10.3059C5.90844 10.3819 5.51259 10.3429 5.15284 10.1939C4.7931 10.0449 4.48562 9.79254 4.2693 9.46878C4.05297 9.14502 3.9375 8.76438 3.9375 8.375C3.9375 7.85286 4.14492 7.3521 4.51414 6.98288C4.88335 6.61367 5.38411 6.40625 5.90625 6.40625ZM5.90625 5.09375C5.25728 5.09375 4.62289 5.28619 4.08329 5.64674C3.54369 6.00729 3.12312 6.51975 2.87477 7.11932C2.62642 7.71889 2.56144 8.37864 2.68805 9.01514C2.81466 9.65164 3.12717 10.2363 3.58606 10.6952C4.04495 11.1541 4.62961 11.4666 5.26611 11.5932C5.90261 11.7198 6.56236 11.6548 7.16193 11.4065C7.7615 11.1581 8.27396 10.7376 8.63451 10.198C8.99506 9.65837 9.1875 9.02397 9.1875 8.375C9.1875 7.9441 9.10263 7.51742 8.93773 7.11932C8.77283 6.72122 8.53114 6.3595 8.22645 6.05481C7.92175 5.75011 7.56003 5.50842 7.16193 5.34352C6.76383 5.17862 6.33715 5.09375 5.90625 5.09375Z" fill="#1B2559"/>
</svg>
