<svg width="17" height="17" viewBox="0 0 17 17" fill="none" xmlns="http://www.w3.org/2000/svg">
<path d="M13.2812 2.14062C12.8748 2.14062 12.4753 2.3 12.1688 2.606L6.90625 7.85156L6.78937 7.96844L6.7575 8.13472L6.39094 9.99409L6.22625 10.774L7.00559 10.6093L8.86497 10.2427L9.03125 10.2108L9.14812 10.094L14.3937 4.83141C14.6134 4.61094 14.7629 4.33039 14.8234 4.0251C14.884 3.7198 14.8528 3.40342 14.7339 3.11581C14.6149 2.8282 14.4135 2.58223 14.155 2.40888C13.8965 2.23553 13.5925 2.14256 13.2812 2.14169V2.14062ZM13.2812 3.17125C13.4061 3.17125 13.5277 3.235 13.6467 3.35347C13.8837 3.59041 13.8837 3.84647 13.6467 4.08394L8.5 9.22962L7.58625 9.41237L7.76953 8.49862L12.9163 3.35187C13.0347 3.23341 13.1564 3.16966 13.2812 3.16966V3.17125ZM2.125 4.24969V14.8747H12.75V7.86856L11.6875 8.93106V13.8122H3.1875V5.31219H8.06862L9.13112 4.24969H2.125Z" fill="#7C8AB5"/>
</svg>
