<svg width="14" height="14" viewBox="0 0 14 14" fill="none" xmlns="http://www.w3.org/2000/svg">
<path fill-rule="evenodd" clip-rule="evenodd" d="M1.77527 6.81022C1.77527 9.65129 3.83513 11.587 6.14887 11.9874C6.21181 11.9983 6.27198 12.0215 6.32595 12.0557C6.37992 12.0899 6.42664 12.1343 6.46343 12.1865C6.50022 12.2388 6.52637 12.2977 6.54037 12.36C6.55438 12.4223 6.55598 12.4868 6.54507 12.5498C6.53416 12.6127 6.51096 12.6729 6.4768 12.7268C6.44263 12.7808 6.39817 12.8275 6.34596 12.8643C6.29374 12.9011 6.23479 12.9273 6.17246 12.9413C6.11014 12.9553 6.04567 12.9569 5.98273 12.946C3.2658 12.4756 0.802734 10.1852 0.802734 6.81022C0.802734 5.37569 1.45513 4.24822 2.21673 3.39142C2.76273 2.77729 3.38713 2.27796 3.88927 1.89622H2.36233C2.23857 1.89622 2.11987 1.84706 2.03235 1.75954C1.94483 1.67202 1.89567 1.55332 1.89567 1.42956C1.89567 1.30579 1.94483 1.18709 2.03235 1.09957C2.11987 1.01206 2.23857 0.962891 2.36233 0.962891H5.16233C5.2861 0.962891 5.4048 1.01206 5.49232 1.09957C5.57983 1.18709 5.629 1.30579 5.629 1.42956V4.22956C5.629 4.35332 5.57983 4.47202 5.49232 4.55954C5.4048 4.64706 5.2861 4.69622 5.16233 4.69622C5.03857 4.69622 4.91987 4.64706 4.83235 4.55954C4.74483 4.47202 4.69567 4.35332 4.69567 4.22956V2.50662L4.69473 2.50849C4.16087 2.90982 3.5094 3.40169 2.94473 4.03729C2.2774 4.78769 1.77527 5.69489 1.77527 6.80929V6.81022ZM12.1427 7.18916C12.1427 4.37796 10.1267 2.45436 7.84287 2.02502C7.77921 2.01422 7.71835 1.99085 7.66382 1.95628C7.60929 1.92171 7.5622 1.87662 7.52528 1.82365C7.48836 1.77068 7.46236 1.71089 7.4488 1.64777C7.43523 1.58465 7.43438 1.51945 7.44627 1.456C7.45817 1.39254 7.48259 1.33208 7.5181 1.27816C7.55361 1.22424 7.5995 1.17793 7.6531 1.14193C7.7067 1.10594 7.76693 1.08097 7.83028 1.0685C7.89363 1.05603 7.95882 1.0563 8.02207 1.06929C10.7045 1.57329 13.1153 3.85062 13.1153 7.18916C13.1153 8.62369 12.4629 9.75022 11.7013 10.608C11.1553 11.2221 10.5309 11.7214 10.0287 12.1032H11.5557C11.6794 12.1032 11.7981 12.1523 11.8857 12.2398C11.9732 12.3274 12.0223 12.4461 12.0223 12.5698C12.0223 12.6936 11.9732 12.8123 11.8857 12.8998C11.7981 12.9873 11.6794 13.0365 11.5557 13.0365H8.75567C8.6319 13.0365 8.5132 12.9873 8.42568 12.8998C8.33817 12.8123 8.289 12.6936 8.289 12.5698V9.76982C8.289 9.64606 8.33817 9.52736 8.42568 9.43984C8.5132 9.35232 8.6319 9.30316 8.75567 9.30316C8.87944 9.30316 8.99813 9.35232 9.08565 9.43984C9.17317 9.52736 9.22233 9.64606 9.22233 9.76982V11.4918H9.2242C9.75713 11.0886 10.4095 10.5977 10.9733 9.96116C11.6406 9.21169 12.1427 8.30449 12.1427 7.18916Z" fill="#7C8AB5"/>
</svg>
