<svg width="25" height="22" viewBox="0 0 25 22" fill="none" xmlns="http://www.w3.org/2000/svg">
<path fill-rule="evenodd" clip-rule="evenodd" d="M9.5 2.1L12.9 5.6L13 6V8H12V7H8V3H3V14H7V15H2.5L2 14.5V2.5L2.5 2H9.2L9.5 2.1ZM9 3V6H11.9L9 3Z" fill="#185DDC"/>
<path d="M7.315 13H6.635L6.18 11.815C6.14 11.705 6.07833 11.6283 5.995 11.585C5.91167 11.5417 5.80333 11.52 5.67 11.52H5.025V13H4.385V9.44H5.91C6.31333 9.44 6.62 9.52833 6.83 9.705C7.04 9.88167 7.145 10.135 7.145 10.465C7.145 10.7017 7.08167 10.9033 6.955 11.07C6.83167 11.2333 6.655 11.35 6.425 11.42C6.635 11.4633 6.78667 11.61 6.88 11.86L7.315 13ZM5.82 11.02C6.06333 11.02 6.24333 10.975 6.36 10.885C6.47667 10.795 6.535 10.6583 6.535 10.475C6.535 10.295 6.47667 10.1617 6.36 10.075C6.24667 9.985 6.06667 9.94 5.82 9.94H5.015V11.02H5.82ZM7.89574 9.44H10.2757V9.95H8.52574V10.935H10.1707V11.445H8.52574V12.49H10.2757V13H7.89574V9.44ZM12.4396 13.045C12.0963 13.045 11.7963 12.9717 11.5396 12.825C11.2863 12.675 11.0896 12.4633 10.9496 12.19C10.8129 11.9133 10.7446 11.5883 10.7446 11.215C10.7446 10.845 10.8129 10.5233 10.9496 10.25C11.0863 9.97333 11.2813 9.76167 11.5346 9.615C11.7913 9.46833 12.0929 9.395 12.4396 9.395C12.7863 9.395 13.0863 9.46833 13.3396 9.615C13.5963 9.76167 13.7913 9.97333 13.9246 10.25C14.0613 10.5233 14.1296 10.845 14.1296 11.215C14.1296 11.5883 14.0613 11.9133 13.9246 12.19C13.7879 12.4633 13.5929 12.675 13.3396 12.825C13.0863 12.9717 12.7863 13.045 12.4396 13.045ZM12.4396 12.53C12.7696 12.53 13.0263 12.4167 13.2096 12.19C13.3929 11.9633 13.4846 11.6383 13.4846 11.215C13.4846 10.795 13.3929 10.4733 13.2096 10.25C13.0263 10.0233 12.7696 9.91 12.4396 9.91C12.1096 9.91 11.8529 10.0217 11.6696 10.245C11.4863 10.4683 11.3946 10.7917 11.3946 11.215C11.3946 11.6383 11.4863 11.9633 11.6696 12.19C11.8529 12.4167 12.1096 12.53 12.4396 12.53ZM14.7903 9.44H16.3353C16.7186 9.44 17.0169 9.53333 17.2303 9.72C17.4436 9.90333 17.5503 10.155 17.5503 10.475C17.5503 10.795 17.4419 11.0483 17.2253 11.235C17.0119 11.4217 16.7153 11.515 16.3353 11.515H15.4353V13H14.7903V9.44ZM16.2603 11.015C16.4836 11.015 16.6519 10.97 16.7653 10.88C16.8819 10.7867 16.9403 10.6533 16.9403 10.48C16.9403 10.3033 16.8836 10.17 16.7703 10.08C16.6569 9.98667 16.4869 9.94 16.2603 9.94H15.4353V11.015H16.2603ZM18.1204 9.44H20.5004V9.95H18.7504V10.935H20.3954V11.445H18.7504V12.49H20.5004V13H18.1204V9.44ZM24.094 9.44V13H23.614L21.694 10.505V13H21.094V9.44H21.574L23.489 11.93V9.44H24.094Z" fill="#185DDC"/>
</svg>
