<svg width="25" height="25" viewBox="0 0 24 14" fill="none" xmlns="http://www.w3.org/2000/svg">
<path fill-rule="evenodd" clip-rule="evenodd" d="M16.3063 0.680949C16.394 0.592944 16.4982 0.523122 16.6128 0.475482C16.7275 0.427842 16.8504 0.40332 16.9746 0.40332C17.0987 0.40332 17.2217 0.427842 17.3363 0.475482C17.451 0.523122 17.5552 0.592944 17.6428 0.680949L23.3059 6.35095C23.3938 6.43873 23.4635 6.54301 23.5111 6.65782C23.5587 6.77263 23.5832 6.89571 23.5832 7.02001C23.5832 7.14431 23.5587 7.26739 23.5111 7.38219C23.4635 7.497 23.3938 7.60129 23.3059 7.68907L17.6428 13.3591C17.4656 13.5365 17.2252 13.6362 16.9746 13.6362C16.7239 13.6362 16.4836 13.5365 16.3063 13.3591C16.1291 13.1816 16.0295 12.941 16.0295 12.69C16.0295 12.4391 16.1291 12.1984 16.3063 12.0209L21.3031 7.02001L16.3063 2.01907C16.2184 1.93129 16.1487 1.827 16.1011 1.7122C16.0535 1.59739 16.0291 1.47431 16.0291 1.35001C16.0291 1.22571 16.0535 1.10263 16.1011 0.987821C16.1487 0.873013 16.2184 0.768731 16.3063 0.680949Z" fill="white"/>
<path fill-rule="evenodd" clip-rule="evenodd" d="M0.929199 7.02C0.929199 6.76937 1.02864 6.52901 1.20565 6.35179C1.38265 6.17457 1.62272 6.075 1.87305 6.075H21.6938C21.9441 6.075 22.1842 6.17457 22.3612 6.35179C22.5382 6.52901 22.6377 6.76937 22.6377 7.02C22.6377 7.27063 22.5382 7.511 22.3612 7.68822C22.1842 7.86544 21.9441 7.965 21.6938 7.965H1.87305C1.62272 7.965 1.38265 7.86544 1.20565 7.68822C1.02864 7.511 0.929199 7.27063 0.929199 7.02Z" fill="white"/>
</svg>
