<svg width="16" height="16" viewBox="0 0 16 16" fill="none" xmlns="http://www.w3.org/2000/svg">
<path fill-rule="evenodd" clip-rule="evenodd" d="M7.53883 1.33334C9.1695 1.33334 10.4962 2.66 10.4962 4.29067V4.912C10.4962 5.188 10.2722 5.412 9.99616 5.412C9.72016 5.412 9.49616 5.188 9.49616 4.912V4.29067C9.49616 3.21067 8.61816 2.33334 7.53883 2.33334H4.28883C3.21083 2.33334 2.3335 3.21067 2.3335 4.29067V11.71C2.3335 12.7893 3.21083 13.6667 4.28883 13.6667H7.54616C8.62083 13.6667 9.49616 12.792 9.49616 11.7173V11.0887C9.49616 10.8127 9.72016 10.5887 9.99616 10.5887C10.2722 10.5887 10.4962 10.8127 10.4962 11.0887V11.7173C10.4962 13.344 9.17216 14.6667 7.54616 14.6667H4.28883C2.6595 14.6667 1.3335 13.3407 1.3335 11.71V4.29067C1.3335 2.66 2.6595 1.33334 4.28883 1.33334H7.53883ZM12.9256 5.70267L14.8776 7.646C14.895 7.66328 14.9106 7.68125 14.9248 7.70026L14.8776 7.646C14.9012 7.66929 14.9222 7.69474 14.9404 7.72187C14.9484 7.73417 14.9562 7.74688 14.9633 7.75995C14.9692 7.77016 14.9745 7.78081 14.9795 7.79165C14.9837 7.80122 14.9877 7.81079 14.9915 7.82052C14.9965 7.83319 15.0009 7.84621 15.0048 7.85941C15.0077 7.8698 15.0103 7.88017 15.0127 7.89067C15.0157 7.9034 15.018 7.91621 15.0199 7.92912C15.0209 7.93752 15.0219 7.94631 15.0227 7.95517C15.0242 7.97038 15.0249 7.98516 15.0249 8L15.0215 8.04134L15.0201 8.06782C15.02 8.06895 15.0198 8.07008 15.0197 8.07121L15.0249 8C15.0249 8.03701 15.0208 8.07365 15.0128 8.10928C15.0103 8.11983 15.0077 8.1302 15.0047 8.14044C15.0009 8.15379 14.9965 8.16682 14.9916 8.17964C14.9877 8.18921 14.9837 8.19879 14.9794 8.20821C14.9745 8.21919 14.9692 8.22985 14.9634 8.24031C14.9562 8.25313 14.9484 8.26584 14.9402 8.27816C14.9355 8.28547 14.9304 8.29269 14.925 8.29977C14.9091 8.32066 14.8918 8.3403 14.8731 8.35849L12.9256 10.298C12.8282 10.3953 12.7002 10.444 12.5729 10.444C12.4449 10.444 12.3162 10.3953 12.2189 10.2967C12.0242 10.1007 12.0249 9.78467 12.2202 9.59L13.3135 8.5H6.49736C6.22136 8.5 5.99736 8.276 5.99736 8C5.99736 7.724 6.22136 7.5 6.49736 7.5H13.3148L12.2202 6.41067C12.0249 6.216 12.0236 5.9 12.2189 5.704C12.4136 5.508 12.7296 5.508 12.9256 5.70267Z" fill="#7C8AB5"/>
</svg>
