<svg width="14" height="14" viewBox="0 0 14 14" fill="none" xmlns="http://www.w3.org/2000/svg">
<path d="M13.0198 0.980001C13.4671 1.42734 13.7184 2.03405 13.7184 2.66667C13.7184 3.29929 13.4671 3.906 13.0198 4.35333L5.04108 12.3333C4.85652 12.518 4.62695 12.6513 4.37508 12.72L0.964416 13.65C0.87941 13.6731 0.789819 13.6733 0.704711 13.6506C0.619603 13.6279 0.541999 13.5831 0.479751 13.5208C0.417503 13.4585 0.372821 13.3808 0.350227 13.2957C0.327632 13.2106 0.327928 13.121 0.351083 13.036L1.28108 9.62533C1.34982 9.37347 1.4831 9.1439 1.66775 8.95934L9.64642 0.980001C10.0938 0.532676 10.7005 0.281372 11.3331 0.281372C11.9657 0.281372 12.5724 0.532676 13.0198 0.980001ZM8.99975 3.04L2.37442 9.66667C2.31295 9.72822 2.2686 9.80474 2.24575 9.88867L1.54575 12.4553L4.11242 11.7553C4.19601 11.7319 4.27206 11.6871 4.33308 11.6253L10.9598 5L8.99975 3.04ZM10.3531 1.68667L9.70642 2.33333L11.6664 4.29333L12.3131 3.64667C12.5687 3.38586 12.711 3.03473 12.7092 2.66957C12.7073 2.30441 12.5614 1.95473 12.3032 1.69652C12.045 1.43831 11.6953 1.29243 11.3302 1.29059C10.965 1.28874 10.6139 1.43108 10.3531 1.68667Z" fill="black"/>
</svg>
