<svg width="28" height="24" viewBox="0 0 28 24" fill="none" xmlns="http://www.w3.org/2000/svg">
<path d="M23.719 0.781027C23.3245 0.817963 22.9417 0.935017 22.594 1.12503L17.875 3.62503L11.5 2.06203L11.125 1.96903L10.75 2.15603L8.594 3.40603L7.313 4.15603L8.5 5.06203L11.219 7.12503L7.813 8.93803L4.156 7.28103L3.719 7.09403L3.281 7.31303L1.531 8.25003L0.375 8.87503L1.25 9.81303L6.656 15.625L7.156 16.219L7.844 15.844L13 13.094L11.969 18.781L11.625 20.594L13.344 19.875L15.906 18.781L16.281 18.625L16.438 18.25L20.156 9.21903L25.406 6.40603C26.852 5.62903 27.434 3.78903 26.656 2.34403C26.4682 1.99904 26.2143 1.69446 25.9087 1.44772C25.6031 1.20097 25.2518 1.0169 24.875 0.906027C24.5009 0.792293 24.1088 0.74989 23.719 0.781027ZM23.906 2.78103C24.031 2.77303 24.16 2.77703 24.281 2.81303C24.4703 2.86581 24.6394 2.97435 24.7661 3.12452C24.8929 3.27469 24.9716 3.45954 24.9918 3.65503C25.0121 3.85051 24.9731 4.04757 24.8799 4.22057C24.7866 4.39357 24.6434 4.5345 24.469 4.62503L18.875 7.65603L18.562 7.81203L18.437 8.15603L14.719 17.094L14.281 17.281L15.344 11.375L15.719 9.34403L13.906 10.313L7.594 13.719L3.625 9.40603L3.781 9.31203L7.438 10.938L7.906 11.156L8.312 10.906L23.532 2.87503C23.6483 2.81661 23.7759 2.78452 23.906 2.78103ZM11.375 4.09403L15.219 5.03103L13.156 6.09403L10.906 4.37503L11.375 4.09403ZM1 22V24H27V22H1Z" fill="#1B2559"/>
</svg>
