<svg width="33" height="32" viewBox="0 0 33 32" fill="none" xmlns="http://www.w3.org/2000/svg">
<path fill-rule="evenodd" clip-rule="evenodd" d="M21.2693 1.33331C21.8213 1.33331 22.2693 1.78131 22.2693 2.33331L22.2699 3.46373C24.2167 3.5972 25.8336 4.26404 26.9779 5.41078C28.2273 6.66545 28.8846 8.46945 28.878 10.6334V22.7974C28.878 27.2401 26.0566 30.0001 21.5166 30.0001H10.2393C5.69926 30.0001 2.87793 27.2014 2.87793 22.6961V10.6308C2.87793 6.44037 5.394 3.75057 9.49751 3.46418L9.49833 2.33331C9.49833 1.78131 9.94633 1.33331 10.4983 1.33331C11.0503 1.33331 11.4983 1.78131 11.4983 2.33331L11.4979 3.43865H20.2686L20.2693 2.33331C20.2693 1.78131 20.7173 1.33331 21.2693 1.33331ZM26.8779 13.2053H4.87793V22.6961C4.87793 26.1174 6.78193 28.0001 10.2393 28.0001H21.5166C24.9739 28.0001 26.878 26.1521 26.878 22.7974L26.8779 13.2053ZM21.8129 21.595C22.3649 21.595 22.8129 22.043 22.8129 22.595C22.8129 23.147 22.3649 23.595 21.8129 23.595C21.2609 23.595 20.8075 23.147 20.8075 22.595C20.8075 22.043 21.2489 21.595 21.8009 21.595H21.8129ZM15.8962 21.595C16.4482 21.595 16.8962 22.043 16.8962 22.595C16.8962 23.147 16.4482 23.595 15.8962 23.595C15.3442 23.595 14.8909 23.147 14.8909 22.595C14.8909 22.043 15.3322 21.595 15.8842 21.595H15.8962ZM9.96713 21.595C10.5191 21.595 10.9671 22.043 10.9671 22.595C10.9671 23.147 10.5191 23.595 9.96713 23.595C9.41513 23.595 8.96046 23.147 8.96046 22.595C8.96046 22.043 9.40313 21.595 9.95513 21.595H9.96713ZM21.8129 16.4128C22.3649 16.4128 22.8129 16.8608 22.8129 17.4128C22.8129 17.9648 22.3649 18.4128 21.8129 18.4128C21.2609 18.4128 20.8075 17.9648 20.8075 17.4128C20.8075 16.8608 21.2489 16.4128 21.8009 16.4128H21.8129ZM15.8962 16.4128C16.4482 16.4128 16.8962 16.8608 16.8962 17.4128C16.8962 17.9648 16.4482 18.4128 15.8962 18.4128C15.3442 18.4128 14.8909 17.9648 14.8909 17.4128C14.8909 16.8608 15.3322 16.4128 15.8842 16.4128H15.8962ZM9.96713 16.4128C10.5191 16.4128 10.9671 16.8608 10.9671 17.4128C10.9671 17.9648 10.5191 18.4128 9.96713 18.4128C9.41513 18.4128 8.96046 17.9648 8.96046 17.4128C8.96046 16.8608 9.40313 16.4128 9.95513 16.4128H9.96713ZM20.2686 5.43865H11.4979L11.4983 6.72131C11.4983 7.27331 11.0503 7.72131 10.4983 7.72131C9.94633 7.72131 9.49833 7.27331 9.49833 6.72131L9.49762 5.46892C6.51065 5.71984 4.87793 7.53045 4.87793 10.6308V11.2053H26.8779L26.878 10.6308C26.8833 8.98411 26.4406 7.70411 25.5619 6.82411C24.7906 6.05052 23.6631 5.58851 22.2704 5.46956L22.2693 6.72131C22.2693 7.27331 21.8213 7.72131 21.2693 7.72131C20.7173 7.72131 20.2693 7.27331 20.2693 6.72131L20.2686 5.43865Z" fill="#FFA61B"/>
</svg>
