<svg width="15" height="19" viewBox="0 0 15 19" fill="none" xmlns="http://www.w3.org/2000/svg">
<path d="M4.03451 0.375389L3.21111 0.623789C2.47671 0.845012 1.82081 1.27146 1.32064 1.85293C0.820459 2.4344 0.496833 3.14667 0.387864 3.90589C0.0463137 6.28409 0.809914 9.06479 2.65106 12.2537C4.48761 15.4346 6.50931 17.4839 8.73456 18.3809C9.44955 18.6691 10.2322 18.7459 10.9896 18.6022C11.747 18.4584 12.4471 18.1003 13.0068 17.5702L13.6313 16.9791C14.0358 16.5959 14.2875 16.0788 14.3395 15.524C14.3916 14.9692 14.2404 14.4144 13.9142 13.9626L12.3548 11.8006C12.1439 11.5088 11.8471 11.2902 11.5057 11.1755C11.1644 11.0608 10.7958 11.0559 10.4515 11.1612L8.09286 11.8823L8.03191 11.8938C7.77201 11.9317 7.17286 11.3694 6.42536 10.0745C5.64336 8.71979 5.48006 7.92744 5.69626 7.72274L6.89686 6.60379C7.33529 6.19478 7.6347 5.6588 7.75308 5.07101C7.87146 4.48322 7.80288 3.87312 7.55696 3.32629L6.79796 1.63464C6.56899 1.12508 6.16239 0.716272 5.65408 0.484548C5.14576 0.252823 4.57049 0.214022 4.03566 0.375389H4.03451ZM5.74801 2.10614L6.50816 3.79779C6.65598 4.1258 6.69731 4.49189 6.62636 4.84461C6.5554 5.19733 6.37572 5.51895 6.11256 5.76429L4.90966 6.88439C4.13916 7.61234 4.39446 8.85779 5.42831 10.6495C6.40236 12.3354 7.29016 13.168 8.24351 13.0231L8.38611 12.9932L10.7873 12.2606C10.9021 12.2254 11.025 12.2269 11.1389 12.2651C11.2527 12.3033 11.3518 12.3761 11.4221 12.4734L12.9815 14.6354C13.1448 14.8613 13.2205 15.1388 13.1945 15.4164C13.1684 15.6939 13.0425 15.9526 12.8401 16.1442L12.2156 16.7353C11.8158 17.1137 11.3158 17.3693 10.775 17.4719C10.2341 17.5744 9.67522 17.5195 9.16466 17.3137C7.21196 16.5271 5.36621 14.6561 3.64696 11.6787C1.92426 8.69449 1.22736 6.15644 1.52636 4.06919C1.60415 3.52674 1.83534 3.01783 2.19271 2.60239C2.55008 2.18696 3.01873 1.88231 3.54346 1.72434L4.36801 1.47594C4.63534 1.39561 4.92276 1.41525 5.17667 1.53121C5.43058 1.64716 5.63365 1.85151 5.74801 2.10614V2.10614Z" fill="#3A3B41"/>
</svg>
