<svg width="746" height="479" viewBox="0 0 746 479" fill="none" xmlns="http://www.w3.org/2000/svg">
<path d="M732.315 132.825H581.405C574.023 132.825 567.943 126.871 567.943 119.402V31.7186C567.943 24.3576 573.914 18.2955 581.405 18.2955H732.315C739.698 18.2955 745.777 24.2493 745.777 31.7186V119.402C745.669 126.871 739.698 132.825 732.315 132.825Z" fill="#DEF1E7"/>
<path d="M280.345 127.196H117.384C109.242 127.196 102.619 120.592 102.619 112.474V14.7233C102.619 6.60451 109.242 0.0012207 117.384 0.0012207H280.345C288.488 0.0012207 295.111 6.60451 295.111 14.7233V112.474C295.111 120.592 288.488 127.196 280.345 127.196Z" fill="#F49944" fill-opacity="0.1"/>
<path d="M180.68 282.535H17.8275C9.68492 282.535 3.06226 275.932 3.06226 267.813V169.413C3.06226 161.295 9.68492 154.691 17.8275 154.691H180.68C188.822 154.691 195.445 161.295 195.445 169.413V267.813C195.445 276.04 188.822 282.535 180.68 282.535Z" fill="#DEF1E7"/>
<path fill-rule="evenodd" clip-rule="evenodd" d="M436.249 307.324C435.706 305.051 435.598 302.02 435.598 297.798C429.192 297.907 429.627 307.324 435.815 307.324H436.249ZM435.489 294.443H457.529C457.529 304.835 457.637 309.489 453.837 311.654H439.181C438.095 311.005 437.226 310.139 436.792 308.84H435.815C427.781 308.84 427.347 296.608 435.598 296.175L435.489 294.443Z" fill="#4C4C4C"/>
<path d="M99.7969 353.439V379.852C114.345 386.997 152.995 378.445 152.995 378.445L183.177 373.141L185.132 452.488L185.24 456.71L185.457 467.102L185.674 478.036H229.536C229.427 473.056 223.456 469.267 218.571 467.211C216.725 466.453 214.988 465.912 213.685 465.695C209.234 464.829 208.257 456.927 208.257 456.927V456.71L208.691 452.488L217.268 378.445L234.964 393.708L236.81 390.028L242.89 395.224L242.998 395.332L250.273 401.611L259.175 409.297L287.511 376.064C284.037 372.167 277.632 373.357 271.769 375.739C265.038 378.445 258.958 382.775 258.958 382.775L254.615 377.904L254.29 377.579L248.101 370.759L195.337 311.979L99.7969 353.439Z" fill="#191919"/>
<path d="M248.317 370.759L236.918 390.028L243.106 395.332L254.397 377.579L248.317 370.759Z" fill="#FAA895"/>
<path d="M185.023 452.488L185.131 456.71H208.365L208.799 452.488H185.023Z" fill="#FAA895"/>
<path d="M185.348 467.102L185.565 478.036H229.535C229.427 473.056 223.455 469.267 218.57 467.211C213.901 468.401 207.062 470.783 207.062 474.463H193.708C193.708 474.463 190.776 467.968 185.348 467.102Z" fill="#6B3903"/>
<path d="M251.032 402.152L259.5 409.08L288.053 376.388C275.785 370.11 267.968 387.755 270.683 390.786L261.997 400.745C261.889 400.745 255.157 398.688 251.032 402.152Z" fill="#6B3903"/>
<path d="M147.458 328.217C148.327 327.243 150.281 308.624 149.521 307.433" stroke="black" stroke-width="0.88" stroke-miterlimit="10"/>
<path d="M146.915 477.927C150.813 477.927 153.972 474.777 153.972 470.891C153.972 467.005 150.813 463.855 146.915 463.855C143.018 463.855 139.858 467.005 139.858 470.891C139.858 474.777 143.018 477.927 146.915 477.927Z" fill="#6B3903"/>
<path d="M129.653 477.927C133.55 477.927 136.71 474.777 136.71 470.891C136.71 467.005 133.55 463.855 129.653 463.855C125.755 463.855 122.596 467.005 122.596 470.891C122.596 474.777 125.755 477.927 129.653 477.927Z" fill="#6B3903"/>
<path d="M112.39 477.927C116.288 477.927 119.447 474.777 119.447 470.891C119.447 467.005 116.288 463.855 112.39 463.855C108.493 463.855 105.333 467.005 105.333 470.891C105.333 474.777 108.493 477.927 112.39 477.927Z" fill="#6B3903"/>
<path d="M95.2364 477.927C99.1338 477.927 102.293 474.777 102.293 470.891C102.293 467.005 99.1338 463.855 95.2364 463.855C91.3389 463.855 88.1794 467.005 88.1794 470.891C88.1794 474.777 91.3389 477.927 95.2364 477.927Z" fill="#6B3903"/>
<path d="M165.046 398.147L158.206 402.585H128.024V457.252H151.041V463.963H91.3282V457.252H114.67V401.936H85.2484L79.2771 398.147H165.046Z" fill="#331A02"/>
<path d="M79.2771 398.147H165.046V389.703C165.046 383.858 160.378 379.203 154.515 379.203H89.8082C83.9455 379.203 79.2771 383.858 79.2771 389.703V398.147Z" fill="#6B3903"/>
<path d="M182.742 287.406C189.582 287.406 210.536 289.355 193.273 264.241C193.491 260.777 195.01 250.493 187.085 245.946C179.16 241.4 182.091 238.694 182.742 236.529C183.394 234.364 185.565 202.213 143.115 204.162C138.772 205.028 122.27 208.059 123.79 232.09C125.31 256.122 125.31 264.024 125.31 264.024L182.742 287.406Z" fill="#021D4E"/>
<path d="M237.135 277.772C237.135 277.772 251.9 275.391 253.637 268.787C253.637 268.787 256.243 265.648 253.637 263.699C253.637 263.699 252.66 260.993 250.706 260.993C248.752 260.993 228.992 264.349 226.278 263.699C223.564 263.05 222.913 280.045 222.913 280.045L237.135 277.772Z" fill="#E08F82"/>
<path d="M239.85 267.272L253.312 263.808" stroke="#BC5E63" stroke-miterlimit="10" stroke-linecap="round"/>
<path d="M253.203 269.112C253.203 269.112 253.095 265.865 251.9 266.514C250.489 267.272 249.078 268.679 248.426 269.004C246.906 269.653 244.301 271.277 243.541 271.494" stroke="#BC5E63" stroke-miterlimit="10" stroke-linecap="round"/>
<path d="M245.603 269.004C244.952 268.571 244.083 268.571 243.541 269.112C242.129 270.519 239.415 272.901 238.112 272.901C236.375 273.009 232.901 272.684 231.381 271.494C229.861 270.303 227.798 269.653 227.798 269.653C227.798 269.653 228.667 265.973 228.45 264.241C228.232 262.509 229.101 260.56 229.861 259.803C230.621 259.045 232.684 254.823 230.512 252.766C230.512 252.766 228.884 251.9 228.558 252.766C228.232 253.632 225.627 258.287 224.433 259.911C223.347 261.535 213.793 272.251 212.49 275.499C211.296 278.746 215.639 284.917 215.639 284.917L222.804 282.319C222.804 282.319 233.987 278.746 234.964 278.746C235.941 278.746 241.043 277.772 245.82 271.169C246.472 270.519 246.363 269.545 245.603 269.004Z" fill="#FAA895"/>
<path d="M222.913 282.427C222.261 283.618 212.273 301.263 206.41 311.871C200.33 322.913 191.971 320.531 188.497 318.799C185.239 317.175 169.28 302.129 167.217 300.18C167.109 300.072 167 299.964 167 299.964C162.766 311.979 150.389 308.299 150.389 308.299C149.086 315.66 153.103 330.274 153.103 330.274L99.9048 353.331L109.676 304.185H81.0139C72.437 300.288 77.6483 288.597 77.6483 288.597C77.6483 288.597 97.5163 267.597 107.505 261.21C117.493 254.823 120.207 255.581 120.207 255.581C120.207 255.581 156.469 263.916 164.611 264.024C172.754 264.133 181.657 277.339 181.657 277.339L193.599 294.443L212.49 275.391C214.77 281.236 222.913 282.427 222.913 282.427Z" fill="#FF66F4"/>
<path d="M222.913 282.535C222.261 283.618 212.273 301.263 206.41 311.979C200.33 323.021 191.971 320.639 188.496 318.907C185.239 317.284 169.28 302.237 167.217 300.288C168.954 291.412 162.006 287.406 162.006 287.406C163.2 285.241 168.086 282.86 168.086 282.86C168.086 282.86 187.845 308.191 190.342 311.005C192.839 313.82 196.531 313.062 199.896 311.222C203.153 309.598 221.935 283.834 222.913 282.535Z" fill="#DB56D8"/>
<path d="M126.07 288.597C126.07 288.597 119.23 295.2 123.681 303.319L139.967 328.325C139.967 328.325 144.744 328.866 144.961 312.953L145.504 328.325C145.504 328.325 148.218 328 148.543 323.887C148.869 319.773 149.521 307.541 149.521 307.541C149.521 307.541 143.115 289.138 126.07 288.597Z" fill="#FAA895"/>
<path d="M126.07 288.597L97.9504 287.406" stroke="black" stroke-miterlimit="10" stroke-linecap="round"/>
<path d="M121.945 281.236C121.945 281.236 111.413 284.267 109.025 287.839" stroke="black" stroke-miterlimit="10" stroke-linecap="round"/>
<path d="M88.94 356.254H127.156C134.213 356.254 139.967 350.517 139.967 343.48V316.093C139.967 309.057 134.213 303.319 127.156 303.319H88.94C81.883 303.319 76.1289 309.057 76.1289 316.093V343.372C76.1289 350.517 81.883 356.254 88.94 356.254Z" fill="#6B3903"/>
<path d="M95.9969 350.733H103.597C109.134 350.733 113.476 346.295 113.476 340.882C113.476 335.362 109.025 331.031 103.597 331.031H95.9969C90.4599 331.031 86.1172 335.47 86.1172 340.882C86.0086 346.295 90.4599 350.733 95.9969 350.733Z" fill="#824C17"/>
<path d="M96.2137 395.008C98.9279 395.008 101.099 392.843 101.099 390.136V342.939C101.099 340.233 98.9279 338.068 96.2137 338.068C93.4995 338.068 91.3281 340.233 91.3281 342.939V390.136C91.3281 392.843 93.4995 395.008 96.2137 395.008Z" fill="#331A02"/>
<path d="M164.503 264.674C169.28 280.587 144.961 275.066 138.881 271.494C132.801 267.921 120.207 255.689 120.207 255.689C131.064 255.148 133.235 255.906 135.624 257.096C138.012 258.287 140.618 258.179 141.704 257.096C142.898 256.014 143.549 243.89 143.549 243.89C135.298 244.323 136.927 240.75 136.927 238.91C136.927 236.962 138.881 236.962 138.881 236.962H140.835C149.303 236.962 147.458 218.776 147.458 218.776C163.2 217.693 166.24 224.838 166.783 233.389C167.868 252.225 156.143 249.194 156.143 249.194L155.275 260.56C160.703 264.133 164.503 264.674 164.503 264.674Z" fill="#FAA895"/>
<path d="M155.166 227.327C155.166 227.327 150.823 225.054 148.435 229.059" stroke="black" stroke-width="0.9205" stroke-miterlimit="10" stroke-linecap="round" stroke-linejoin="round"/>
<path d="M153.859 235.329C154.674 234.949 154.902 233.72 154.368 232.582C153.835 231.445 152.742 230.831 151.927 231.211C151.113 231.591 150.885 232.821 151.418 233.958C151.952 235.096 153.045 235.709 153.859 235.329Z" fill="black"/>
<path d="M163.104 230.499C163.756 230.195 163.934 229.202 163.502 228.282C163.07 227.361 162.192 226.861 161.54 227.165C160.888 227.469 160.71 228.462 161.142 229.382C161.574 230.303 162.452 230.803 163.104 230.499Z" fill="black"/>
<path d="M162.983 224.513C162.983 224.513 159.943 222.889 159.074 226.028" stroke="black" stroke-width="0.9477" stroke-miterlimit="10" stroke-linecap="round" stroke-linejoin="round"/>
<path d="M158.532 228.518C158.532 228.518 159.509 233.931 161.137 235.013C162.766 235.987 160.16 237.395 159.183 237.395" stroke="#BC5E63" stroke-miterlimit="10" stroke-linecap="round"/>
<path d="M161.355 242.266C158.532 243.24 157.012 241.292 157.012 241.292L163.852 239.018C163.852 239.018 164.72 241.075 161.355 242.266Z" fill="white"/>
<path d="M147.783 243.89C147.892 243.998 148.218 244.431 148.761 245.189C148.543 244.972 148.435 244.864 148.326 244.648C148.001 244.106 147.892 243.89 147.783 243.89Z" fill="#F99895"/>
<path d="M164.503 264.674C157.555 264.782 153.755 263.05 152.67 262.725C151.584 262.401 153.429 254.39 153.321 252.442C153.321 251.251 150.498 247.245 148.87 245.189C151.584 248.111 156.252 249.194 156.252 249.194L155.384 260.56C160.704 264.133 164.503 264.674 164.503 264.674Z" fill="#E08F82"/>
<path d="M117.385 69.0651L134.538 80.1066L147.784 75.6684L161.355 78.5911L178.291 25.1154L189.691 78.9159L201.091 59.4308L212.165 79.8901L223.13 74.5859L228.233 79.1324L244.626 71.3383L250.489 75.3436H271.117" stroke="#FFA401" stroke-width="4" stroke-miterlimit="10" stroke-linecap="round" stroke-linejoin="round"/>
<path d="M622.878 70.5806H597.256V118.644H622.878V70.5806Z" fill="#F2FEF8"/>
<path d="M622.878 87.4677H597.256V118.536H622.878V87.4677Z" fill="#00C45A"/>
<path d="M655.449 82.0552H629.827V118.536H655.449V82.0552Z" fill="#F2FEF8"/>
<path d="M655.449 102.948H629.827V118.536H655.449V102.948Z" fill="#00C45A"/>
<path d="M688.019 60.5133H662.397V118.536H688.019V60.5133Z" fill="#F2FEF8"/>
<path d="M688.019 85.8439H662.397V118.536H688.019V85.8439Z" fill="#00C45A"/>
<path d="M720.59 60.0803H694.968V118.536H720.59V60.0803Z" fill="#F2FEF8"/>
<path d="M51.5924 178.398H32.4844C30.5301 178.398 28.9016 176.774 28.9016 174.826C28.9016 172.877 30.5301 171.254 32.4844 171.254H51.5924C53.5466 171.254 55.1751 172.877 55.1751 174.826C55.1751 176.774 53.5466 178.398 51.5924 178.398Z" fill="#F2FEF8"/>
<path d="M79.8202 190.847H32.2673C30.3131 190.847 28.6846 189.223 28.6846 187.275C28.6846 185.326 30.3131 183.702 32.2673 183.702H79.7116C81.6659 183.702 83.2944 185.326 83.2944 187.275C83.403 189.223 81.7744 190.847 79.8202 190.847Z" fill="#00C45A"/>
<path d="M177.206 109.334H119.013C117.059 109.334 115.43 107.71 115.43 105.762C115.43 103.813 117.059 102.19 119.013 102.19H177.206C179.16 102.19 180.788 103.813 180.788 105.762C180.788 107.71 179.16 109.334 177.206 109.334Z" fill="#F36C5B" fill-opacity="0.1"/>
<path d="M532.984 226.894H316.933C311.613 226.894 307.27 222.564 307.27 217.26V84.112C307.27 78.8077 311.613 74.4777 316.933 74.4777H532.984C538.303 74.4777 542.646 78.8077 542.646 84.112V217.368C542.646 222.673 538.303 226.894 532.984 226.894Z" fill="#DFE6F7"/>
<path d="M349.938 94.937H323.122C320.516 94.937 318.453 92.8802 318.453 90.2822C318.453 87.6842 320.516 85.6274 323.122 85.6274H349.938C352.544 85.6274 354.606 87.6842 354.606 90.2822C354.606 92.772 352.544 94.937 349.938 94.937Z" fill="#656D8B"/>
<path d="M522.344 94.937H464.694C462.088 94.937 460.025 92.8802 460.025 90.2822C460.025 87.6842 462.088 85.6274 464.694 85.6274H522.344C524.949 85.6274 527.012 87.6842 527.012 90.2822C527.012 92.772 524.841 94.937 522.344 94.937Z" fill="#BDC4CF"/>
<path d="M639.163 51.2037H595.302C593.348 51.2037 591.828 49.6882 591.828 47.7397C591.828 45.7911 593.348 44.2756 595.302 44.2756H639.163C641.118 44.2756 642.638 45.7911 642.638 47.7397C642.638 49.6882 641.009 51.2037 639.163 51.2037Z" fill="#00C45A"/>
<path d="M614.084 40.0539H594.976C593.022 40.0539 591.502 38.5384 591.502 36.5899C591.502 34.6414 593.022 33.1259 594.976 33.1259H614.084C616.038 33.1259 617.558 34.6414 617.558 36.5899C617.558 38.5384 616.038 40.0539 614.084 40.0539Z" fill="#F2FEF8"/>
<path d="M631.021 460.066C631.021 460.066 631.998 466.236 631.021 466.778C630.044 467.319 644.701 466.778 645.244 466.669C645.787 466.561 645.461 463.855 645.461 463.855L645.678 458.659L631.021 460.066Z" fill="#F8BAC1"/>
<path d="M580.102 458.767L579.234 465.803L594.216 466.02L593.673 458.984L580.102 458.767Z" fill="#F8BAC1"/>
<path d="M498.567 154.15C505.762 154.15 511.595 148.334 511.595 141.16C511.595 133.986 505.762 128.17 498.567 128.17C491.372 128.17 485.539 133.986 485.539 141.16C485.539 148.334 491.372 154.15 498.567 154.15Z" fill="#D2F0DB"/>
<path d="M498.568 150.145C503.545 150.145 507.579 146.122 507.579 141.16C507.579 136.198 503.545 132.175 498.568 132.175C493.591 132.175 489.557 136.198 489.557 141.16C489.557 146.122 493.591 150.145 498.568 150.145Z" fill="#A1DFB6"/>
<path d="M498.568 146.248C501.386 146.248 503.67 143.97 503.67 141.16C503.67 138.35 501.386 136.072 498.568 136.072C495.749 136.072 493.465 138.35 493.465 141.16C493.465 143.97 495.749 146.248 498.568 146.248Z" fill="#26B54A"/>
<path d="M326.052 166.166C326.052 166.166 330.612 136.722 354.172 138.67C377.731 140.51 389.891 173.202 405.307 170.821C420.724 168.439 429.084 141.16 438.855 143.541C448.626 145.923 446.997 155.99 452.1 154.583C457.203 153.284 469.688 123.515 475.334 123.515C480.979 123.515 484.562 134.557 490.533 137.804C496.505 141.052 498.459 141.376 500.847 138.995" stroke="#2BAC52" stroke-width="2" stroke-miterlimit="10" stroke-linecap="round"/>
<path d="M647.958 474.463V477.927L603.01 478.144C602.793 476.845 602.793 475.654 603.119 474.68C603.119 474.68 603.119 474.68 603.119 474.572C604.313 470.458 609.199 468.185 612.89 467.427C614.518 467.102 616.038 467.102 616.69 467.427C619.404 468.51 631.129 464.504 631.129 464.504C639.924 468.293 645.243 463.855 645.243 463.855C648.826 465.046 647.958 474.463 647.958 474.463Z" fill="#92CCFF"/>
<path d="M647.958 474.68V477.927L603.01 478.144C602.793 476.845 602.793 475.654 603.119 474.68H647.958Z" fill="#111F72"/>
<path d="M613.216 474.572H603.228C604.422 470.458 609.307 468.185 612.999 467.427L613.216 474.572Z" fill="#E1E6F9"/>
<path d="M596.496 472.082V475.546L551.549 475.762C551.332 474.463 551.332 473.273 551.658 472.298C551.658 472.298 551.658 472.298 551.658 472.19C552.852 468.077 557.737 465.803 561.429 465.046C563.057 464.721 564.577 464.721 565.229 465.046C567.943 466.128 579.668 462.123 579.668 462.123C588.462 465.912 593.782 461.473 593.782 461.473C597.365 462.664 596.496 472.082 596.496 472.082Z" fill="#92CCFF"/>
<path d="M596.496 472.298V475.546L551.549 475.762C551.332 474.463 551.332 473.273 551.658 472.298H596.496Z" fill="#111F72"/>
<path d="M561.754 472.298L551.658 472.19C552.852 468.077 557.737 465.803 561.429 465.046L561.754 472.298Z" fill="#E1E6F9"/>
<path d="M641.769 263.483C641.769 263.483 645.026 276.04 643.832 294.768C642.638 313.495 639.163 361.775 639.381 367.079C639.598 372.383 645.135 419.472 645.135 421.962C645.135 424.452 648.392 460.174 648.392 460.174C648.392 460.174 627.655 462.772 626.027 460.174C624.398 457.576 615.387 367.512 615.387 367.512L611.261 297.582L602.25 388.621C602.25 388.621 599.97 459.092 596.93 459.741C593.891 460.391 579.451 460.716 577.931 459.525C576.52 458.334 585.422 269.004 585.422 269.004C585.422 269.004 616.147 280.37 641.769 263.483Z" fill="#22B6FD"/>
<path d="M537.87 132.608C539.39 126.438 545.795 129.577 545.795 129.577C545.795 129.577 540.475 124.165 543.189 122.216C545.795 120.268 551.332 121.458 551.332 121.458C551.332 121.458 551.332 117.128 553.395 116.479C555.458 115.829 556.435 118.752 558.172 118.752C559.909 118.752 575.651 111.391 581.84 125.572C588.028 139.753 578.366 147.547 578.366 147.547L548.184 139.103C548.401 138.995 536.024 140.186 537.87 132.608Z" fill="#04203F"/>
<path d="M601.816 169.197C598.125 181.213 574.891 185.651 574.891 185.651C574.891 185.651 560.452 183.378 564.686 179.048C566.097 177.64 566.64 176.125 566.857 174.718C567.183 171.687 565.771 169.197 565.771 169.197C564.903 169.305 564.034 169.305 563.166 169.197C544.601 168.006 549.486 131.201 549.486 131.201C554.372 130.118 555.023 127.196 555.023 127.196C555.675 131.417 564.251 128.495 566.749 127.196C569.246 125.897 571.2 129.144 571.2 129.144C571.2 129.144 567.943 138.887 570.766 138.778C573.697 138.67 576.411 142.675 576.411 142.675C577.822 140.835 586.291 139.644 586.725 146.139C587.159 152.634 581.297 152.851 581.297 152.851C582.599 162.918 601.816 169.197 601.816 169.197Z" fill="#FABBC3"/>
<path d="M575.759 161.836C575.542 170.496 570.548 173.635 566.857 174.718C567.183 171.687 565.771 169.197 565.771 169.197C564.903 169.305 564.034 169.305 563.166 169.197C563.817 168.764 564.685 168.656 565.663 168.656C571.091 169.089 575.759 161.836 575.759 161.836Z" fill="#FF8388"/>
<path d="M560.56 138.021C560.56 138.021 562.949 136.18 565.554 139.644" stroke="black" stroke-miterlimit="10" stroke-linecap="round"/>
<path d="M550.68 140.727C550.68 140.727 551.874 137.155 554.914 138.345" stroke="black" stroke-miterlimit="10" stroke-linecap="round"/>
<path d="M556.326 140.402C556.326 140.402 557.303 145.923 556 149.82C554.697 153.717 555.783 155.341 560.668 154.258" stroke="#FF8388" stroke-miterlimit="10"/>
<path d="M562.623 148.846C563.403 148.846 564.034 147.876 564.034 146.681C564.034 145.485 563.403 144.516 562.623 144.516C561.844 144.516 561.212 145.485 561.212 146.681C561.212 147.876 561.844 148.846 562.623 148.846Z" fill="black"/>
<path d="M553.069 149.387C553.849 149.387 554.48 148.418 554.48 147.222C554.48 146.026 553.849 145.057 553.069 145.057C552.29 145.057 551.658 146.026 551.658 147.222C551.658 148.418 552.29 149.387 553.069 149.387Z" fill="black"/>
<path d="M576.411 149.928C576.411 149.928 578.365 144.299 584.228 145.49" stroke="#FF8388" stroke-miterlimit="10" stroke-linecap="round"/>
<path d="M582.056 149.712C582.056 149.712 579.017 149.712 579.017 146.681" stroke="#FF8388" stroke-miterlimit="10" stroke-linecap="round"/>
<path d="M556.217 157.289C556.217 157.289 561.754 158.047 564.36 156.423C566.966 154.8 564.794 160.537 560.451 161.295C556.109 162.161 556.217 157.289 556.217 157.289Z" fill="white"/>
<path d="M542.972 217.26C542.972 217.26 531.138 261.21 531.138 262.617C531.138 263.916 524.298 284.592 523.647 290.87C522.887 297.041 514.201 299.097 514.201 301.804C514.201 304.402 526.795 300.721 528.75 298.015C530.595 295.417 533.092 302.345 534.178 302.345C535.264 302.345 533.852 296.175 531.681 293.144C529.618 290.113 539.172 277.123 543.515 268.138C547.858 259.153 561.103 221.698 561.103 221.698L542.972 217.26Z" fill="#F7BCC2"/>
<path d="M540.909 219.642C540.909 219.642 546.446 203.512 546.446 201.239C546.446 198.966 552.308 181.321 567.074 178.939C567.074 178.939 585.313 182.403 599.427 168.764L601.816 169.197C601.816 169.197 615.387 172.228 617.667 172.661C619.946 173.094 634.495 176.233 636.015 196.368C637.535 216.502 641.334 239.993 641.877 245.08C642.42 250.168 646.22 265.107 642.854 267.38C639.38 269.653 600.513 284.159 583.902 271.169C583.902 271.169 581.513 246.271 580.21 242.482C578.908 238.694 567.942 218.451 566.097 218.343C564.251 218.234 563.057 223.43 563.057 223.43L540.909 219.642Z" fill="#4E5986"/>
<path d="M609.524 214.229C609.524 214.229 612.347 194.311 614.084 192.362C615.821 190.414 605.073 206.219 604.313 216.394C603.553 226.57 605.942 231.982 604.639 236.421C603.227 240.859 600.513 254.065 600.513 254.065C600.513 254.065 612.781 234.797 609.524 214.229Z" fill="#414C6D"/>
<path d="M609.524 214.229C609.524 214.229 609.198 235.446 606.701 239.018C604.204 242.591 584.987 278.638 583.142 280.37C581.296 282.102 570.331 284.7 566.205 291.303C562.079 297.907 570.114 305.051 570.114 305.051C570.114 305.051 579.885 299.747 582.599 293.793C582.599 293.793 612.781 262.184 617.449 257.096C622.118 252.009 631.02 224.946 631.02 221.049C631.02 217.152 627.22 214.987 609.524 214.229Z" fill="#F8BAC1"/>
<path d="M290.877 319.016V478.252H304.013V319.34C304.122 319.34 291.42 319.449 290.877 319.016Z" fill="#BDC3D1"/>
<path d="M507.688 319.016V478.252H520.824V319.34C520.824 319.34 508.122 319.449 507.688 319.016Z" fill="#BDC3D1"/>
<path d="M604.096 311.871V307.108H565.229V311.763C565.229 311.763 604.096 311.546 604.096 311.871Z" fill="#A5B3E1"/>
<path d="M498.676 305.484V311.763H567.617V306.026C567.617 306.026 499.11 305.809 498.676 305.484Z" fill="#505A73"/>
<path d="M481.196 254.173H561.754L572.719 307.108L492.27 307L481.196 254.173Z" fill="#616D86"/>
<path d="M322.578 259.694C322.578 259.694 322.361 267.055 322.361 267.921C322.361 268.896 319.43 273.334 319.43 273.334L326.052 273.442C326.052 273.442 328.549 274.849 325.835 276.69C323.121 278.53 320.515 281.886 322.361 284.159C324.207 286.432 337.126 277.664 337.126 277.231C337.126 276.798 340.058 269.329 338.972 266.839C337.886 264.349 332.675 257.638 332.675 257.638L322.578 259.694Z" fill="#C35E2F"/>
<path d="M475.334 164.326C474.682 163.893 474.682 163.027 475.225 162.594C476.962 161.078 480.002 157.831 480.219 155.341C480.545 151.769 479.459 150.361 482.391 148.738C484.888 147.439 495.419 140.943 498.676 138.887C499.219 138.562 499.979 138.778 500.304 139.32C500.521 139.753 500.413 140.294 500.087 140.619L494.116 146.681C493.573 147.222 493.682 148.196 494.442 148.521C496.07 149.279 498.35 150.686 498.242 152.31C498.133 154.8 498.35 161.186 496.396 161.186C494.442 161.186 494.55 158.697 494.007 158.913C493.356 159.13 490.75 163.676 488.362 163.676C486.516 163.676 483.802 166.599 482.499 168.006C482.173 168.439 481.522 168.547 480.979 168.223L475.334 164.326Z" fill="#C66231"/>
<path d="M423.873 454.004C423.873 454.004 424.524 462.231 427.781 463.638C431.147 465.046 447.866 469.917 448.192 472.623C448.518 475.329 448.843 478.469 448.843 478.469H403.245C403.245 478.469 397.273 476.087 400.096 466.02C402.919 455.952 403.136 453.896 403.136 453.896L423.873 454.004Z" fill="black"/>
<path d="M343.531 454.545C343.531 454.545 341.143 463.855 340.492 464.613C339.84 465.37 338.32 469.809 340.166 471.433C342.012 473.056 378.491 472.84 378.491 472.84C378.491 472.84 388.804 472.84 388.479 470.458C388.153 468.077 380.445 463.855 375.993 463.53C371.542 463.205 364.268 458.984 363.942 455.52C363.617 452.056 343.531 454.545 343.531 454.545Z" fill="#000201"/>
<path d="M341.469 455.303C341.469 455.303 364.16 459.741 366.44 454.762C368.611 449.89 374.474 355.388 374.474 355.388L377.948 294.767L395.102 357.878L399.879 455.736L426.152 454.545L419.313 356.579C419.313 356.579 409.759 263.05 408.022 254.931L348.852 253.957C348.852 253.957 343.966 264.674 344.943 285.891C345.921 307.108 350.046 347.485 349.395 352.14C348.635 356.795 341.469 455.303 341.469 455.303Z" fill="#1F2C7A"/>
<path d="M219.33 311.655V324.536L611.804 324.645L611.696 311.763C611.696 311.763 219.33 311.113 219.33 311.655Z" fill="#FFA002"/>
<path d="M364.92 283.726C364.92 283.726 374.148 291.52 377.514 291.845" stroke="black" stroke-miterlimit="10"/>
<path d="M411.278 124.922C411.278 124.922 410.301 126.654 410.736 128.711C411.17 130.876 412.69 142.784 401.507 141.376L405.524 149.82L398.902 149.279L373.714 147.005C373.714 147.005 380.228 140.077 379.794 132.067C379.359 124.056 391.953 97.3184 403.462 97.7514C403.462 97.7514 408.673 103.813 408.89 108.793C409.107 113.773 412.038 118.969 412.473 119.835C412.69 120.701 415.404 123.515 411.278 124.922Z" fill="#C66231"/>
<path d="M405.525 149.82L398.902 149.279L394.776 147.763L392.931 134.015C392.931 134.015 391.519 126.546 396.296 134.99C396.296 134.99 398.142 138.887 401.616 141.376L405.525 149.82Z" fill="#963E18"/>
<path d="M404.222 110.2C404.222 110.2 404.656 105.979 408.347 106.52" stroke="black" stroke-miterlimit="10" stroke-linecap="round"/>
<path d="M408.364 116.706C408.763 116.575 408.798 115.595 408.443 114.515C408.087 113.436 407.476 112.667 407.077 112.798C406.678 112.928 406.643 113.909 406.999 114.988C407.354 116.067 407.965 116.836 408.364 116.706Z" fill="black"/>
<path d="M483.694 168.439C483.694 168.439 454.923 211.306 451.883 214.337C448.735 217.26 443.958 219.425 439.398 214.879C434.838 210.332 421.484 194.852 421.484 194.852C421.484 194.852 418.661 192.471 418.118 200.59C417.575 208.817 413.341 233.281 412.581 236.312C411.821 239.235 411.821 255.797 411.821 256.447C411.821 257.096 408.456 256.772 404.982 258.179C401.616 259.586 367.851 269.004 345.16 256.014C345.16 256.014 352 236.962 350.589 231.008C349.177 225.054 343.532 204.378 343.532 204.378L331.372 214.987C331.372 214.987 330.829 219.533 331.807 225.379C332.784 231.333 334.521 258.071 334.521 258.071C334.521 258.071 324.207 262.184 321.275 260.777C321.275 260.777 314.87 233.281 313.024 229.059C311.179 224.838 307.27 213.363 312.59 205.028C317.91 196.692 337.343 165.516 337.343 165.516C337.343 165.516 346.355 151.011 366.331 148.413C366.331 148.413 368.611 148.413 371.434 146.681C373.388 145.49 375.56 143.541 377.514 140.186C377.514 140.186 397.707 138.778 403.027 142.675L406.284 149.171C406.284 149.171 415.621 154.8 418.335 154.908C421.05 155.016 428.975 155.666 435.706 167.357C442.546 179.048 447.323 185.11 447.323 185.11L474.899 160.97L483.694 168.439Z" fill="#2847E0"/>
<path d="M406.393 149.387L371.651 146.897C373.606 145.706 375.777 143.758 377.731 140.402C377.731 140.402 397.925 138.995 403.245 142.892L406.393 149.387Z" fill="white"/>
<path d="M402.376 94.3956C401.616 93.4213 392.388 89.0913 384.137 92.8801C375.777 96.6689 372.412 97.8596 369.589 103.922C363.292 117.453 369.914 132.933 378.057 133.258C386.2 133.582 392.388 133.041 394.234 120.809C394.451 117.994 396.514 113.556 399.445 116.154C402.376 118.644 401.291 117.886 401.291 117.886L402.919 116.154C402.919 116.154 400.531 113.231 401.291 111.174C402.051 109.009 401.942 104.355 401.508 103.164C401.074 101.973 404.656 102.081 405.416 98.1844" fill="#331531"/>
<path d="M401.616 128.386C400.313 128.386 399.227 128.062 398.25 127.412C396.73 126.33 395.645 124.598 395.319 122.324C394.559 117.778 396.947 116.804 397.056 116.695C397.382 116.587 397.599 116.695 397.707 117.02C397.816 117.345 397.707 117.561 397.382 117.67C397.273 117.67 395.645 118.427 396.296 122.108C396.622 124.165 397.49 125.68 398.793 126.438C399.987 127.196 401.507 127.412 403.244 126.979C403.57 126.871 403.787 127.087 403.896 127.412C404.004 127.737 403.787 127.953 403.462 128.062C402.919 128.278 402.267 128.386 401.616 128.386Z" fill="#963E18"/>
<path d="M403.679 124.598C403.461 124.598 403.136 124.381 403.136 124.165C402.484 120.051 398.142 119.726 397.924 119.726C397.599 119.726 397.382 119.402 397.382 119.185C397.382 118.969 397.707 118.644 397.924 118.644C397.924 118.644 403.353 119.077 404.113 124.056C404.221 124.273 404.004 124.598 403.679 124.598Z" fill="#963E18"/>
<path d="M400.531 125.031C400.422 125.031 400.205 124.922 400.096 124.814C399.879 124.598 399.988 124.273 400.205 124.056C401.182 123.19 400.856 121.134 400.639 120.484C400.531 120.159 400.748 119.943 400.965 119.835C401.291 119.726 401.508 119.943 401.616 120.159C401.616 120.268 402.594 123.515 400.856 124.922C400.856 125.031 400.639 125.031 400.531 125.031Z" fill="#963E18"/>
<path d="M33 78.5C33 74.8453 31.7866 71.294 29.5502 68.4034C27.3138 65.5128 24.181 63.4465 20.6434 62.5287C17.1058 61.611 13.3636 61.8937 10.004 63.3325C6.64446 64.7714 3.85767 67.2849 2.08096 70.4787C0.304256 73.6725 -0.361807 77.3658 0.187292 80.979C0.73639 84.5923 2.46957 87.9209 5.11487 90.4427C7.76016 92.9645 11.1679 94.5367 14.8032 94.9125C18.4385 95.2884 22.0958 94.4466 25.2011 92.5193L16.5 78.5H33Z" fill="#567DF4"/>
<path d="M33 78.5C33 76.3332 32.5732 74.1876 31.744 72.1857C30.9148 70.1839 29.6994 68.3649 28.1673 66.8327C26.6351 65.3006 24.8161 64.0852 22.8143 63.256C20.8124 62.4268 18.6668 62 16.5 62V78.5H33Z" fill="#0ACF83"/>
<path d="M33 78.5C33 76.3332 32.5732 74.1876 31.744 72.1857C30.9148 70.1839 29.6994 68.3649 28.1673 66.8327L16.5 78.5H33Z" fill="#FFC700"/>
<path d="M33 78.5C33 80.8976 32.4775 83.2663 31.4689 85.4414L16.5 78.5H33Z" fill="#FF5A89"/>
<path d="M29.4094 88.7761C27.4002 91.3002 24.6951 93.1798 21.6288 94.1826L16.5 78.5L29.4094 88.7761Z" fill="#3434FF"/>
<path d="M29.4071 88.779C30.3269 87.624 31.0875 86.3508 31.6686 84.9934L16.5 78.5L29.4071 88.779Z" fill="#FF5A89"/>
</svg>
